<svg width="21" height="19" viewBox="0 0 21 19" fill="none" xmlns="http://www.w3.org/2000/svg">
<path d="M16.8356 11.795H3.15397C3.02208 11.795 2.91381 11.7602 2.82915 11.6904C2.74449 11.6206 2.70216 11.5314 2.70216 11.4227V0.907312C2.70216 0.649837 2.5967 0.434299 2.38578 0.2607C2.17511 0.0869007 1.91354 0 1.60108 0C1.28862 0 1.02705 0.0869007 0.816377 0.2607C0.605459 0.434299 0.5 0.649837 0.5 0.907312V11.4227C0.5 12.026 0.759243 12.5414 1.27773 12.9688C1.79646 13.396 2.42187 13.6097 3.15397 13.6097H16.8356L12.2052 17.4249C11.9869 17.605 11.8717 17.8187 11.8595 18.0661C11.8472 18.3133 11.955 18.5307 12.1828 18.7184C12.4106 18.9061 12.6722 19 12.9675 19C13.2631 19 13.5248 18.9061 13.7526 18.7184L20.1245 13.4678C20.262 13.3545 20.3589 13.235 20.4152 13.1094C20.4717 12.9838 20.5 12.8481 20.5 12.7024C20.5 12.5566 20.4717 12.4209 20.4152 12.2953C20.3589 12.1697 20.262 12.0502 20.1245 11.9369L13.7298 6.66753C13.5116 6.48768 13.2561 6.39896 12.9635 6.40138C12.6708 6.4036 12.4106 6.49856 12.1828 6.68628C11.9702 6.87399 11.8601 7.0864 11.8525 7.32351C11.8449 7.56083 11.955 7.77334 12.1828 7.96105L16.8356 11.795Z" fill="white"/>
</svg>
