<svg width="72" height="81" viewBox="0 0 72 81" fill="none" xmlns="http://www.w3.org/2000/svg">
<path d="M7.09531 72.5L0.714355 0.5H71.2858L64.9048 72.5L36.0477 80.5L7.28578 72.5H7.09531Z" fill="#264DE4"/>
<path d="M59.2725 67.9369L64.7963 6.41309H35.9391V74.4131L59.2725 67.9369Z" fill="#2965F1"/>
<path d="M15.3626 33.061L16.1245 41.9182H35.8388V33.061H15.2674H15.3626ZM14.6007 24.0134H35.934V15.1562H13.7436L14.5055 24.0134H14.6007ZM35.934 56.0134L26.1245 53.3467L25.4578 46.2991H16.6007L17.8388 60.2039L35.934 65.2515V56.0134Z" fill="#EBEBEB"/>
<path d="M35.9391 33.0771V41.9343H46.7963L45.7486 53.3629L35.9391 56.0295V65.1724L54.0344 60.1248V58.601C54.1296 58.601 56.2248 35.3629 56.2248 35.3629L56.4153 32.9819L58.0344 15.0771H35.9391V23.9343H48.4153L47.6534 32.9819H36.0344L35.9391 33.0771Z" fill="white"/>
</svg>
