<svg width="43" height="32" viewBox="0 0 43 32" fill="none" xmlns="http://www.w3.org/2000/svg">
<g clip-path="url(#clip0_4245_2666)">
<path d="M41.0382 13.7183C40.9246 13.6233 39.9018 12.8441 37.7045 12.8441C37.1363 12.8441 36.549 12.9011 35.9808 12.9961C35.5641 10.0885 33.1586 8.68224 33.0638 8.60621L32.4766 8.26416L32.0977 8.81527C31.6243 9.55642 31.2644 10.3926 31.0559 11.2478C30.6583 12.9011 30.9044 14.4594 31.738 15.7897C30.734 16.3598 29.105 16.4929 28.764 16.5119H1.86678C1.16594 16.5119 0.597687 17.082 0.597687 17.7852C0.559803 20.1416 0.957579 22.4982 1.77207 24.7216C2.70023 27.1541 4.08297 28.9594 5.86349 30.0618C7.87131 31.297 11.1482 32.0001 14.8419 32.0001C16.5087 32.0001 18.1757 31.8481 19.8236 31.544C22.1155 31.1259 24.3127 30.3278 26.3395 29.1686C28.0064 28.1994 29.5028 26.964 30.7719 25.5197C32.9123 23.1062 34.1814 20.4077 35.1096 18.0132H35.4884C37.8181 18.0132 39.2578 17.082 40.0533 16.2838C40.5836 15.7897 40.9815 15.1816 41.2657 14.4975L41.436 14.0034L41.0382 13.7183Z" fill="#2C4296"/>
<path d="M4.38351 15.7478H7.98234C8.1528 15.7478 8.30434 15.6145 8.30434 15.4242V12.1883C8.30434 12.017 8.17174 11.8647 7.98234 11.8647H4.38351C4.21305 11.8647 4.06152 11.9979 4.06152 12.1883V15.4242C4.08046 15.6145 4.21305 15.7478 4.38351 15.7478ZM9.34611 15.7478H12.9449C13.1154 15.7478 13.2669 15.6145 13.2669 15.4242V12.1883C13.2669 12.017 13.1343 11.8647 12.9449 11.8647H9.34611C9.17562 11.8647 9.0241 11.9979 9.0241 12.1883V15.4242C9.04304 15.6145 9.17562 15.7478 9.34611 15.7478ZM14.4034 15.7478H18.0022C18.1726 15.7478 18.3241 15.6145 18.3241 15.4242V12.1883C18.3241 12.017 18.1917 11.8647 18.0022 11.8647H14.4034C14.2329 11.8647 14.0814 11.9979 14.0814 12.1883V15.4242C14.0814 15.6145 14.214 15.7478 14.4034 15.7478ZM19.385 15.7478H22.9837C23.1542 15.7478 23.3058 15.6145 23.3058 15.4242V12.1883C23.3058 12.017 23.1731 11.8647 22.9837 11.8647L19.385 11.8647C19.2144 11.8647 19.0629 11.9979 19.0629 12.1883V15.4242C19.0629 15.6145 19.2144 15.7478 19.385 15.7478ZM9.34611 11.1223H12.9449C13.1154 11.1223 13.2669 10.97 13.2669 10.7987V7.56282C13.2669 7.39151 13.1343 7.23922 12.9449 7.23922H9.34611C9.17562 7.23922 9.0241 7.37246 9.0241 7.56282V10.7987C9.04304 10.97 9.17562 11.1223 9.34611 11.1223ZM14.4034 11.1223H18.0022C18.1726 11.1223 18.3241 10.97 18.3241 10.7987V7.56282C18.3241 7.39151 18.1917 7.23922 18.0022 7.23922H14.4034C14.2329 7.23922 14.0814 7.37246 14.0814 7.56282V10.7987C14.0814 10.97 14.214 11.1223 14.4034 11.1223ZM19.385 11.1223H22.9837C23.1542 11.1223 23.3058 10.97 23.3058 10.7987V7.56282C23.3058 7.39151 23.1542 7.23922 22.9837 7.23922H19.385C19.2144 7.23922 19.0629 7.37246 19.0629 7.56282V10.7987C19.0629 10.97 19.2144 11.1223 19.385 11.1223ZM19.385 6.47783H22.9837C23.1542 6.47783 23.3058 6.34459 23.3058 6.15423V2.91832C23.3058 2.74701 23.1542 2.59473 22.9837 2.59473H19.385C19.2144 2.59473 19.0629 2.72797 19.0629 2.91832V6.15423C19.0629 6.32555 19.2144 6.47783 19.385 6.47783ZM24.4043 15.7478H28.0032C28.1736 15.7478 28.3251 15.6145 28.3251 15.4242V12.1883C28.3251 12.017 28.1926 11.8647 28.0032 11.8647H24.4043C24.2338 11.8647 24.0822 11.9979 24.0822 12.1883V15.4242C24.1013 15.6145 24.2338 15.7478 24.4043 15.7478Z" fill="#2C4296"/>
</g>
<defs>
<clipPath id="clip0_4245_2666">
<rect width="41.5135" height="32" fill="white" transform="translate(0.811523)"/>
</clipPath>
</defs>
</svg>
