<svg
  xmlns="http://www.w3.org/2000/svg"
  width="48"
  height="48"
  viewBox="0 0 48 48"
  fill="none"
>
  <!-- Blue circular background -->
  <circle cx="24" cy="24" r="24" fill="#0A66C2"/>
  
  <!-- White border ring -->
  <circle cx="24" cy="24" r="23.5" fill="none" stroke="white" stroke-width="1"/>
  
  <!-- GitHub Octocat in white -->
  <path
    fill="white"
    d="M24 6C14.06 6 6 14.06 6 24c0 7.97 5.16 14.73 12.32 17.13.9.16 1.23-.39 1.23-.87 
    0-.43-.02-1.86-.02-3.38-4.45.97-5.39-1.88-5.39-1.88-.82-2.1-2-2.66-2-2.66-1.64-1.12.12-1.1.12-1.1 
    1.82.13 2.78 1.87 2.78 1.87 1.61 2.76 4.23 1.96 5.26 1.5.16-1.17.63-1.96 1.15-2.41-3.55-.41-7.28-1.77-7.28-7.9 
    0-1.75.62-3.18 1.64-4.3-.16-.41-.71-2.07.16-4.31 0 0 1.34-.43 4.4 1.64A15.3 15.3 0 0124 15.5c1.36.01 2.73.18 4 .54 
    3.06-2.07 4.4-1.64 4.4-1.64.87 2.24.32 3.9.16 4.31 1.02 1.12 1.64 2.55 1.64 4.3 
    0 6.15-3.74 7.49-7.3 7.89.65.56 1.22 1.66 1.22 3.35 
    0 2.42-.02 4.38-.02 4.97 
    0 .48.32 1.04 1.24.87A18 18 0 0042 24c0-9.94-8.06-18-18-18z"
  />
</svg>
