<svg width="32" height="32" viewBox="0 0 32 32" fill="none" xmlns="http://www.w3.org/2000/svg">
<rect width="32" height="32" rx="16" fill="#266AD9"/>
<path d="M16 0.5C24.5772 0.5 31.5 7.42281 31.5 16C31.5 24.5772 24.5772 31.5 16 31.5C7.42281 31.5 0.5 24.5772 0.5 16C0.5 7.42281 7.42281 0.5 16 0.5ZM6.11328 23.54H11.0596V10.2734H6.11328V23.54ZM21.8574 9.9209C20.7862 9.73871 19.6638 9.86501 18.6963 10.2422C18.2076 10.4327 17.7487 10.6917 17.3535 11.0146V10.2734H12.4062V23.54H17.2471V16.5332C17.2471 14.9663 18.229 14.2234 19.1104 14.1934C19.5606 14.178 20.0054 14.3431 20.3418 14.7012C20.6777 15.0587 20.9404 15.6466 20.9404 16.5332V23.54H25.9932V15.2529C25.9931 13.6327 25.5223 12.3835 24.7461 11.4902C23.973 10.6006 22.9314 10.1036 21.8574 9.9209ZM8.5332 4.83301C7.96641 4.83305 7.33021 5.10415 6.84668 5.4668L6.78906 5.50977L6.74707 5.56641C6.39424 6.03685 6.11339 6.56825 6.11328 7.25293C6.11328 7.91537 6.37595 8.55204 6.74707 9.04688L6.76758 9.0752L6.79297 9.10059C7.21755 9.52509 7.88351 9.78024 8.5332 9.78027C9.12489 9.78027 9.84231 9.55725 10.2012 8.96777C10.7175 8.5313 10.9531 7.87366 10.9531 7.25293C10.953 6.56825 10.6731 6.03685 10.3203 5.56641L10.2988 5.53809L10.2734 5.5127C10.044 5.28333 9.73106 5.11818 9.43945 5.01074C9.14485 4.90222 8.81882 4.83301 8.5332 4.83301Z" stroke="white"/>
</svg>
