<svg width="32" height="32" viewBox="0 0 32 32" fill="none" xmlns="http://www.w3.org/2000/svg">
<rect x="4" y="6" width="23" height="18" fill="#266AD9"/>
<path d="M16 0.5C24.5772 0.5 31.5 7.42281 31.5 16C31.5 24.5772 24.5772 31.5 16 31.5C7.42281 31.5 0.5 24.5772 0.5 16C0.5 7.42281 7.42281 0.5 16 0.5ZM25.3682 11.0771L16 15.9688L6.63184 11.0771L5.90039 10.6943V21.8662C5.90039 22.6426 6.51872 23.4336 7.4668 23.4336H24.6396C25.449 23.4336 26.0994 22.783 26.0996 21.9736V10.6943L25.3682 11.0771ZM7.4668 8.56641C6.51872 8.56641 5.90039 9.35736 5.90039 10.1338V10.6494L6.16895 10.79L15.7686 15.8027L16 15.9238L16.2314 15.8027L25.8311 10.79L26.0996 10.6494V10.1338C26.0996 9.35736 25.4813 8.56641 24.5332 8.56641H7.4668Z" fill="#266AD9" stroke="white"/>
</svg>
