<?xml version="1.0" encoding="UTF-8"?>
<svg version="1.1" xmlns="http://www.w3.org/2000/svg" width="512" height="512">
<path d="M0 0 C1.67602359 -0.00230634 3.35204616 -0.00548402 5.02806664 -0.00945449 C9.61942359 -0.01778733 14.21069718 -0.01368407 18.80205441 -0.00748205 C23.75917558 -0.00295239 28.71628254 -0.00994388 33.67340088 -0.01544189 C43.37879075 -0.02433203 53.08414968 -0.02241556 62.78954077 -0.01661661 C70.67779132 -0.01209865 78.5660332 -0.01148781 86.45428467 -0.01366425 C87.57726342 -0.01397071 88.70024216 -0.01427718 89.85725057 -0.01459293 C92.13860719 -0.01523239 94.4199638 -0.01588081 96.70132041 -0.01653811 C118.09029076 -0.0222403 139.47924397 -0.01568526 160.86821151 -0.00493738 C179.21830194 0.00399803 197.56836706 0.00244595 215.91845703 -0.0067749 C237.23124165 -0.0174795 258.54401124 -0.02169098 279.85679817 -0.01555037 C282.12973149 -0.01491328 284.40266482 -0.01428454 286.67559814 -0.01366425 C287.79390561 -0.01335569 288.91221308 -0.01304714 290.06440866 -0.01272924 C297.94258064 -0.01100287 305.82074308 -0.01391616 313.69891357 -0.01862335 C323.30061554 -0.02423427 332.9022848 -0.02271126 342.50398302 -0.01206186 C347.40227336 -0.00680803 352.3005092 -0.00474354 357.19879913 -0.01136017 C361.68437425 -0.01732763 366.16984443 -0.0140313 370.65541005 -0.00340506 C372.27641994 -0.00117443 373.89743872 -0.00229976 375.51844287 -0.00715664 C388.8403203 -0.04400417 399.14167406 0.58310508 409.35791016 9.88677979 C413.37042926 14.14698525 415.11292266 18.63694738 416.56494141 24.25396729 C417.27779297 24.2191626 417.99064453 24.18435791 418.72509766 24.14849854 C426.46463051 23.92974996 431.28517951 24.42144565 437.31494141 29.62896729 C441.27640134 34.25067054 442.93893386 37.34893945 442.95262146 43.50271606 C442.96747841 45.39103653 442.96747841 45.39103653 442.9826355 47.31750488 C442.97839771 48.70501807 442.97383988 50.09253031 442.96899414 51.4800415 C442.97469898 52.94724039 442.98166368 54.41443485 442.98979187 55.88162231 C443.00772773 59.86107223 443.00655393 63.84030168 443.00084949 67.81977987 C442.99775769 71.14475627 443.0038501 74.46969032 443.00988823 77.79466069 C443.02393377 85.64099537 443.02237246 93.48722118 443.01098633 101.33355713 C442.99950974 109.42079342 443.01357285 117.50769791 443.0403828 125.59489048 C443.06255674 132.54453611 443.06917324 139.49407773 443.06330639 146.44375622 C443.05993908 150.59168321 443.06233654 154.73939761 443.07955742 158.88729477 C443.0950512 162.789521 443.09104447 166.69125687 443.07225227 170.5934639 C443.06857282 172.0224778 443.07165614 173.45152822 443.08213806 174.88050842 C443.1731196 188.31350517 443.1731196 188.31350517 438.56494141 194.25396729 C434.17551605 198.31418574 430.60216247 200.52271388 424.58056641 200.44927979 C423.64599609 200.44283447 422.71142578 200.43638916 421.74853516 200.42974854 C420.78044922 200.41299072 419.81236328 200.39623291 418.81494141 200.37896729 C417.83138672 200.36994385 416.84783203 200.36092041 415.83447266 200.35162354 C413.41104733 200.32809513 410.98811919 200.29522097 408.56494141 200.25396729 C408.51233154 200.86594971 408.45972168 201.47793213 408.40551758 202.10845947 C408.32793213 202.9144458 408.25034668 203.72043213 408.17041016 204.55084229 C408.09717529 205.34844971 408.02394043 206.14605713 407.94848633 206.96783447 C406.92087504 213.09294723 402.25623089 216.73550017 397.56494141 220.25396729 C392.39163382 223.47041505 386.43111708 222.80194537 380.56494141 222.25396729 C373.84497856 220.53869405 370.02048153 216.07697089 366.56494141 210.25396729 C365.56494141 207.25396729 365.56494141 207.25396729 365.56494141 200.25396729 C247.42494141 200.25396729 129.28494141 200.25396729 7.56494141 200.25396729 C7.56494141 202.56396729 7.56494141 204.87396729 7.56494141 207.25396729 C5.79029524 213.89721512 1.32768287 217.83418847 -4.43505859 221.25396729 C-10.16949273 223.16544533 -17.17695468 223.45568447 -22.89208984 221.34771729 C-28.69324878 217.88698767 -33.60885651 212.89470215 -35.43505859 206.25396729 C-35.46228379 204.2541526 -35.46527492 202.25373902 -35.43505859 200.25396729 C-36.32644531 200.29324341 -36.32644531 200.29324341 -37.23583984 200.33331299 C-39.96863601 200.43823664 -42.70100717 200.50258758 -45.43505859 200.56646729 C-46.83691406 200.62930908 -46.83691406 200.62930908 -48.26708984 200.69342041 C-54.96935251 200.81059283 -59.25844817 199.58293636 -64.43505859 195.25396729 C-68.69003393 190.67168616 -69.55696367 187.41176246 -69.59568787 181.25918579 C-69.60573349 180.00594513 -69.61577911 178.75270447 -69.62612915 177.46148682 C-69.63215921 176.06988585 -69.63804421 174.67828426 -69.64379883 173.28668213 C-69.65333841 171.82302629 -69.66322962 170.3593727 -69.67344666 168.89572144 C-69.70482555 164.08547642 -69.72510062 159.27521416 -69.74365234 154.46490479 C-69.74694967 153.64593106 -69.75024699 152.82695733 -69.75364423 151.98316622 C-69.7844294 144.25584948 -69.81113094 136.52852879 -69.82806301 128.80116844 C-69.84995586 118.92633786 -69.89189734 109.05205195 -69.96150059 99.17743909 C-70.00880582 92.22952785 -70.03300539 85.28176321 -70.0402599 78.33369601 C-70.04520715 74.18661091 -70.06019819 70.04013978 -70.1000042 65.89323044 C-70.13699916 61.98763833 -70.14523896 58.08300752 -70.13199806 54.1772728 C-70.1320518 52.74906052 -70.14226338 51.32080425 -70.16374969 49.8927536 C-70.28892672 41.09811861 -69.61943298 34.8443533 -63.43505859 28.25396729 C-58.71193697 24.65539843 -54.51523034 24.12206048 -48.68505859 24.19146729 C-47.70021484 24.20049072 -46.71537109 24.20951416 -45.70068359 24.21881104 C-44.57919922 24.23621338 -44.57919922 24.23621338 -43.43505859 24.25396729 C-43.29970703 23.69709229 -43.16435547 23.14021729 -43.02490234 22.56646729 C-40.53780495 13.74993042 -35.45005876 8.15596291 -27.81787109 3.26177979 C-18.89823031 -0.5107896 -9.48759371 -0.02842687 0 0 Z " fill="#010203" transform="translate(69.43505859375,161.74603271484375)"/>
<path d="M0 0 C1.29103671 -0.00623996 2.58207342 -0.01247993 3.91223246 -0.01890898 C7.4756328 -0.0355335 11.03860201 -0.02738768 14.60200346 -0.0149641 C18.45281727 -0.00588744 22.30355864 -0.01989633 26.15435791 -0.03088379 C33.69040188 -0.04864628 41.22628627 -0.04483904 48.76233643 -0.03323323 C54.88905181 -0.02418955 61.01572256 -0.02297894 67.1424427 -0.02732849 C68.01535022 -0.02794142 68.88825773 -0.02855436 69.78761699 -0.02918586 C71.56107788 -0.0304648 73.33453876 -0.03176166 75.10799963 -0.03307623 C91.72809786 -0.04447555 108.34810777 -0.03137885 124.96819151 -0.00987476 C139.21838631 0.00799249 153.46845075 0.00489394 167.71864319 -0.0135498 C184.27883489 -0.03497339 200.83894919 -0.04337367 217.39915282 -0.03110075 C219.16629476 -0.0298266 220.93343672 -0.02856911 222.70057869 -0.02732849 C224.00467394 -0.02640284 224.00467394 -0.02640284 225.33511455 -0.02545848 C231.45152656 -0.02200981 237.56788936 -0.02782357 243.68429375 -0.0372467 C251.1424842 -0.04848475 258.60050634 -0.04538891 266.05867761 -0.02412373 C269.86149856 -0.01363702 273.66403925 -0.00945049 277.46685791 -0.02272034 C281.59476534 -0.03690631 285.72196987 -0.0199272 289.84985352 0 C291.04412569 -0.00892289 292.23839785 -0.01784577 293.46886009 -0.02703905 C303.69710178 0.06863794 311.70876208 2.50538272 319.23060608 9.57043457 C324.64501798 15.53831969 327.09406217 20.95956321 327.18128967 29.02380371 C327.18946716 29.68117523 327.19764465 30.33854675 327.20606995 31.01583862 C327.23087871 33.19158027 327.24743406 35.36725654 327.26185608 37.54309082 C327.26717976 38.2891049 327.27250343 39.03511898 327.27798843 39.80373955 C327.30470874 43.7574549 327.32408153 47.71113889 327.33851624 51.66491699 C327.35181725 54.92301753 327.37959891 58.18048606 327.42054749 61.43835449 C327.47013452 65.38413335 327.4946695 69.32934216 327.50174332 73.27541924 C327.50841565 74.77161318 327.52353182 76.26779643 327.54763412 77.76381111 C327.70766987 88.30401665 326.58446368 96.22248271 319.48841858 104.38293457 C318.66341858 105.08418457 317.83841858 105.78543457 316.98841858 106.50793457 C316.22529358 107.20918457 315.46216858 107.91043457 314.67591858 108.63293457 C307.13366426 113.89497247 299.93269995 113.94167451 291.02116394 113.90234375 C289.72281455 113.90843485 288.42446516 113.91452596 287.08677185 113.92080164 C283.49838694 113.93715336 279.91022241 113.93489305 276.32181334 113.92942667 C272.44576198 113.92675058 268.56976859 113.94129908 264.69374084 113.95352173 C257.10612494 113.97455316 249.51858548 113.97911791 241.93094386 113.97733384 C235.76225571 113.97602512 229.59359136 113.97983599 223.42490768 113.98725891 C221.6465832 113.98935815 219.86825872 113.99145575 218.08993423 113.99355173 C216.76216552 113.99511702 216.76216552 113.99511702 215.40757321 113.99671394 C198.67495438 114.01560692 181.94237941 114.01456894 165.20975433 114.00774461 C149.9106816 114.00216924 134.61177633 114.02299599 119.31274273 114.05610508 C103.59395425 114.08985789 87.87524597 114.10500847 72.15642059 114.10038805 C63.3353853 114.09814505 54.5145048 114.10336183 45.69350052 114.12828064 C38.18403481 114.14931427 30.67480879 114.15286531 23.16533317 114.13398105 C19.33612432 114.12483601 15.50736212 114.12364181 11.67818832 114.1443367 C7.52165932 114.16655183 3.36617865 114.14979868 -0.7903595 114.12939453 C-1.99309568 114.14191238 -3.19583187 114.15443023 -4.43501461 114.1673274 C-13.83290526 114.06850705 -20.66057863 111.55649189 -27.82408142 105.44543457 C-35.87819614 96.60314712 -36.7818754 85.75285765 -36.71080017 74.32043457 C-36.71672928 72.88659072 -36.72398433 71.45275182 -36.73248291 70.0189209 C-36.74427489 67.03354835 -36.73780417 64.04892551 -36.71836853 61.06359863 C-36.69547641 57.27083206 -36.72230775 53.48030552 -36.7634306 49.6877594 C-36.78921658 46.73276035 -36.78637335 43.7782829 -36.77553749 40.82321167 C-36.77406877 39.42640139 -36.78152869 38.02954743 -36.79878807 36.63284302 C-36.90754066 26.13282411 -35.18869828 17.31426897 -28.01651001 9.27038574 C-19.82552671 1.3271806 -11.06117764 -0.08248842 0 0 Z " fill="#163E7D" transform="translate(163.01158142089844,229.4920654296875)"/>
<path d="M0 0 C48.32465488 -0.1101716 96.64919159 -0.20251371 144.97393606 -0.25532665 C150.67557674 -0.26158039 156.37721715 -0.26805198 162.07885742 -0.2746582 C163.78154051 -0.27662553 163.78154051 -0.27662553 165.51862124 -0.2786326 C183.91255258 -0.30040533 202.30640599 -0.33983714 220.70029106 -0.38576398 C239.56586737 -0.43247666 258.43140279 -0.46028441 277.29703456 -0.47044247 C288.94368076 -0.4773124 300.59010676 -0.49903149 312.23668519 -0.53958233 C320.21681934 -0.56595665 328.19683919 -0.57401306 336.17701378 -0.56750689 C340.78526574 -0.56429571 345.39313218 -0.56931185 350.00131607 -0.59602737 C354.2176635 -0.62029345 358.43336483 -0.62163126 362.64974151 -0.60449447 C364.17742417 -0.60237539 365.70514656 -0.60877464 367.23275062 -0.62441591 C369.30601559 -0.64441497 371.37693288 -0.63371583 373.45016003 -0.61523914 C374.60261123 -0.61713775 375.75506243 -0.61903635 376.9424364 -0.62099248 C380.9583645 0.19464424 382.46103318 1.85407816 385 5 C385.62361908 7.83455658 385.62361908 7.83455658 385.62145996 10.99645996 C385.63266876 12.19933151 385.64387756 13.40220306 385.65542603 14.64152527 C385.64216278 15.95284927 385.62889954 17.26417328 385.61523438 18.61523438 C385.61873711 20.01671521 385.62439741 21.41819206 385.63204956 22.81965637 C385.64628581 26.61942627 385.62924817 30.41847149 385.60576439 34.21817207 C385.58564163 38.19699951 385.59153568 42.17579727 385.59387207 46.15466309 C385.59381851 52.8361403 385.5740709 59.51733458 385.54199219 66.19873047 C385.50509994 73.92016339 385.49631677 81.64122572 385.5032897 89.36273527 C385.50959794 96.79463416 385.49883449 104.22640614 385.47932434 111.65827942 C385.47115584 114.81925771 385.46843978 117.98017109 385.47001648 121.14115906 C385.47089632 124.86442812 385.45665286 128.58734575 385.43078995 132.31052208 C385.42022727 134.32647873 385.42429709 136.34249544 385.42880249 138.35847473 C385.4117778 140.16278206 385.4117778 140.16278206 385.39440918 142.00354004 C385.39068047 143.04696815 385.38695175 144.09039627 385.38311005 145.16544342 C384.93253369 148.49917007 384.04152173 150.33742306 382 153 C378.57654426 155.25527977 375.64338594 155.24877045 371.6044426 155.24609566 C370.96162197 155.24840335 370.31880134 155.25071103 369.65650129 155.25308865 C367.49377742 155.25839949 365.33134891 155.24939575 363.16864014 155.24050903 C361.60601267 155.24138088 360.04338548 155.24313147 358.48075986 155.24568737 C354.17996508 155.25016902 349.87926953 155.242146 345.5784874 155.23213124 C340.94320423 155.22351081 336.30792686 155.22641591 331.67263794 155.22793579 C323.63941874 155.22898553 315.60623198 155.2226996 307.57302094 155.21146011 C295.95828709 155.19522017 284.34356897 155.18999865 272.728825 155.18748413 C253.88561402 155.18310466 235.04242034 155.16978872 216.19921875 155.15087891 C197.89257901 155.13252663 179.58594396 155.11836693 161.27929688 155.10986328 C159.58724672 155.10907511 159.58724672 155.10907511 157.86101374 155.10827102 C152.20211737 155.10566098 146.54322097 155.10313356 140.88432455 155.10064721 C93.92286767 155.07990686 46.96144278 155.04303287 0 155 C0 103.85 0 52.7 0 0 Z M15.5 44.58203125 C10.10535591 53.27808513 9.38812169 60.73513242 9.43359375 70.89453125 C9.42834557 72.33266091 9.42206477 73.77078714 9.41481018 75.20890808 C9.40445076 78.21211019 9.40890007 81.21483722 9.42358398 84.21801758 C9.44073127 88.03415134 9.41730563 91.84877347 9.38209438 95.66473866 C9.35994498 98.63255973 9.36160421 101.60002916 9.3698597 104.56790733 C9.37067034 105.97308697 9.36397977 107.3782948 9.34908867 108.78339577 C9.25230939 119.56923195 10.6626432 129.67304025 18.1875 137.9375 C26.58067946 145.09811235 34.36023888 146.7350572 45.20776367 146.62818909 C47.15785103 146.63883067 47.15785103 146.63883067 49.1473341 146.64968723 C52.73137014 146.66851511 56.31471845 146.65643022 59.89873648 146.6389643 C63.7733978 146.6255422 67.64796167 146.64104466 71.52261353 146.65278625 C79.10334292 146.67113126 86.68381394 146.66267162 94.26453519 146.64469803 C100.42746375 146.63065216 106.59032235 146.6267835 112.75326538 146.6301403 C114.0707495 146.63085647 114.0707495 146.63085647 115.41484946 146.6315871 C117.19934282 146.63261347 118.98383617 146.63366883 120.7683295 146.63475286 C136.53538322 146.64331358 152.3023125 146.62666539 168.06933594 146.59692383 C183.35649849 146.56808797 198.64348177 146.5610037 213.93066406 146.57641602 C230.5915832 146.59319039 247.25241729 146.59719977 263.91333866 146.57970566 C265.6911373 146.57786134 267.46893596 146.57602661 269.24673462 146.57420158 C270.55867972 146.57283345 270.55867972 146.57283345 271.89712876 146.57143768 C278.05011666 146.56583997 284.20306295 146.56913231 290.35604858 146.57574654 C297.85814021 146.5834911 305.36005561 146.5766868 312.86211181 146.5515715 C316.68721138 146.53910241 320.51203696 146.53289823 324.33714676 146.54411316 C328.48909596 146.55605619 332.64032925 146.53684516 336.79223633 146.5146637 C338.59429425 146.52702485 338.59429425 146.52702485 340.43275738 146.53963572 C348.9220518 146.45600652 355.50170594 144.76031681 362.75 140.3125 C369.20632749 133.67683008 373.2225932 126.58676968 373.30639648 117.25708008 C373.31472 116.5994165 373.32304352 115.94175293 373.33161926 115.26416016 C373.35562663 113.09922275 373.36448156 110.93458749 373.37109375 108.76953125 C373.38007001 107.25363582 373.38919202 105.73774125 373.39845276 104.22184753 C373.4149222 101.04525609 373.42263861 97.86876974 373.42553711 94.69213867 C373.43090642 90.64489703 373.46853357 86.59866037 373.51428127 82.55170155 C373.54420542 79.41931161 373.55126403 76.28715866 373.55226326 73.15463829 C373.55643837 71.66404322 373.56876248 70.17344566 373.58978081 68.68299294 C373.73329107 57.62245836 372.25764762 49.51978558 364.6875 41.125 C358.5988862 35.48837937 351.83958101 32.88503926 343.60623932 32.8601923 C342.50492251 32.85450106 341.4036057 32.84880982 340.26891565 32.84294611 C339.05921279 32.84176624 337.84950994 32.84058636 336.60314941 32.83937073 C335.31779596 32.83428291 334.0324425 32.82919509 332.70813894 32.82395309 C329.13744972 32.81005504 325.5667707 32.80246568 321.99606133 32.7959801 C318.93396747 32.78960576 315.87189032 32.7795361 312.80980688 32.76941944 C302.72101586 32.73610565 292.63221468 32.7145752 282.5433867 32.69621959 C279.91565756 32.69142342 277.28792883 32.68644024 274.66020012 32.68141437 C258.33659805 32.65044059 242.01299242 32.62375978 225.6893692 32.60699558 C221.90879815 32.60304618 218.12822717 32.59904318 214.34765625 32.5949707 C213.40803171 32.59396234 212.46840718 32.59295398 211.50030917 32.59191506 C196.28638619 32.57491609 181.07262609 32.53381514 165.85878259 32.48294771 C150.23278704 32.43113286 134.60687516 32.40204819 118.98079443 32.3947987 C110.20988275 32.39014119 101.43923775 32.37543992 92.66841125 32.3350544 C85.19696396 32.30069338 77.72583148 32.28683952 70.25430971 32.29947854 C66.44503866 32.30529142 62.63643289 32.30153981 58.82726288 32.2713089 C54.688629 32.23873275 50.5514399 32.25314548 46.41271973 32.27174377 C45.22086264 32.25494885 44.02900556 32.23815392 42.80103159 32.22085005 C31.81514443 32.343839 22.68201419 36.10949888 15.5 44.58203125 Z " fill="#386EBB" transform="translate(117,197)"/>
<path d="M0 0 C1.36824323 -0.0001808 1.36824323 -0.0001808 2.76412773 -0.00036526 C5.72542611 0.00038289 8.68666205 0.00800667 11.64794922 0.01586914 C13.47273732 0.01733886 15.29752584 0.01835939 17.12231445 0.0189209 C23.89909496 0.02417026 30.67586645 0.03813138 37.45263672 0.05102539 C52.59138672 0.07165039 67.73013672 0.09227539 83.32763672 0.11352539 C83.32763672 51.26352539 83.32763672 102.41352539 83.32763672 155.11352539 C68.41576172 155.17540039 53.50388672 155.23727539 38.14013672 155.30102539 C33.43481689 155.3283374 28.72949707 155.35564941 23.8815918 155.38378906 C18.12780762 155.39733887 18.12780762 155.39733887 15.43266296 155.39985657 C13.55369434 155.40445786 11.67473448 155.41499787 9.79582214 155.43025208 C6.94665173 155.45222352 4.09802178 155.45524303 1.2487793 155.45410156 C0.41424886 155.46489589 -0.42028158 155.47569021 -1.28010082 155.48681164 C-5.8753208 155.46218077 -8.99926711 155.18484441 -12.67236328 152.11352539 C-14.77731079 148.81532481 -14.92727989 146.14540781 -14.93978882 142.27528381 C-14.94831879 141.08220108 -14.95684875 139.88911835 -14.96563721 138.65988159 C-14.96473083 137.35431305 -14.96382446 136.04874451 -14.96289062 134.70361328 C-14.96887621 133.31213521 -14.97568183 131.92066045 -14.98324585 130.52919006 C-15.00090849 126.75233438 -15.00560129 122.97556933 -15.00687742 119.19867635 C-15.00829925 116.83872933 -15.01256939 114.47880535 -15.01787186 112.11886406 C-15.03637185 103.88505465 -15.04454237 95.65130998 -15.04296875 87.41748047 C-15.04176682 79.74319611 -15.06287915 72.06919277 -15.09445608 64.39497954 C-15.12060665 57.80462829 -15.13133659 51.2143689 -15.13005793 44.62396616 C-15.129548 40.68845549 -15.13524805 36.75319465 -15.15641403 32.81773567 C-15.17577656 29.11663171 -15.17593498 25.41601644 -15.16138077 21.71489525 C-15.15829246 19.71080536 -15.17498232 17.70671553 -15.19226074 15.70269775 C-15.18387177 14.5067952 -15.17548279 13.31089264 -15.1668396 12.07875061 C-15.16792913 11.04139802 -15.16901867 10.00404543 -15.17014122 8.93525791 C-14.54248892 5.37731215 -13.14438732 3.69837695 -10.67236328 1.11352539 C-7.35493485 -0.54518883 -3.6463033 -0.0153503 0 0 Z " fill="#3BA8D9" transform="translate(24.67236328125,196.886474609375)"/>
<path d="M0 0 C1.29103671 -0.00623996 2.58207342 -0.01247993 3.91223246 -0.01890898 C7.4756328 -0.0355335 11.03860201 -0.02738768 14.60200346 -0.0149641 C18.45281727 -0.00588744 22.30355864 -0.01989633 26.15435791 -0.03088379 C33.69040188 -0.04864628 41.22628627 -0.04483904 48.76233643 -0.03323323 C54.88905181 -0.02418955 61.01572256 -0.02297894 67.1424427 -0.02732849 C68.01535022 -0.02794142 68.88825773 -0.02855436 69.78761699 -0.02918586 C71.56107788 -0.0304648 73.33453876 -0.03176166 75.10799963 -0.03307623 C91.72809786 -0.04447555 108.34810777 -0.03137885 124.96819151 -0.00987476 C139.21838631 0.00799249 153.46845075 0.00489394 167.71864319 -0.0135498 C184.27883489 -0.03497339 200.83894919 -0.04337367 217.39915282 -0.03110075 C219.16629476 -0.0298266 220.93343672 -0.02856911 222.70057869 -0.02732849 C224.00467394 -0.02640284 224.00467394 -0.02640284 225.33511455 -0.02545848 C231.45152656 -0.02200981 237.56788936 -0.02782357 243.68429375 -0.0372467 C251.1424842 -0.04848475 258.60050634 -0.04538891 266.05867761 -0.02412373 C269.86149856 -0.01363702 273.66403925 -0.00945049 277.46685791 -0.02272034 C281.59476534 -0.03690631 285.72196987 -0.0199272 289.84985352 0 C291.04412569 -0.00892289 292.23839785 -0.01784577 293.46886009 -0.02703905 C303.69710178 0.06863794 311.70876208 2.50538272 319.23060608 9.57043457 C324.64501798 15.53831969 327.09406217 20.95956321 327.18128967 29.02380371 C327.18946716 29.68117523 327.19764465 30.33854675 327.20606995 31.01583862 C327.23087871 33.19158027 327.24743406 35.36725654 327.26185608 37.54309082 C327.26717976 38.2891049 327.27250343 39.03511898 327.27798843 39.80373955 C327.30470874 43.7574549 327.32408153 47.71113889 327.33851624 51.66491699 C327.35181725 54.92301753 327.37959891 58.18048606 327.42054749 61.43835449 C327.47013452 65.38413335 327.4946695 69.32934216 327.50174332 73.27541924 C327.50841565 74.77161318 327.52353182 76.26779643 327.54763412 77.76381111 C327.70766987 88.30401665 326.58446368 96.22248271 319.48841858 104.38293457 C318.66341858 105.08418457 317.83841858 105.78543457 316.98841858 106.50793457 C316.22529358 107.20918457 315.46216858 107.91043457 314.67591858 108.63293457 C307.13366426 113.89497247 299.93269995 113.94167451 291.02116394 113.90234375 C289.72281455 113.90843485 288.42446516 113.91452596 287.08677185 113.92080164 C283.49838694 113.93715336 279.91022241 113.93489305 276.32181334 113.92942667 C272.44576198 113.92675058 268.56976859 113.94129908 264.69374084 113.95352173 C257.10612494 113.97455316 249.51858548 113.97911791 241.93094386 113.97733384 C235.76225571 113.97602512 229.59359136 113.97983599 223.42490768 113.98725891 C221.6465832 113.98935815 219.86825872 113.99145575 218.08993423 113.99355173 C216.76216552 113.99511702 216.76216552 113.99511702 215.40757321 113.99671394 C198.67495438 114.01560692 181.94237941 114.01456894 165.20975433 114.00774461 C149.9106816 114.00216924 134.61177633 114.02299599 119.31274273 114.05610508 C103.59395425 114.08985789 87.87524597 114.10500847 72.15642059 114.10038805 C63.3353853 114.09814505 54.5145048 114.10336183 45.69350052 114.12828064 C38.18403481 114.14931427 30.67480879 114.15286531 23.16533317 114.13398105 C19.33612432 114.12483601 15.50736212 114.12364181 11.67818832 114.1443367 C7.52165932 114.16655183 3.36617865 114.14979868 -0.7903595 114.12939453 C-1.99309568 114.14191238 -3.19583187 114.15443023 -4.43501461 114.1673274 C-13.83290526 114.06850705 -20.66057863 111.55649189 -27.82408142 105.44543457 C-35.87819614 96.60314712 -36.7818754 85.75285765 -36.71080017 74.32043457 C-36.71672928 72.88659072 -36.72398433 71.45275182 -36.73248291 70.0189209 C-36.74427489 67.03354835 -36.73780417 64.04892551 -36.71836853 61.06359863 C-36.69547641 57.27083206 -36.72230775 53.48030552 -36.7634306 49.6877594 C-36.78921658 46.73276035 -36.78637335 43.7782829 -36.77553749 40.82321167 C-36.77406877 39.42640139 -36.78152869 38.02954743 -36.79878807 36.63284302 C-36.90754066 26.13282411 -35.18869828 17.31426897 -28.01651001 9.27038574 C-19.82552671 1.3271806 -11.06117764 -0.08248842 0 0 Z M-23.51158142 19.69543457 C-25.72733891 23.84997986 -26.14651455 26.85354063 -26.18858337 31.50476074 C-26.20141861 32.74001999 -26.21425385 33.97527924 -26.22747803 35.24797058 C-26.2356478 36.59894406 -26.24309108 37.94992211 -26.24986267 39.30090332 C-26.2539382 39.98321833 -26.25801373 40.66553333 -26.26221275 41.36852455 C-26.28306003 44.98278117 -26.2973653 48.59700001 -26.30674744 52.21130371 C-26.31778569 55.92906756 -26.35215846 59.64622855 -26.39191914 63.36378002 C-26.41817655 66.23528591 -26.42644746 69.10665041 -26.43002892 71.97826576 C-26.43487448 73.34770066 -26.44643018 74.71713011 -26.46506691 76.08644676 C-26.62497498 88.04345191 -26.62497498 88.04345191 -20.56402588 98.01737976 C-16.06992038 101.97046636 -12.58736246 103.75697099 -6.63508892 103.76241016 C-4.98893865 103.77115845 -4.98893865 103.77115845 -3.30953282 103.78008348 C-1.50153548 103.77441449 -1.50153548 103.77441449 0.34298706 103.76863098 C1.62370124 103.77245653 2.90441542 103.77628208 4.22393912 103.78022355 C7.78151229 103.79053075 11.33898499 103.78831482 14.89656651 103.78404295 C18.73239622 103.78158061 22.56820142 103.79058383 26.40402222 103.79808044 C33.92031813 103.8108438 41.43657835 103.81261905 48.95288328 103.81028018 C55.06209559 103.80849846 61.17129704 103.81024352 67.28050804 103.81450462 C68.14940845 103.81509981 69.01830886 103.815695 69.91353958 103.81630823 C71.67863133 103.81751996 73.44372308 103.81873409 75.20881482 103.8199506 C91.77059124 103.83083273 108.33234732 103.82866064 124.89412489 103.82256576 C140.04670532 103.81739763 155.19922144 103.8286481 170.35178915 103.84766398 C185.90657638 103.86703508 201.46133317 103.87529955 217.01613253 103.87154073 C225.75045969 103.86962736 234.48473213 103.87212922 243.21904945 103.88625526 C250.65582076 103.89816087 258.09250367 103.89958329 265.52927617 103.8874651 C269.32355289 103.88157024 273.11766788 103.88049358 276.9119339 103.8924675 C281.02571759 103.9052988 285.13911524 103.89487609 289.25289917 103.88215637 C291.05085826 103.8932178 291.05085826 103.8932178 292.88513976 103.90450269 C300.07602431 103.85761637 305.55434304 103.50505784 311.16810608 98.60559082 C312.00728577 97.59818848 312.00728577 97.59818848 312.86341858 96.57043457 C313.43834045 95.90141113 314.01326233 95.2323877 314.60560608 94.54309082 C317.22816987 90.68332886 317.12472202 86.86636592 317.16542053 82.28991699 C317.17825577 81.03148483 317.191091 79.77305267 317.20431519 78.47648621 C317.21248336 77.10546261 317.21992695 75.73443452 317.22669983 74.36340332 C317.23077536 73.66972467 317.23485088 72.97604603 317.23904991 72.26134682 C317.25987284 68.5898837 317.27419102 64.91845754 317.28358459 61.24694824 C317.29464372 57.46746523 317.32904785 53.6885718 317.36875629 49.90929699 C317.39497707 46.99151053 317.40328119 44.07386351 317.40686607 41.15596962 C317.41171766 39.76338022 317.42329084 38.37079644 317.44190407 36.97832298 C317.55137606 28.24623695 317.43038036 22.47248009 311.46107483 15.80090332 C306.56884624 11.96572135 302.71008654 10.2614404 296.49446487 10.24507904 C295.39627371 10.23739675 294.29808255 10.22971446 293.16661286 10.22179937 C291.96555838 10.22353234 290.7645039 10.2252653 289.52705383 10.22705078 C288.24689636 10.22110854 286.96673889 10.21516629 285.64778876 10.20904398 C282.09635066 10.19292788 278.54499346 10.18932619 274.99352312 10.18784904 C271.16243356 10.18414377 267.33138579 10.16904705 263.50032043 10.15557861 C255.12425212 10.12842852 246.74820297 10.11636529 238.37209797 10.1075573 C233.14117083 10.10202997 227.91025107 10.09355483 222.67932892 10.08454895 C208.19373158 10.06016638 193.70814015 10.03956681 179.22252274 10.03279877 C178.29563247 10.03235963 177.3687422 10.0319205 176.41376434 10.03146806 C175.48467031 10.03103151 174.55557627 10.03059495 173.59832788 10.03014517 C171.71566279 10.02925824 169.83299772 10.02836511 167.95033264 10.02746582 C167.0164679 10.02702296 166.08260317 10.0265801 165.1204395 10.02612382 C149.98861002 10.01822783 134.85697316 9.9833186 119.72521809 9.93674678 C104.18620813 9.88930788 88.64729482 9.86439455 73.10821128 9.86206293 C64.38492829 9.86023013 55.66189635 9.84874341 46.93868256 9.81242371 C39.51071294 9.78160555 32.08307195 9.77138997 24.65505055 9.78789991 C20.8664046 9.79570753 17.07842026 9.79388297 13.28985596 9.76578522 C9.17866677 9.73557404 5.06896468 9.7520552 0.9577179 9.77294922 C-0.2344137 9.75683641 -1.42654529 9.7407236 -2.65480208 9.72412252 C-11.48104428 9.82905198 -18.28376768 12.24526819 -23.51158142 19.69543457 Z " fill="#000102" transform="translate(163.01158142089844,229.4920654296875)"/>
<path d="M0 0 C0.69782856 -0.00380567 1.39565713 -0.00761134 2.11463201 -0.01153234 C4.46452815 -0.02187928 6.81418412 -0.01793628 9.16409683 -0.01409245 C10.86126767 -0.01854317 12.55843643 -0.02385667 14.25560212 -0.02996117 C18.92858417 -0.04417151 23.60149981 -0.04580389 28.27450037 -0.04536426 C33.31077234 -0.0470098 38.34701673 -0.06007139 43.38327408 -0.07155704 C54.39975155 -0.09442663 65.41620979 -0.10232975 76.43270779 -0.10738349 C83.30940348 -0.11063822 90.18609357 -0.11715934 97.0627861 -0.12438488 C116.09659394 -0.14395332 135.13039655 -0.16035611 154.16421509 -0.16326141 C155.38271794 -0.16344898 156.6012208 -0.16363655 157.85664798 -0.16382981 C160.32693116 -0.16419606 162.79721433 -0.16455976 165.26749751 -0.16492092 C166.49377629 -0.16510373 167.72005506 -0.16528654 168.9834938 -0.16547489 C170.2112666 -0.16565544 171.4390394 -0.16583599 172.70401743 -0.16602201 C192.60237561 -0.16956433 212.5006256 -0.19658926 232.39894626 -0.23397278 C252.82070143 -0.27203315 273.2424029 -0.29141872 293.66419435 -0.29172093 C305.13334992 -0.29230601 316.60237646 -0.30083061 328.07149887 -0.32971859 C337.8369819 -0.35420208 347.60228884 -0.36153585 357.36779425 -0.34647106 C362.35109772 -0.33928979 367.33405325 -0.3402121 372.31731796 -0.36288166 C376.87969395 -0.38343784 381.44145377 -0.38090281 386.00382283 -0.36000682 C387.65390657 -0.35650547 389.30403447 -0.3614492 390.95406029 -0.37571125 C406.97076257 -0.50522465 406.97076257 -0.50522465 413.09579849 5.26006222 C417.09579849 9.46006222 417.09579849 9.46006222 417.09579849 13.26006222 C272.88579849 13.26006222 128.67579849 13.26006222 -19.90420151 13.26006222 C-17.64383881 7.60915548 -17.64383881 7.60915548 -14.52920151 5.07256222 C-13.94396713 4.58400753 -13.35873276 4.09545284 -12.75576401 3.59209347 C-8.43425935 0.4831629 -5.36531507 0.00840274 0 0 Z " fill="#518FDA" transform="translate(56.90420150756836,172.7399377822876)"/>
<path d="M0 0 C1.91619141 -0.0009668 1.91619141 -0.0009668 3.87109375 -0.00195312 C4.86471924 0.01363647 4.86471924 0.01363647 5.87841797 0.02954102 C7.90024898 0.05850777 9.91945672 0.0501431 11.94140625 0.03710938 C22.99497204 0.10961006 22.99497204 0.10961006 26.40625 3.49609375 C26.93424676 6.25751678 26.59223981 8.6597492 26.40625 11.49609375 C27.334375 11.57859375 28.2625 11.66109375 29.21875 11.74609375 C32.40625 12.49609375 32.40625 12.49609375 34.07617188 14.02148438 C35.9715382 17.54781204 35.87398562 20.93103113 35.875 24.83984375 C35.88642029 26.04900452 35.88642029 26.04900452 35.89807129 27.28259277 C35.90885754 28.98377388 35.91173137 30.68502113 35.90722656 32.38623047 C35.90625311 34.98777525 35.94790893 37.58638015 35.9921875 40.1875 C35.99739399 41.84244178 36.0000827 43.49739379 36 45.15234375 C36.0245929 46.31654846 36.0245929 46.31654846 36.04968262 47.50427246 C36.0040976 51.06838911 35.68843089 53.12624571 33.50610352 55.98657227 C29.04831533 58.15736098 25.11327999 58.05035974 20.21484375 57.9921875 C18.74145287 57.99437035 18.74145287 57.99437035 17.23829651 57.99659729 C15.16640245 57.99494056 13.09449581 57.98340462 11.02270508 57.96264648 C7.85119419 57.93366178 4.68135235 57.94204858 1.50976562 57.95507812 C-0.50521646 57.94884134 -2.52019326 57.94045087 -4.53515625 57.9296875 C-5.4831459 57.93262314 -6.43113556 57.93555878 -7.40785217 57.93858337 C-8.73459206 57.91955711 -8.73459206 57.91955711 -10.08813477 57.90014648 C-10.86359146 57.8947435 -11.63904816 57.88934052 -12.43800354 57.8837738 C-15.18780263 57.38926191 -16.56350449 56.39107422 -18.59375 54.49609375 C-20.47616605 48.84884559 -19.94021472 42.51353238 -19.9987793 36.59082031 C-20.02038216 34.94770317 -20.05451296 33.30470181 -20.10131836 31.66210938 C-20.1683569 29.28593916 -20.19577604 26.91213883 -20.21484375 24.53515625 C-20.24267441 23.80479156 -20.27050507 23.07442688 -20.29917908 22.32192993 C-20.28767342 19.45779312 -20.13443618 17.18008544 -18.32131958 14.88641357 C-15.68901867 12.56442063 -14.14900108 11.49609375 -10.59375 11.49609375 C-10.67625 10.42359375 -10.75875 9.35109375 -10.84375 8.24609375 C-10.59375 4.49609375 -10.59375 4.49609375 -8.99023438 2.29272461 C-5.84048933 -0.06862154 -3.91218042 -0.00620382 0 0 Z " fill="#030301" transform="translate(364.59375,248.50390625)"/>
<path d="M0 0 C1.91619141 -0.0009668 1.91619141 -0.0009668 3.87109375 -0.00195312 C4.86471924 0.01363647 4.86471924 0.01363647 5.87841797 0.02954102 C7.90024898 0.05850777 9.91945672 0.0501431 11.94140625 0.03710938 C22.99497204 0.10961006 22.99497204 0.10961006 26.40625 3.49609375 C26.93424676 6.25751678 26.59223981 8.6597492 26.40625 11.49609375 C27.14875 11.57859375 27.89125 11.66109375 28.65625 11.74609375 C32.1242712 12.69191771 33.23320376 13.62897091 35.40625 16.49609375 C35.816378 19.3249446 35.99132897 21.75812867 35.97265625 24.5859375 C35.98195412 25.75824669 35.98195412 25.75824669 35.99143982 26.95423889 C35.99853103 28.60416419 35.99537605 30.25416115 35.98266602 31.90405273 C35.96881154 34.42240815 36.00285976 36.9370372 36.04101562 39.45507812 C36.04196702 41.06119882 36.04010691 42.66732415 36.03515625 44.2734375 C36.04841446 45.02253891 36.06167267 45.77164032 36.07533264 46.54344177 C36.01035953 50.21098999 35.48932034 52.36644609 33.50170898 55.46850586 C29.08640133 58.36062118 25.42717438 58.21573263 20.25 58.16015625 C18.78016663 58.1673317 18.78016663 58.1673317 17.28063965 58.1746521 C15.21295564 58.17804816 13.14521772 58.16886638 11.07763672 58.14794922 C7.91642298 58.1211799 4.75875982 58.14770746 1.59765625 58.1796875 C-0.41407032 58.17638335 -2.42579469 58.16997701 -4.4375 58.16015625 C-5.38032837 58.1702774 -6.32315674 58.18039856 -7.29455566 58.19082642 C-11.64865778 58.11323396 -13.98028501 57.89864686 -17.68701172 55.46630859 C-20.09568931 51.71419956 -20.31651802 48.63539469 -20.2578125 44.30859375 C-20.26259613 43.52846924 -20.26737976 42.74834473 -20.27230835 41.94458008 C-20.27570008 40.30059789 -20.26654831 38.6565476 -20.24560547 37.01269531 C-20.21882392 34.5030208 -20.245372 31.99781746 -20.27734375 29.48828125 C-20.27403952 27.88670893 -20.26763299 26.28513937 -20.2578125 24.68359375 C-20.26793365 23.93762939 -20.27805481 23.19166504 -20.28848267 22.4230957 C-20.20061454 18.49693453 -19.70438958 16.64150712 -17.30224609 13.484375 C-14.59375 11.49609375 -14.59375 11.49609375 -10.59375 11.49609375 C-10.67625 10.42359375 -10.75875 9.35109375 -10.84375 8.24609375 C-10.59375 4.49609375 -10.59375 4.49609375 -8.99023438 2.29272461 C-5.84048933 -0.06862154 -3.91218042 -0.00620382 0 0 Z " fill="#030301" transform="translate(172.59375,248.50390625)"/>
<path d="M0 0 C1.91619141 -0.0009668 1.91619141 -0.0009668 3.87109375 -0.00195312 C4.86471924 0.01363647 4.86471924 0.01363647 5.87841797 0.02954102 C7.90024898 0.05850777 9.91945672 0.0501431 11.94140625 0.03710938 C22.99497204 0.10961006 22.99497204 0.10961006 26.40625 3.49609375 C26.93424676 6.25751678 26.59223981 8.6597492 26.40625 11.49609375 C27.14875 11.57859375 27.89125 11.66109375 28.65625 11.74609375 C32.13337472 12.69440049 33.2349777 13.61282163 35.40625 16.49609375 C35.81612835 19.40594867 35.99124665 21.93075829 35.97265625 24.83984375 C35.98195412 26.04900452 35.98195412 26.04900452 35.99143982 27.28259277 C35.99853124 28.98379307 35.9953757 30.68506287 35.98266602 32.38623047 C35.96879341 34.98795262 36.00288248 37.58608129 36.04101562 40.1875 C36.04196681 41.8424488 36.04010801 43.49740209 36.03515625 45.15234375 C36.04841446 45.92848022 36.06167267 46.7046167 36.07533264 47.50427246 C36.01398993 51.0652553 35.68562464 53.13034675 33.50390625 55.98657227 C29.04749252 58.15823101 25.1123485 58.05034868 20.21484375 57.9921875 C18.74145287 57.99437035 18.74145287 57.99437035 17.23829651 57.99659729 C15.16640245 57.99494056 13.09449581 57.98340462 11.02270508 57.96264648 C7.85119419 57.93366178 4.68135235 57.94204858 1.50976562 57.95507812 C-0.50521646 57.94884134 -2.52019326 57.94045087 -4.53515625 57.9296875 C-5.4831459 57.93262314 -6.43113556 57.93555878 -7.40785217 57.93858337 C-8.73459206 57.91955711 -8.73459206 57.91955711 -10.08813477 57.90014648 C-10.86359146 57.8947435 -11.63904816 57.88934052 -12.43800354 57.8837738 C-15.18780263 57.38926191 -16.56350449 56.39107422 -18.59375 54.49609375 C-20.47616605 48.84884559 -19.94021472 42.51353238 -19.9987793 36.59082031 C-20.02038216 34.94770317 -20.05451296 33.30470181 -20.10131836 31.66210938 C-20.1683569 29.28593916 -20.19577604 26.91213883 -20.21484375 24.53515625 C-20.24267441 23.80479156 -20.27050507 23.07442688 -20.29917908 22.32192993 C-20.28767342 19.45779312 -20.13443618 17.18008544 -18.32131958 14.88641357 C-15.68901867 12.56442063 -14.14900108 11.49609375 -10.59375 11.49609375 C-10.67625 10.42359375 -10.75875 9.35109375 -10.84375 8.24609375 C-10.59375 4.49609375 -10.59375 4.49609375 -8.99023438 2.29272461 C-5.84048933 -0.06862154 -3.91218042 -0.00620382 0 0 Z " fill="#030301" transform="translate(300.59375,248.50390625)"/>
<path d="M0 0 C1.91619141 -0.0009668 1.91619141 -0.0009668 3.87109375 -0.00195312 C4.86471924 0.01363647 4.86471924 0.01363647 5.87841797 0.02954102 C7.90024898 0.05850777 9.91945672 0.0501431 11.94140625 0.03710938 C22.99497204 0.10961006 22.99497204 0.10961006 26.40625 3.49609375 C26.93424676 6.25751678 26.59223981 8.6597492 26.40625 11.49609375 C27.14875 11.57859375 27.89125 11.66109375 28.65625 11.74609375 C32.1242712 12.69191771 33.23320376 13.62897091 35.40625 16.49609375 C35.816378 19.3249446 35.99132897 21.75812867 35.97265625 24.5859375 C35.98195412 25.75824669 35.98195412 25.75824669 35.99143982 26.95423889 C35.99853103 28.60416419 35.99537605 30.25416115 35.98266602 31.90405273 C35.96881154 34.42240815 36.00285976 36.9370372 36.04101562 39.45507812 C36.04196702 41.06119882 36.04010691 42.66732415 36.03515625 44.2734375 C36.04841446 45.02253891 36.06167267 45.77164032 36.07533264 46.54344177 C36.01035953 50.21098999 35.48932034 52.36644609 33.50170898 55.46850586 C29.08640133 58.36062118 25.42717438 58.21573263 20.25 58.16015625 C18.78016663 58.1673317 18.78016663 58.1673317 17.28063965 58.1746521 C15.21295564 58.17804816 13.14521772 58.16886638 11.07763672 58.14794922 C7.91642298 58.1211799 4.75875982 58.14770746 1.59765625 58.1796875 C-0.41407032 58.17638335 -2.42579469 58.16997701 -4.4375 58.16015625 C-5.38032837 58.1702774 -6.32315674 58.18039856 -7.29455566 58.19082642 C-11.64801995 58.11324532 -13.9794334 57.89949224 -17.68481445 55.46630859 C-20.09317272 51.71901526 -20.33345943 48.63336073 -20.29296875 44.30859375 C-20.30012405 43.52846924 -20.30727936 42.74834473 -20.31465149 41.94458008 C-20.32241121 40.30063007 -20.31745278 38.6565766 -20.30053711 37.01269531 C-20.28129967 34.50257455 -20.32071686 31.99798692 -20.36523438 29.48828125 C-20.36552475 27.88671547 -20.36238446 26.28514463 -20.35546875 24.68359375 C-20.37075119 23.93762939 -20.38603363 23.19166504 -20.40177917 22.4230957 C-20.3373027 19.52825721 -20.14631939 17.194126 -18.31240845 14.87744141 C-15.68288308 12.55720917 -14.14543046 11.49609375 -10.59375 11.49609375 C-10.67625 10.42359375 -10.75875 9.35109375 -10.84375 8.24609375 C-10.59375 4.49609375 -10.59375 4.49609375 -8.99023438 2.29272461 C-5.84048933 -0.06862154 -3.91218042 -0.00620382 0 0 Z " fill="#030301" transform="translate(236.59375,248.50390625)"/>
<path d="M0 0 C1.91619141 -0.0009668 1.91619141 -0.0009668 3.87109375 -0.00195312 C4.86471924 0.01363647 4.86471924 0.01363647 5.87841797 0.02954102 C7.90024898 0.05850777 9.91945672 0.0501431 11.94140625 0.03710938 C22.99497204 0.10961006 22.99497204 0.10961006 26.40625 3.49609375 C26.93424676 6.25751678 26.59223981 8.6597492 26.40625 11.49609375 C27.334375 11.57859375 28.2625 11.66109375 29.21875 11.74609375 C32.40625 12.49609375 32.40625 12.49609375 34.07617188 14.02148438 C35.9715382 17.54781204 35.87398562 20.93103113 35.875 24.83984375 C35.88642029 26.04900452 35.88642029 26.04900452 35.89807129 27.28259277 C35.90885754 28.98377388 35.91173137 30.68502113 35.90722656 32.38623047 C35.90625311 34.98777525 35.94790893 37.58638015 35.9921875 40.1875 C35.99739399 41.84244178 36.0000827 43.49739379 36 45.15234375 C36.0245929 46.31654846 36.0245929 46.31654846 36.04968262 47.50427246 C36.0040976 51.06838911 35.68843089 53.12624571 33.50610352 55.98657227 C29.04831533 58.15736098 25.11327999 58.05035974 20.21484375 57.9921875 C18.74145287 57.99437035 18.74145287 57.99437035 17.23829651 57.99659729 C15.16640245 57.99494056 13.09449581 57.98340462 11.02270508 57.96264648 C7.85119419 57.93366178 4.68135235 57.94204858 1.50976562 57.95507812 C-0.50521646 57.94884134 -2.52019326 57.94045087 -4.53515625 57.9296875 C-5.4831459 57.93262314 -6.43113556 57.93555878 -7.40785217 57.93858337 C-8.73459206 57.91955711 -8.73459206 57.91955711 -10.08813477 57.90014648 C-10.86359146 57.8947435 -11.63904816 57.88934052 -12.43800354 57.8837738 C-15.18780263 57.38926191 -16.56350449 56.39107422 -18.59375 54.49609375 C-20.47616605 48.84884559 -19.94021472 42.51353238 -19.9987793 36.59082031 C-20.02038216 34.94770317 -20.05451296 33.30470181 -20.10131836 31.66210938 C-20.1683569 29.28593916 -20.19577604 26.91213883 -20.21484375 24.53515625 C-20.24267441 23.80479156 -20.27050507 23.07442688 -20.29917908 22.32192993 C-20.28767342 19.45779312 -20.13443618 17.18008544 -18.32131958 14.88641357 C-15.68901867 12.56442063 -14.14900108 11.49609375 -10.59375 11.49609375 C-10.67625 10.42359375 -10.75875 9.35109375 -10.84375 8.24609375 C-10.59375 4.49609375 -10.59375 4.49609375 -8.99023438 2.29272461 C-5.84048933 -0.06862154 -3.91218042 -0.00620382 0 0 Z " fill="#030301" transform="translate(428.59375,248.50390625)"/>
<path d="M0 0 C1.91425781 -0.0309375 1.91425781 -0.0309375 3.8671875 -0.0625 C5.10210937 -0.06765625 6.33703125 -0.0728125 7.609375 -0.078125 C8.73827148 -0.0874707 9.86716797 -0.09681641 11.03027344 -0.10644531 C16.37078935 0.4847856 20.22297925 2.64485011 23.5625 6.8125 C24.29919922 7.71162109 24.29919922 7.71162109 25.05078125 8.62890625 C28.13926767 12.80389603 27.99862062 17.24493644 27.25 22.25 C24.54381442 28.37403243 21.41952471 31.61921465 15.25 34.25 C10.43016152 34.84958153 5.60342658 34.71385128 0.75 34.6875 C-0.55582031 34.70748047 -1.86164062 34.72746094 -3.20703125 34.74804688 C-4.46902344 34.74740234 -5.73101562 34.74675781 -7.03125 34.74609375 C-8.17658203 34.74794678 -9.32191406 34.7497998 -10.50195312 34.75170898 C-15.5210553 33.97643426 -18.6123472 31.4824572 -22 27.8125 C-25.30452614 22.97372958 -26.44981043 19.14840218 -25.75 13.25 C-20.15015692 0.89332147 -12.44462029 0.04967912 0 0 Z " fill="#020507" transform="translate(54.75,207.75)"/>
<path d="M0 0 C5.94 0 11.88 0 18 0 C18.66 2.64 19.32 5.28 20 8 C21.98 8.99 23.96 9.98 26 11 C26 19.58 26 28.16 26 37 C14.45 37 2.9 37 -9 37 C-9 28.42 -9 19.84 -9 11 C-6.69 10.34 -4.38 9.68 -2 9 C-1.34 6.03 -0.68 3.06 0 0 Z " fill="#F3C64B" transform="translate(428,259)"/>
<path d="M0 0 C5.94 0 11.88 0 18 0 C18.33 2.31 18.66 4.62 19 7 C21.29321697 9.29321697 22.90786415 9.96928805 26 11 C26 19.58 26 28.16 26 37 C14.45 37 2.9 37 -9 37 C-9 28.42 -9 19.84 -9 11 C-6.69 10.34 -4.38 9.68 -2 9 C-1.34 6.03 -0.68 3.06 0 0 Z " fill="#F3C74B" transform="translate(364,259)"/>
<path d="M0 0 C5.94 0 11.88 0 18 0 C18.33 2.31 18.66 4.62 19 7 C21.13267287 10.04667553 22.17656874 10.04414219 26 11 C26 19.58 26 28.16 26 37 C14.45 37 2.9 37 -9 37 C-9 28.42 -9 19.84 -9 11 C-6.69 10.34 -4.38 9.68 -2 9 C-1.34 6.03 -0.68 3.06 0 0 Z " fill="#F3C74B" transform="translate(300,259)"/>
<path d="M0 0 C5.61 0 11.22 0 17 0 C17.66 2.31 18.32 4.62 19 7 C21.21661854 10.02266165 22.11950224 10.02987556 26 11 C26 19.58 26 28.16 26 37 C14.45 37 2.9 37 -9 37 C-9 28.42 -9 19.84 -9 11 C-7.02 10.01 -5.04 9.02 -3 8 C-0.64644661 4.88214887 -0.64644661 4.88214887 0 0 Z " fill="#F4C74B" transform="translate(236,259)"/>
<path d="M0 0 C5.61 0 11.22 0 17 0 C17.66 2.31 18.32 4.62 19 7 C21.21661854 10.02266165 22.11950224 10.02987556 26 11 C26 19.58 26 28.16 26 37 C14.45 37 2.9 37 -9 37 C-9 28.42 -9 19.84 -9 11 C-7.02 10.01 -5.04 9.02 -3 8 C-0.64644661 4.88214887 -0.64644661 4.88214887 0 0 Z " fill="#F4C74B" transform="translate(172,259)"/>
<path d="M0 0 C3.5 0.4375 3.5 0.4375 5.375 1.8125 C7.66242017 5.11655135 7.58650741 7.45815901 7.5 11.4375 C8.593125 11.375625 9.68625 11.31375 10.8125 11.25 C14.5 11.4375 14.5 11.4375 16.375 12.5625 C17.97953174 15.23671957 18.37304813 17.32717921 18.5 20.4375 C17.5625 22.75 17.5625 22.75 15.5 24.4375 C12.79647564 25.0708059 10.29063162 25.25450776 7.5 25.4375 C7.561875 26.345 7.62375 27.2525 7.6875 28.1875 C7.47847801 31.81054782 7.17774326 33.02753107 4.5 35.4375 C1.625 36.4375 1.625 36.4375 -1.5 36.4375 C-4.375 34.9375 -4.375 34.9375 -6.5 32.4375 C-6.8125 28.6875 -6.8125 28.6875 -6.5 25.4375 C-7.758125 25.334375 -9.01625 25.23125 -10.3125 25.125 C-12.81797458 24.79684935 -14.31117604 24.54961423 -16.5 23.25 C-18.03397053 20.46967842 -17.9452286 18.55410022 -17.5 15.4375 C-15.9375 13.0625 -15.9375 13.0625 -13.5 11.4375 C-9.75 11.1875 -9.75 11.1875 -6.5 11.4375 C-6.561875 10.365 -6.62375 9.2925 -6.6875 8.1875 C-6.5 4.4375 -6.5 4.4375 -5.4375 2 C-3.5 0.4375 -3.5 0.4375 0 0 Z " fill="#3BAADC" transform="translate(129.5,386.5625)"/>
<path d="M0 0 C0.66846954 -0.00511093 1.33693909 -0.01022186 2.02566528 -0.01548767 C4.24058935 -0.02941452 6.45520331 -0.0284246 8.67016602 -0.02612305 C10.2071189 -0.03000841 11.74407071 -0.03434275 13.28102112 -0.03910828 C16.50492836 -0.04657722 19.72872612 -0.04627447 22.95263672 -0.04101562 C27.0867165 -0.03522133 31.22034822 -0.05214738 35.3543539 -0.0753603 C38.52934902 -0.09008358 41.7042359 -0.09097126 44.87925911 -0.08785057 C46.40351308 -0.08836454 47.92777299 -0.09361641 49.45199394 -0.10366249 C51.58287638 -0.11598233 53.71288189 -0.10926298 55.84375 -0.09765625 C57.05683334 -0.09828568 58.26991669 -0.0989151 59.51976013 -0.0995636 C62.48657227 0.2746582 62.48657227 0.2746582 64.40956116 1.63777161 C65.48657227 3.2746582 65.48657227 3.2746582 65.36157227 5.8371582 C64.48657227 8.2746582 64.48657227 8.2746582 61.48657227 10.2746582 C58.60241699 10.53535461 58.60241699 10.53535461 55.04321289 10.54931641 C54.39410446 10.55442734 53.74499603 10.55953827 53.07621765 10.56480408 C50.93165862 10.57869865 48.78742094 10.57774369 46.64282227 10.57543945 C45.15213908 10.57932606 43.661457 10.58366065 42.17077637 10.58842468 C39.04700123 10.59588628 35.92333912 10.59559579 32.79956055 10.59033203 C28.79441951 10.58453293 24.78974025 10.60147886 20.7846756 10.6246767 C17.70661713 10.63939929 14.62867032 10.64028787 11.55058289 10.63716698 C10.0737771 10.63768079 8.59696516 10.64292979 7.12019348 10.6529789 C5.0564662 10.66530003 2.99364415 10.65857923 0.92993164 10.64697266 C-0.24460571 10.64760208 -1.41914307 10.64823151 -2.62927246 10.64888 C-5.51342773 10.2746582 -5.51342773 10.2746582 -7.39660645 8.9115448 C-8.9737791 6.59993702 -8.86391456 5.00845544 -8.51342773 2.2746582 C-5.70617079 -0.53259874 -3.93285984 0.01494713 0 0 Z " fill="#020306" transform="translate(345.513427734375,207.725341796875)"/>
<path d="M0 0 C0.66846954 -0.00511093 1.33693909 -0.01022186 2.02566528 -0.01548767 C4.24058935 -0.02941452 6.45520331 -0.0284246 8.67016602 -0.02612305 C10.2071189 -0.03000841 11.74407071 -0.03434275 13.28102112 -0.03910828 C16.50492836 -0.04657722 19.72872612 -0.04627447 22.95263672 -0.04101562 C27.0867165 -0.03522133 31.22034822 -0.05214738 35.3543539 -0.0753603 C38.52934902 -0.09008358 41.7042359 -0.09097126 44.87925911 -0.08785057 C46.40351308 -0.08836454 47.92777299 -0.09361641 49.45199394 -0.10366249 C51.58287638 -0.11598233 53.71288189 -0.10926298 55.84375 -0.09765625 C57.05683334 -0.09828568 58.26991669 -0.0989151 59.51976013 -0.0995636 C62.48657227 0.2746582 62.48657227 0.2746582 64.40956116 1.63777161 C65.48657227 3.2746582 65.48657227 3.2746582 65.36157227 5.8371582 C64.48657227 8.2746582 64.48657227 8.2746582 61.48657227 10.2746582 C58.60241699 10.52862549 58.60241699 10.52862549 55.04321289 10.53344727 C54.39410446 10.5369519 53.74499603 10.54045654 53.07621765 10.54406738 C50.93164357 10.55286628 48.78739967 10.54704224 46.64282227 10.5402832 C45.15213966 10.54163039 43.66145747 10.54357137 42.17077637 10.54608154 C39.0469952 10.5490303 35.92332842 10.54474319 32.79956055 10.53540039 C28.79450627 10.52400592 24.78972004 10.53056673 20.7846756 10.54254532 C17.70662413 10.54977065 14.62863626 10.54747291 11.55058289 10.54228973 C10.0737861 10.5409551 8.59698354 10.54259446 7.12019348 10.54724884 C5.05661716 10.55232521 2.99347557 10.54458866 0.92993164 10.53344727 C-0.83187439 10.53106049 -0.83187439 10.53106049 -2.62927246 10.52862549 C-5.51342773 10.2746582 -5.51342773 10.2746582 -8.51342773 8.2746582 C-8.82592773 5.2746582 -8.82592773 5.2746582 -8.51342773 2.2746582 C-5.70617079 -0.53259874 -3.93285984 0.01494713 0 0 Z " fill="#020406" transform="translate(215.513427734375,207.725341796875)"/>
<path d="M0 0 C0.66 0 1.32 0 2 0 C2.23074219 0.59167969 2.46148437 1.18335937 2.69921875 1.79296875 C5.63941394 8.9168409 8.64323669 13.07621813 15.8125 16.3125 C17.20358774 16.88663573 18.59793253 17.45322423 20 18 C20 18.66 20 19.32 20 20 C19.33613281 20.29132813 18.67226563 20.58265625 17.98828125 20.8828125 C9.31086639 24.91115984 5.40367489 29.04296082 2 38 C1.34 38 0.68 38 0 38 C-0.29132813 37.33613281 -0.58265625 36.67226562 -0.8828125 35.98828125 C-4.91115984 27.31086639 -9.04296082 23.40367489 -18 20 C-18 19.34 -18 18.68 -18 18 C-16.56328432 17.35242375 -15.12559584 16.70700547 -13.6875 16.0625 C-12.88699219 15.70285156 -12.08648437 15.34320313 -11.26171875 14.97265625 C-9 14 -9 14 -6 13 C-4.87151132 11.20292338 -4.87151132 11.20292338 -4 9 C-3.64679688 8.22140625 -3.29359375 7.4428125 -2.9296875 6.640625 C-2.58164062 5.85171875 -2.23359375 5.0628125 -1.875 4.25 C-1.34519531 3.05117187 -1.34519531 3.05117187 -0.8046875 1.828125 C-0.53914063 1.22484375 -0.27359375 0.6215625 0 0 Z " fill="#F5C84B" transform="translate(360,89)"/>
<path d="M0 0 C1.14533203 -0.01998047 2.29066406 -0.03996094 3.47070312 -0.06054688 C4.57220703 -0.05990234 5.67371094 -0.05925781 6.80859375 -0.05859375 C8.31957642 -0.06137329 8.31957642 -0.06137329 9.86108398 -0.06420898 C13.27709869 0.5702158 14.45733396 1.72172205 16.5625 4.4375 C17.0625 7.4375 17.0625 7.4375 16.5625 10.4375 C14.46463579 13.1347977 13.26414644 14.2981275 9.87695312 14.97094727 C6.60402268 15.00651114 3.33559419 15.0314365 0.0625 15 C-1.07832031 15.02384766 -2.21914063 15.04769531 -3.39453125 15.07226562 C-11.69935183 15.05762728 -11.69935183 15.05762728 -15.22265625 12.09765625 C-16.78212305 8.68287526 -16.59323969 6.98176839 -15.4375 3.4375 C-11.83252481 -1.49719708 -5.52183941 -0.03406631 0 0 Z " fill="#6ED2F5" transform="translate(55.4375,217.5625)"/>
<path d="M0 0 C7.59 0 15.18 0 23 0 C22.02358704 4.8820648 20.98860356 8.01795441 17 11 C12.75730237 12.3911744 9.28536724 12.50296979 5.125 10.875 C2.71270727 8.74650641 1.35252107 6.91859809 0 4 C0 2.68 0 1.36 0 0 Z " fill="#386CB9" transform="translate(445,362)"/>
<path d="M0 0 C7.59 0 15.18 0 23 0 C21.743083 7.54150198 21.743083 7.54150198 17 11 C13.91744904 12.02751699 11.2319878 12.39261824 8 12 C4.20819061 10.09606181 1.35146246 7.05438737 0 3 C0 2.01 0 1.02 0 0 Z " fill="#386DB9" transform="translate(44,362)"/>
<path d="M0 0 C4.36689189 1.42398649 4.36689189 1.42398649 5.875 3.9375 C6.37530235 7.86844707 6.4746142 10.0380787 4.25 13.375 C1.15814769 15.40911336 -0.48867425 15.54355429 -4.125 14.9375 C-6.5 13.375 -6.5 13.375 -8.125 10.9375 C-8.6875 7.4375 -8.6875 7.4375 -8.125 3.9375 C-5.45043116 0.79094842 -4.15592269 -0.08311845 0 0 Z " fill="#87D147" transform="translate(204.125,380.0625)"/>
<path d="M0 0 C4.36689189 1.42398649 4.36689189 1.42398649 5.875 3.9375 C6.37530235 7.86844707 6.4746142 10.0380787 4.25 13.375 C1.15814769 15.40911336 -0.48867425 15.54355429 -4.125 14.9375 C-6.5 13.375 -6.5 13.375 -8.125 10.9375 C-8.6875 7.4375 -8.6875 7.4375 -8.125 3.9375 C-5.45043116 0.79094842 -4.15592269 -0.08311845 0 0 Z " fill="#EF445F" transform="translate(416.125,134.0625)"/>
<path d="M0 0 C4.36689189 1.42398649 4.36689189 1.42398649 5.875 3.9375 C6.37530235 7.86844707 6.4746142 10.0380787 4.25 13.375 C1.15814769 15.40911336 -0.48867425 15.54355429 -4.125 14.9375 C-6.5 13.375 -6.5 13.375 -8.125 10.9375 C-8.6875 7.4375 -8.6875 7.4375 -8.125 3.9375 C-5.45043116 0.79094842 -4.15592269 -0.08311845 0 0 Z " fill="#3BAADC" transform="translate(242.125,134.0625)"/>
<path d="M0 0 C0.94746094 -0.01675781 1.89492188 -0.03351563 2.87109375 -0.05078125 C5.93375309 0.36261109 7.28868559 1.27520529 9.5625 3.3125 C8.6875 9.1875 8.6875 9.1875 7.5625 10.3125 C5.25256618 10.43807162 2.93831464 10.48825729 0.625 10.5 C-0.64214844 10.51417969 -1.90929687 10.52835937 -3.21484375 10.54296875 C-6.4375 10.3125 -6.4375 10.3125 -8.4375 8.3125 C-8.75 5.3125 -8.75 5.3125 -8.4375 2.3125 C-5.11533762 0.09772508 -3.88716677 0.01582293 0 0 Z " fill="#010306" transform="translate(308.4375,313.6875)"/>
<path d="M0 0 C1.051875 -0.00773437 2.10375 -0.01546875 3.1875 -0.0234375 C6 0.375 6 0.375 7.890625 1.703125 C9 3.375 9 3.375 8.75 6.5 C8 9.375 8 9.375 7 10.375 C4.69006618 10.50057162 2.37581464 10.55075729 0.0625 10.5625 C-1.20464844 10.57667969 -2.47179687 10.59085937 -3.77734375 10.60546875 C-7 10.375 -7 10.375 -9 8.375 C-9.35250056 5.62549559 -9.46929879 4.04611329 -7.85546875 1.73828125 C-5.21872945 -0.19902826 -3.23858352 -0.02381311 0 0 Z " fill="#010205" transform="translate(438,313.625)"/>
<path d="M0 0 C1.59134766 -0.02513672 1.59134766 -0.02513672 3.21484375 -0.05078125 C6.0625 0.3125 6.0625 0.3125 7.921875 1.671875 C9.52869479 3.98305415 9.41492634 5.56357455 9.0625 8.3125 C6.18949457 11.18550543 4.0590678 10.61271547 0.0625 10.625 C-1.195625 10.64175781 -2.45375 10.65851563 -3.75 10.67578125 C-5.3278125 10.49595703 -5.3278125 10.49595703 -6.9375 10.3125 C-8.9375 7.3125 -8.9375 7.3125 -8.6875 4.75 C-7.16858369 -0.18647801 -4.69547382 0.01707445 0 0 Z " fill="#010205" transform="translate(372.9375,313.6875)"/>
<path d="M0 0 C1.59134766 -0.02513672 1.59134766 -0.02513672 3.21484375 -0.05078125 C6.0625 0.3125 6.0625 0.3125 7.921875 1.671875 C9.52869479 3.98305415 9.41492634 5.56357455 9.0625 8.3125 C6.18949457 11.18550543 4.0590678 10.61271547 0.0625 10.625 C-1.195625 10.64175781 -2.45375 10.65851563 -3.75 10.67578125 C-5.3278125 10.49595703 -5.3278125 10.49595703 -6.9375 10.3125 C-8.9375 7.3125 -8.9375 7.3125 -8.6875 4.75 C-7.16858369 -0.18647801 -4.69547382 0.01707445 0 0 Z " fill="#000205" transform="translate(243.9375,313.6875)"/>
<path d="M0 0 C0.94746094 -0.01675781 1.89492187 -0.03351563 2.87109375 -0.05078125 C5.93375309 0.36261109 7.28868559 1.27520529 9.5625 3.3125 C9.1875 6.25 9.1875 6.25 8.5625 9.3125 C5.71411879 10.7366906 3.23462092 10.48245508 0.0625 10.5 C-1.1028125 10.51417969 -2.268125 10.52835937 -3.46875 10.54296875 C-6.4375 10.3125 -6.4375 10.3125 -8.4375 8.3125 C-8.75 5.3125 -8.75 5.3125 -8.4375 2.3125 C-5.11533762 0.09772508 -3.88716677 0.01582293 0 0 Z " fill="#010206" transform="translate(179.4375,313.6875)"/>
</svg>
