<svg width="248" height="29" viewBox="0 0 248 29" fill="none" xmlns="http://www.w3.org/2000/svg">
<path d="M25.4195 16.795H8.31746C8.1526 16.795 8.01726 16.7602 7.91144 16.6904C7.80561 16.6206 7.7527 16.5314 7.7527 16.4227V5.90731C7.7527 5.64984 7.62087 5.4343 7.35723 5.2607C7.09389 5.0869 6.76693 5 6.37635 5C5.98577 5 5.65881 5.0869 5.39547 5.2607C5.13182 5.4343 5 5.64984 5 5.90731V16.4227C5 17.026 5.32405 17.5414 5.97216 17.9688C6.62057 18.396 7.40234 18.6097 8.31746 18.6097H25.4195L19.6315 22.4249C19.3587 22.605 19.2146 22.8187 19.1993 23.0661C19.184 23.3133 19.3188 23.5307 19.6035 23.7184C19.8883 23.9061 20.2152 24 20.5844 24C20.9539 24 21.281 23.9061 21.5657 23.7184L29.5307 18.4678C29.7026 18.3545 29.8237 18.235 29.894 18.1094C29.9647 17.9838 30 17.8481 30 17.7024C30 17.5566 29.9647 17.4209 29.894 17.2953C29.8237 17.1697 29.7026 17.0502 29.5307 16.9369L21.5373 11.6675C21.2645 11.4877 20.9452 11.399 20.5794 11.4014C20.2136 11.4036 19.8883 11.4986 19.6035 11.6863C19.3377 11.874 19.2001 12.0864 19.1906 12.3235C19.1811 12.5608 19.3188 12.7733 19.6035 12.9611L25.4195 16.795Z" fill="white"/>
<path d="M38.816 22.008C38.656 21.784 38.584 21.496 38.6 21.144C38.616 20.792 38.824 20.488 39.224 20.232C39.48 20.072 39.752 20.008 40.04 20.04C40.328 20.056 40.608 20.2 40.88 20.472C41.344 20.936 41.832 21.296 42.344 21.552C42.856 21.808 43.496 21.936 44.264 21.936C44.504 21.92 44.768 21.888 45.056 21.84C45.344 21.776 45.592 21.648 45.8 21.456C46.024 21.248 46.136 20.936 46.136 20.52C46.136 20.168 46.016 19.888 45.776 19.68C45.536 19.472 45.216 19.296 44.816 19.152C44.432 19.008 44 18.872 43.52 18.744C43.024 18.6 42.512 18.44 41.984 18.264C41.472 18.088 41 17.864 40.568 17.592C40.136 17.304 39.784 16.928 39.512 16.464C39.24 16 39.104 15.416 39.104 14.712C39.104 13.912 39.328 13.232 39.776 12.672C40.224 12.112 40.8 11.68 41.504 11.376C42.224 11.072 42.976 10.92 43.76 10.92C44.256 10.92 44.776 10.984 45.32 11.112C45.864 11.224 46.384 11.416 46.88 11.688C47.376 11.944 47.792 12.288 48.128 12.72C48.304 12.96 48.408 13.248 48.44 13.584C48.472 13.92 48.32 14.224 47.984 14.496C47.744 14.688 47.464 14.776 47.144 14.76C46.824 14.728 46.56 14.616 46.352 14.424C46.08 14.072 45.712 13.792 45.248 13.584C44.8 13.376 44.28 13.272 43.688 13.272C43.448 13.272 43.184 13.304 42.896 13.368C42.624 13.416 42.384 13.536 42.176 13.728C41.968 13.904 41.864 14.192 41.864 14.592C41.864 14.96 41.984 15.256 42.224 15.48C42.464 15.688 42.784 15.864 43.184 16.008C43.6 16.136 44.04 16.264 44.504 16.392C44.984 16.52 45.472 16.672 45.968 16.848C46.464 17.024 46.92 17.256 47.336 17.544C47.752 17.832 48.088 18.208 48.344 18.672C48.6 19.12 48.728 19.696 48.728 20.4C48.728 21.216 48.488 21.912 48.008 22.488C47.528 23.064 46.928 23.504 46.208 23.808C45.488 24.096 44.752 24.24 44 24.24C43.056 24.24 42.112 24.08 41.168 23.76C40.224 23.424 39.44 22.84 38.816 22.008ZM57.1861 24.24C55.8261 24.24 54.6421 23.96 53.6341 23.4C52.6421 22.824 51.8741 22.048 51.3301 21.072C50.8021 20.096 50.5381 18.992 50.5381 17.76C50.5381 16.32 50.8261 15.096 51.4021 14.088C51.9941 13.064 52.7621 12.28 53.7061 11.736C54.6501 11.192 55.6501 10.92 56.7061 10.92C57.5221 10.92 58.2901 11.088 59.0101 11.424C59.7461 11.76 60.3941 12.224 60.9541 12.816C61.5141 13.392 61.9541 14.064 62.2741 14.832C62.6101 15.6 62.7781 16.416 62.7781 17.28C62.7621 17.664 62.6101 17.976 62.3221 18.216C62.0341 18.456 61.6981 18.576 61.3141 18.576H52.1461L51.4261 16.176H60.2341L59.7061 16.656V16.008C59.6741 15.544 59.5061 15.128 59.2021 14.76C58.9141 14.392 58.5461 14.104 58.0981 13.896C57.6661 13.672 57.2021 13.56 56.7061 13.56C56.2261 13.56 55.7781 13.624 55.3621 13.752C54.9461 13.88 54.5861 14.096 54.2821 14.4C53.9781 14.704 53.7381 15.112 53.5621 15.624C53.3861 16.136 53.2981 16.784 53.2981 17.568C53.2981 18.432 53.4741 19.168 53.8261 19.776C54.1941 20.368 54.6581 20.824 55.2181 21.144C55.7941 21.448 56.4021 21.6 57.0421 21.6C57.6341 21.6 58.1061 21.552 58.4581 21.456C58.8101 21.36 59.0901 21.248 59.2981 21.12C59.5221 20.976 59.7221 20.856 59.8981 20.76C60.1861 20.616 60.4581 20.544 60.7141 20.544C61.0661 20.544 61.3541 20.664 61.5781 20.904C61.8181 21.144 61.9381 21.424 61.9381 21.744C61.9381 22.176 61.7141 22.568 61.2661 22.92C60.8501 23.272 60.2661 23.584 59.5141 23.856C58.7621 24.112 57.9861 24.24 57.1861 24.24ZM71.3424 24.24C69.9824 24.24 68.7984 23.96 67.7904 23.4C66.7984 22.824 66.0304 22.048 65.4864 21.072C64.9584 20.096 64.6944 18.992 64.6944 17.76C64.6944 16.32 64.9824 15.096 65.5584 14.088C66.1504 13.064 66.9184 12.28 67.8624 11.736C68.8064 11.192 69.8064 10.92 70.8624 10.92C71.6784 10.92 72.4464 11.088 73.1664 11.424C73.9024 11.76 74.5504 12.224 75.1104 12.816C75.6704 13.392 76.1104 14.064 76.4304 14.832C76.7664 15.6 76.9344 16.416 76.9344 17.28C76.9184 17.664 76.7664 17.976 76.4784 18.216C76.1904 18.456 75.8544 18.576 75.4704 18.576H66.3024L65.5824 16.176H74.3904L73.8624 16.656V16.008C73.8304 15.544 73.6624 15.128 73.3584 14.76C73.0704 14.392 72.7024 14.104 72.2544 13.896C71.8224 13.672 71.3584 13.56 70.8624 13.56C70.3824 13.56 69.9344 13.624 69.5184 13.752C69.1024 13.88 68.7424 14.096 68.4384 14.4C68.1344 14.704 67.8944 15.112 67.7184 15.624C67.5424 16.136 67.4544 16.784 67.4544 17.568C67.4544 18.432 67.6304 19.168 67.9824 19.776C68.3504 20.368 68.8144 20.824 69.3744 21.144C69.9504 21.448 70.5584 21.6 71.1984 21.6C71.7904 21.6 72.2624 21.552 72.6144 21.456C72.9664 21.36 73.2464 21.248 73.4544 21.12C73.6784 20.976 73.8784 20.856 74.0544 20.76C74.3424 20.616 74.6144 20.544 74.8704 20.544C75.2224 20.544 75.5104 20.664 75.7344 20.904C75.9744 21.144 76.0944 21.424 76.0944 21.744C76.0944 22.176 75.8704 22.568 75.4224 22.92C75.0064 23.272 74.4224 23.584 73.6704 23.856C72.9184 24.112 72.1424 24.24 71.3424 24.24ZM92.9212 10.92C94.2012 10.92 95.1452 11.232 95.7532 11.856C96.3612 12.464 96.7612 13.256 96.9532 14.232L96.5452 14.016L96.7372 13.632C96.9292 13.264 97.2252 12.872 97.6252 12.456C98.0252 12.024 98.5052 11.664 99.0652 11.376C99.6412 11.072 100.281 10.92 100.985 10.92C102.137 10.92 103.009 11.168 103.601 11.664C104.209 12.16 104.625 12.824 104.849 13.656C105.073 14.472 105.185 15.384 105.185 16.392V22.536C105.185 22.952 105.049 23.304 104.777 23.592C104.505 23.864 104.161 24 103.745 24C103.329 24 102.985 23.864 102.713 23.592C102.441 23.304 102.305 22.952 102.305 22.536V16.392C102.305 15.864 102.241 15.392 102.113 14.976C101.985 14.544 101.753 14.2 101.417 13.944C101.081 13.688 100.601 13.56 99.9772 13.56C99.3692 13.56 98.8492 13.688 98.4172 13.944C97.9852 14.2 97.6572 14.544 97.4332 14.976C97.2252 15.392 97.1212 15.864 97.1212 16.392V22.536C97.1212 22.952 96.9852 23.304 96.7132 23.592C96.4412 23.864 96.0972 24 95.6812 24C95.2652 24 94.9212 23.864 94.6492 23.592C94.3772 23.304 94.2412 22.952 94.2412 22.536V16.392C94.2412 15.864 94.1772 15.392 94.0492 14.976C93.9212 14.544 93.6892 14.2 93.3532 13.944C93.0172 13.688 92.5372 13.56 91.9132 13.56C91.3052 13.56 90.7852 13.688 90.3532 13.944C89.9212 14.2 89.5932 14.544 89.3692 14.976C89.1612 15.392 89.0572 15.864 89.0572 16.392V22.536C89.0572 22.952 88.9212 23.304 88.6492 23.592C88.3772 23.864 88.0332 24 87.6172 24C87.2012 24 86.8572 23.864 86.5852 23.592C86.3132 23.304 86.1772 22.952 86.1772 22.536V12.624C86.1772 12.208 86.3132 11.864 86.5852 11.592C86.8572 11.304 87.2012 11.16 87.6172 11.16C88.0332 11.16 88.3772 11.304 88.6492 11.592C88.9212 11.864 89.0572 12.208 89.0572 12.624V13.656L88.6972 13.584C88.8412 13.312 89.0412 13.024 89.2972 12.72C89.5532 12.4 89.8652 12.104 90.2332 11.832C90.6012 11.56 91.0092 11.344 91.4572 11.184C91.9052 11.008 92.3932 10.92 92.9212 10.92ZM120.758 17.592C120.758 18.904 120.462 20.064 119.87 21.072C119.294 22.064 118.51 22.84 117.518 23.4C116.542 23.96 115.446 24.24 114.23 24.24C113.014 24.24 111.91 23.96 110.918 23.4C109.942 22.84 109.158 22.064 108.566 21.072C107.99 20.064 107.702 18.904 107.702 17.592C107.702 16.28 107.99 15.128 108.566 14.136C109.158 13.128 109.942 12.344 110.918 11.784C111.91 11.208 113.014 10.92 114.23 10.92C115.446 10.92 116.542 11.208 117.518 11.784C118.51 12.344 119.294 13.128 119.87 14.136C120.462 15.128 120.758 16.28 120.758 17.592ZM117.878 17.592C117.878 16.776 117.71 16.072 117.374 15.48C117.054 14.872 116.614 14.4 116.054 14.064C115.51 13.728 114.902 13.56 114.23 13.56C113.558 13.56 112.942 13.728 112.382 14.064C111.838 14.4 111.398 14.872 111.062 15.48C110.742 16.072 110.582 16.776 110.582 17.592C110.582 18.392 110.742 19.096 111.062 19.704C111.398 20.296 111.838 20.76 112.382 21.096C112.942 21.432 113.558 21.6 114.23 21.6C114.902 21.6 115.51 21.432 116.054 21.096C116.614 20.76 117.054 20.296 117.374 19.704C117.71 19.096 117.878 18.392 117.878 17.592ZM124.719 24C124.303 24 123.959 23.864 123.687 23.592C123.415 23.304 123.279 22.952 123.279 22.536V12.624C123.279 12.208 123.415 11.864 123.687 11.592C123.959 11.304 124.303 11.16 124.719 11.16C125.135 11.16 125.479 11.304 125.751 11.592C126.023 11.864 126.159 12.208 126.159 12.624V14.88L125.991 13.272C126.167 12.888 126.391 12.552 126.663 12.264C126.951 11.96 127.271 11.712 127.623 11.52C127.975 11.312 128.351 11.16 128.751 11.064C129.151 10.968 129.551 10.92 129.951 10.92C130.431 10.92 130.831 11.056 131.151 11.328C131.487 11.6 131.655 11.92 131.655 12.288C131.655 12.816 131.519 13.2 131.247 13.44C130.975 13.664 130.679 13.776 130.359 13.776C130.055 13.776 129.775 13.72 129.519 13.608C129.279 13.496 128.999 13.44 128.679 13.44C128.391 13.44 128.095 13.512 127.791 13.656C127.503 13.784 127.231 13.992 126.975 14.28C126.735 14.568 126.535 14.928 126.375 15.36C126.231 15.776 126.159 16.272 126.159 16.848V22.536C126.159 22.952 126.023 23.304 125.751 23.592C125.479 23.864 125.135 24 124.719 24ZM139.194 24.24C137.834 24.24 136.65 23.96 135.642 23.4C134.65 22.824 133.882 22.048 133.338 21.072C132.81 20.096 132.546 18.992 132.546 17.76C132.546 16.32 132.834 15.096 133.41 14.088C134.002 13.064 134.77 12.28 135.714 11.736C136.658 11.192 137.658 10.92 138.714 10.92C139.53 10.92 140.298 11.088 141.018 11.424C141.754 11.76 142.402 12.224 142.962 12.816C143.522 13.392 143.962 14.064 144.282 14.832C144.618 15.6 144.786 16.416 144.786 17.28C144.77 17.664 144.618 17.976 144.33 18.216C144.042 18.456 143.706 18.576 143.322 18.576H134.154L133.434 16.176H142.242L141.714 16.656V16.008C141.682 15.544 141.514 15.128 141.21 14.76C140.922 14.392 140.554 14.104 140.106 13.896C139.674 13.672 139.21 13.56 138.714 13.56C138.234 13.56 137.786 13.624 137.37 13.752C136.954 13.88 136.594 14.096 136.29 14.4C135.986 14.704 135.746 15.112 135.57 15.624C135.394 16.136 135.306 16.784 135.306 17.568C135.306 18.432 135.482 19.168 135.834 19.776C136.202 20.368 136.666 20.824 137.226 21.144C137.802 21.448 138.41 21.6 139.05 21.6C139.642 21.6 140.114 21.552 140.466 21.456C140.818 21.36 141.098 21.248 141.306 21.12C141.53 20.976 141.73 20.856 141.906 20.76C142.194 20.616 142.466 20.544 142.722 20.544C143.074 20.544 143.362 20.664 143.586 20.904C143.826 21.144 143.946 21.424 143.946 21.744C143.946 22.176 143.722 22.568 143.274 22.92C142.858 23.272 142.274 23.584 141.522 23.856C140.77 24.112 139.994 24.24 139.194 24.24ZM160.677 10.92C161.797 10.92 162.797 11.208 163.677 11.784C164.573 12.344 165.277 13.12 165.789 14.112C166.317 15.104 166.581 16.256 166.581 17.568C166.581 18.88 166.317 20.04 165.789 21.048C165.277 22.04 164.581 22.824 163.701 23.4C162.837 23.96 161.861 24.24 160.773 24.24C160.133 24.24 159.533 24.136 158.973 23.928C158.413 23.72 157.917 23.456 157.485 23.136C157.069 22.816 156.741 22.496 156.501 22.176C156.277 21.84 156.165 21.56 156.165 21.336L156.909 21.024V27.336C156.909 27.752 156.773 28.096 156.501 28.368C156.229 28.656 155.885 28.8 155.469 28.8C155.053 28.8 154.709 28.664 154.437 28.392C154.165 28.12 154.029 27.768 154.029 27.336V12.624C154.029 12.208 154.165 11.864 154.437 11.592C154.709 11.304 155.053 11.16 155.469 11.16C155.885 11.16 156.229 11.304 156.501 11.592C156.773 11.864 156.909 12.208 156.909 12.624V13.8L156.501 13.584C156.501 13.376 156.613 13.128 156.837 12.84C157.061 12.536 157.365 12.24 157.749 11.952C158.133 11.648 158.573 11.4 159.069 11.208C159.581 11.016 160.117 10.92 160.677 10.92ZM160.317 13.56C159.613 13.56 158.997 13.736 158.469 14.088C157.941 14.44 157.525 14.92 157.221 15.528C156.933 16.12 156.789 16.8 156.789 17.568C156.789 18.32 156.933 19.008 157.221 19.632C157.525 20.24 157.941 20.72 158.469 21.072C158.997 21.424 159.613 21.6 160.317 21.6C161.021 21.6 161.629 21.424 162.141 21.072C162.669 20.72 163.077 20.24 163.365 19.632C163.669 19.008 163.821 18.32 163.821 17.568C163.821 16.8 163.669 16.12 163.365 15.528C163.077 14.92 162.669 14.44 162.141 14.088C161.629 13.736 161.021 13.56 160.317 13.56ZM170.539 24C170.123 24 169.779 23.864 169.507 23.592C169.235 23.304 169.099 22.952 169.099 22.536V12.624C169.099 12.208 169.235 11.864 169.507 11.592C169.779 11.304 170.123 11.16 170.539 11.16C170.955 11.16 171.299 11.304 171.571 11.592C171.843 11.864 171.979 12.208 171.979 12.624V14.88L171.811 13.272C171.987 12.888 172.211 12.552 172.483 12.264C172.771 11.96 173.091 11.712 173.443 11.52C173.795 11.312 174.171 11.16 174.571 11.064C174.971 10.968 175.371 10.92 175.771 10.92C176.251 10.92 176.651 11.056 176.971 11.328C177.307 11.6 177.475 11.92 177.475 12.288C177.475 12.816 177.339 13.2 177.067 13.44C176.795 13.664 176.499 13.776 176.179 13.776C175.875 13.776 175.595 13.72 175.339 13.608C175.099 13.496 174.819 13.44 174.499 13.44C174.211 13.44 173.915 13.512 173.611 13.656C173.323 13.784 173.051 13.992 172.795 14.28C172.555 14.568 172.355 14.928 172.195 15.36C172.051 15.776 171.979 16.272 171.979 16.848V22.536C171.979 22.952 171.843 23.304 171.571 23.592C171.299 23.864 170.955 24 170.539 24ZM191.422 17.592C191.422 18.904 191.126 20.064 190.534 21.072C189.958 22.064 189.174 22.84 188.182 23.4C187.206 23.96 186.11 24.24 184.894 24.24C183.678 24.24 182.574 23.96 181.582 23.4C180.606 22.84 179.822 22.064 179.23 21.072C178.654 20.064 178.366 18.904 178.366 17.592C178.366 16.28 178.654 15.128 179.23 14.136C179.822 13.128 180.606 12.344 181.582 11.784C182.574 11.208 183.678 10.92 184.894 10.92C186.11 10.92 187.206 11.208 188.182 11.784C189.174 12.344 189.958 13.128 190.534 14.136C191.126 15.128 191.422 16.28 191.422 17.592ZM188.542 17.592C188.542 16.776 188.374 16.072 188.038 15.48C187.718 14.872 187.278 14.4 186.718 14.064C186.174 13.728 185.566 13.56 184.894 13.56C184.222 13.56 183.606 13.728 183.046 14.064C182.502 14.4 182.062 14.872 181.726 15.48C181.406 16.072 181.246 16.776 181.246 17.592C181.246 18.392 181.406 19.096 181.726 19.704C182.062 20.296 182.502 20.76 183.046 21.096C183.606 21.432 184.222 21.6 184.894 21.6C185.566 21.6 186.174 21.432 186.718 21.096C187.278 20.76 187.718 20.296 188.038 19.704C188.374 19.096 188.542 18.392 188.542 17.592ZM197.183 24.24C197.183 25.152 197.007 25.936 196.655 26.592C196.303 27.264 195.831 27.784 195.239 28.152C194.647 28.52 193.983 28.704 193.247 28.704C192.847 28.704 192.527 28.568 192.287 28.296C192.031 28.04 191.903 27.728 191.903 27.36V27.096C191.903 26.744 192.023 26.464 192.263 26.256C192.487 26.048 192.775 25.888 193.127 25.776C193.511 25.648 193.783 25.464 193.943 25.224C194.103 25 194.199 24.728 194.231 24.408C194.279 24.088 194.303 23.752 194.303 23.4V12.624C194.303 12.208 194.439 11.864 194.711 11.592C194.983 11.304 195.327 11.16 195.743 11.16C196.159 11.16 196.503 11.304 196.775 11.592C197.047 11.864 197.183 12.208 197.183 12.624V24.24ZM195.695 9.6C195.151 9.6 194.767 9.512 194.543 9.336C194.319 9.16 194.207 8.848 194.207 8.4V7.944C194.207 7.48 194.327 7.168 194.567 7.008C194.823 6.832 195.207 6.744 195.719 6.744C196.279 6.744 196.671 6.832 196.895 7.008C197.119 7.184 197.231 7.496 197.231 7.944V8.4C197.231 8.864 197.111 9.184 196.871 9.36C196.631 9.52 196.239 9.6 195.695 9.6ZM206.6 24.24C205.24 24.24 204.056 23.96 203.048 23.4C202.056 22.824 201.288 22.048 200.744 21.072C200.216 20.096 199.952 18.992 199.952 17.76C199.952 16.32 200.24 15.096 200.816 14.088C201.408 13.064 202.176 12.28 203.12 11.736C204.064 11.192 205.064 10.92 206.12 10.92C206.936 10.92 207.704 11.088 208.424 11.424C209.16 11.76 209.808 12.224 210.368 12.816C210.928 13.392 211.368 14.064 211.688 14.832C212.024 15.6 212.192 16.416 212.192 17.28C212.176 17.664 212.024 17.976 211.736 18.216C211.448 18.456 211.112 18.576 210.728 18.576H201.56L200.84 16.176H209.648L209.12 16.656V16.008C209.088 15.544 208.92 15.128 208.616 14.76C208.328 14.392 207.96 14.104 207.512 13.896C207.08 13.672 206.616 13.56 206.12 13.56C205.64 13.56 205.192 13.624 204.776 13.752C204.36 13.88 204 14.096 203.696 14.4C203.392 14.704 203.152 15.112 202.976 15.624C202.8 16.136 202.712 16.784 202.712 17.568C202.712 18.432 202.888 19.168 203.24 19.776C203.608 20.368 204.072 20.824 204.632 21.144C205.208 21.448 205.816 21.6 206.456 21.6C207.048 21.6 207.52 21.552 207.872 21.456C208.224 21.36 208.504 21.248 208.712 21.12C208.936 20.976 209.136 20.856 209.312 20.76C209.6 20.616 209.872 20.544 210.128 20.544C210.48 20.544 210.768 20.664 210.992 20.904C211.232 21.144 211.352 21.424 211.352 21.744C211.352 22.176 211.128 22.568 210.68 22.92C210.264 23.272 209.68 23.584 208.928 23.856C208.176 24.112 207.4 24.24 206.6 24.24ZM220.42 10.92C221.332 10.92 222.124 11.016 222.796 11.208C223.484 11.4 224.012 11.672 224.38 12.024C224.764 12.36 224.956 12.768 224.956 13.248C224.956 13.568 224.86 13.872 224.668 14.16C224.476 14.432 224.196 14.568 223.828 14.568C223.572 14.568 223.356 14.536 223.18 14.472C223.02 14.392 222.876 14.296 222.748 14.184C222.62 14.072 222.468 13.968 222.292 13.872C222.132 13.776 221.884 13.704 221.548 13.656C221.228 13.592 220.988 13.56 220.828 13.56C220.012 13.56 219.316 13.736 218.74 14.088C218.18 14.44 217.748 14.92 217.444 15.528C217.14 16.12 216.988 16.808 216.988 17.592C216.988 18.36 217.14 19.048 217.444 19.656C217.764 20.248 218.196 20.72 218.74 21.072C219.3 21.424 219.94 21.6 220.66 21.6C221.06 21.6 221.404 21.576 221.692 21.528C221.98 21.48 222.22 21.408 222.412 21.312C222.636 21.184 222.836 21.048 223.012 20.904C223.188 20.76 223.452 20.688 223.804 20.688C224.22 20.688 224.54 20.824 224.764 21.096C224.988 21.352 225.1 21.672 225.1 22.056C225.1 22.456 224.876 22.824 224.428 23.16C223.98 23.48 223.388 23.744 222.652 23.952C221.932 24.144 221.148 24.24 220.3 24.24C219.036 24.24 217.94 23.952 217.012 23.376C216.084 22.784 215.364 21.984 214.852 20.976C214.356 19.968 214.108 18.84 214.108 17.592C214.108 16.28 214.372 15.128 214.9 14.136C215.444 13.128 216.188 12.344 217.132 11.784C218.092 11.208 219.188 10.92 220.42 10.92ZM227.321 11.4H233.009C233.393 11.4 233.713 11.528 233.969 11.784C234.225 12.04 234.353 12.36 234.353 12.744C234.353 13.112 234.225 13.424 233.969 13.68C233.713 13.92 233.393 14.04 233.009 14.04H227.321C226.937 14.04 226.617 13.912 226.361 13.656C226.105 13.4 225.977 13.08 225.977 12.696C225.977 12.328 226.105 12.024 226.361 11.784C226.617 11.528 226.937 11.4 227.321 11.4ZM229.889 8.4C230.305 8.4 230.641 8.544 230.897 8.832C231.169 9.104 231.305 9.448 231.305 9.864V20.544C231.305 20.768 231.345 20.952 231.425 21.096C231.521 21.24 231.641 21.344 231.785 21.408C231.945 21.472 232.113 21.504 232.289 21.504C232.481 21.504 232.657 21.472 232.817 21.408C232.977 21.328 233.161 21.288 233.369 21.288C233.593 21.288 233.793 21.392 233.969 21.6C234.161 21.808 234.257 22.096 234.257 22.464C234.257 22.912 234.009 23.28 233.513 23.568C233.033 23.856 232.513 24 231.953 24C231.617 24 231.241 23.976 230.825 23.928C230.425 23.864 230.041 23.728 229.673 23.52C229.321 23.296 229.025 22.96 228.785 22.512C228.545 22.064 228.425 21.448 228.425 20.664V9.864C228.425 9.448 228.561 9.104 228.833 8.832C229.121 8.544 229.473 8.4 229.889 8.4ZM236.722 22.008C236.562 21.784 236.49 21.496 236.506 21.144C236.522 20.792 236.73 20.488 237.13 20.232C237.386 20.072 237.658 20.008 237.946 20.04C238.234 20.056 238.514 20.2 238.786 20.472C239.25 20.936 239.738 21.296 240.25 21.552C240.762 21.808 241.402 21.936 242.17 21.936C242.41 21.92 242.674 21.888 242.962 21.84C243.25 21.776 243.498 21.648 243.706 21.456C243.93 21.248 244.042 20.936 244.042 20.52C244.042 20.168 243.922 19.888 243.682 19.68C243.442 19.472 243.122 19.296 242.722 19.152C242.338 19.008 241.906 18.872 241.426 18.744C240.93 18.6 240.418 18.44 239.89 18.264C239.378 18.088 238.906 17.864 238.474 17.592C238.042 17.304 237.69 16.928 237.418 16.464C237.146 16 237.01 15.416 237.01 14.712C237.01 13.912 237.234 13.232 237.682 12.672C238.13 12.112 238.706 11.68 239.41 11.376C240.13 11.072 240.882 10.92 241.666 10.92C242.162 10.92 242.682 10.984 243.226 11.112C243.77 11.224 244.29 11.416 244.786 11.688C245.282 11.944 245.698 12.288 246.034 12.72C246.21 12.96 246.314 13.248 246.346 13.584C246.378 13.92 246.226 14.224 245.89 14.496C245.65 14.688 245.37 14.776 245.05 14.76C244.73 14.728 244.466 14.616 244.258 14.424C243.986 14.072 243.618 13.792 243.154 13.584C242.706 13.376 242.186 13.272 241.594 13.272C241.354 13.272 241.09 13.304 240.802 13.368C240.53 13.416 240.29 13.536 240.082 13.728C239.874 13.904 239.77 14.192 239.77 14.592C239.77 14.96 239.89 15.256 240.13 15.48C240.37 15.688 240.69 15.864 241.09 16.008C241.506 16.136 241.946 16.264 242.41 16.392C242.89 16.52 243.378 16.672 243.874 16.848C244.37 17.024 244.826 17.256 245.242 17.544C245.658 17.832 245.994 18.208 246.25 18.672C246.506 19.12 246.634 19.696 246.634 20.4C246.634 21.216 246.394 21.912 245.914 22.488C245.434 23.064 244.834 23.504 244.114 23.808C243.394 24.096 242.658 24.24 241.906 24.24C240.962 24.24 240.018 24.08 239.074 23.76C238.13 23.424 237.346 22.84 236.722 22.008Z" fill="white"/>
<path d="M38 27H152.831V28.2H38V27ZM158.106 27H191.183V28.2H158.106V27ZM197.614 27H247.474V28.2H197.614V27Z" fill="white"/>
</svg>
