<svg width="248" height="29" viewBox="0 0 248 29" fill="none" xmlns="http://www.w3.org/2000/svg">
<path d="M21.3356 16.795H7.65397C7.52208 16.795 7.41381 16.7602 7.32915 16.6904C7.24449 16.6206 7.20216 16.5314 7.20216 16.4227V5.90731C7.20216 5.64984 7.0967 5.4343 6.88578 5.2607C6.67511 5.0869 6.41354 5 6.10108 5C5.78862 5 5.52705 5.0869 5.31638 5.2607C5.10546 5.4343 5 5.64984 5 5.90731V16.4227C5 17.026 5.25924 17.5414 5.77773 17.9688C6.29646 18.396 6.92187 18.6097 7.65397 18.6097H21.3356L16.7052 22.4249C16.4869 22.605 16.3717 22.8187 16.3595 23.0661C16.3472 23.3133 16.455 23.5307 16.6828 23.7184C16.9106 23.9061 17.1722 24 17.4675 24C17.7631 24 18.0248 23.9061 18.2526 23.7184L24.6245 18.4678C24.762 18.3545 24.8589 18.235 24.9152 18.1094C24.9717 17.9838 25 17.8481 25 17.7024C25 17.5566 24.9717 17.4209 24.9152 17.2953C24.8589 17.1697 24.762 17.0502 24.6245 16.9369L18.2298 11.6675C18.0116 11.4877 17.7561 11.399 17.4635 11.4014C17.1708 11.4036 16.9106 11.4986 16.6828 11.6863C16.4702 11.874 16.3601 12.0864 16.3525 12.3235C16.3449 12.5608 16.455 12.7733 16.6828 12.9611L21.3356 16.795Z" fill="white"/>
<path d="M39.08 22.032C38.936 21.824 38.872 21.608 38.888 21.384C38.904 21.144 39.04 20.936 39.296 20.76C39.456 20.648 39.64 20.6 39.848 20.616C40.072 20.632 40.272 20.736 40.448 20.928C40.896 21.456 41.408 21.88 41.984 22.2C42.56 22.504 43.264 22.656 44.096 22.656C44.48 22.64 44.864 22.576 45.248 22.464C45.632 22.352 45.952 22.16 46.208 21.888C46.48 21.6 46.616 21.224 46.616 20.76C46.616 20.312 46.48 19.96 46.208 19.704C45.936 19.432 45.584 19.216 45.152 19.056C44.72 18.88 44.248 18.728 43.736 18.6C43.208 18.456 42.688 18.296 42.176 18.12C41.664 17.928 41.2 17.696 40.784 17.424C40.384 17.136 40.056 16.784 39.8 16.368C39.56 15.936 39.44 15.416 39.44 14.808C39.44 14.088 39.632 13.464 40.016 12.936C40.416 12.408 40.944 12 41.6 11.712C42.272 11.424 43 11.28 43.784 11.28C44.232 11.28 44.696 11.336 45.176 11.448C45.672 11.544 46.152 11.72 46.616 11.976C47.08 12.216 47.488 12.552 47.84 12.984C47.984 13.144 48.064 13.344 48.08 13.584C48.096 13.824 47.992 14.04 47.768 14.232C47.592 14.36 47.392 14.416 47.168 14.4C46.96 14.384 46.784 14.304 46.64 14.16C46.304 13.76 45.88 13.456 45.368 13.248C44.872 13.024 44.32 12.912 43.712 12.912C43.328 12.912 42.952 12.968 42.584 13.08C42.216 13.192 41.904 13.384 41.648 13.656C41.408 13.912 41.288 14.272 41.288 14.736C41.304 15.168 41.448 15.52 41.72 15.792C41.992 16.064 42.36 16.288 42.824 16.464C43.288 16.624 43.8 16.784 44.36 16.944C44.872 17.072 45.36 17.224 45.824 17.4C46.304 17.56 46.736 17.776 47.12 18.048C47.504 18.32 47.808 18.672 48.032 19.104C48.256 19.52 48.368 20.048 48.368 20.688C48.368 21.424 48.16 22.064 47.744 22.608C47.328 23.136 46.776 23.544 46.088 23.832C45.416 24.104 44.688 24.24 43.904 24.24C43.024 24.24 42.152 24.072 41.288 23.736C40.44 23.4 39.704 22.832 39.08 22.032ZM56.8792 24.24C55.5992 24.24 54.4792 23.968 53.5192 23.424C52.5592 22.88 51.8072 22.136 51.2632 21.192C50.7352 20.232 50.4712 19.128 50.4712 17.88C50.4712 16.488 50.7432 15.304 51.2872 14.328C51.8472 13.336 52.5672 12.584 53.4472 12.072C54.3432 11.544 55.2872 11.28 56.2792 11.28C57.0152 11.28 57.7272 11.416 58.4152 11.688C59.1032 11.96 59.7112 12.36 60.2392 12.888C60.7672 13.4 61.1912 14.024 61.5112 14.76C61.8312 15.48 61.9992 16.288 62.0152 17.184C62.0152 17.44 61.9192 17.656 61.7272 17.832C61.5352 18.008 61.3112 18.096 61.0552 18.096H51.5752L51.1432 16.44H60.3832L59.9992 16.776V16.248C59.9352 15.592 59.7112 15.032 59.3272 14.568C58.9592 14.088 58.5032 13.72 57.9592 13.464C57.4312 13.208 56.8712 13.08 56.2792 13.08C55.7992 13.08 55.3192 13.168 54.8392 13.344C54.3752 13.504 53.9512 13.776 53.5672 14.16C53.1992 14.528 52.8952 15.008 52.6552 15.6C52.4312 16.192 52.3192 16.904 52.3192 17.736C52.3192 18.664 52.5032 19.48 52.8712 20.184C53.2552 20.888 53.7832 21.448 54.4552 21.864C55.1272 22.264 55.9112 22.464 56.8072 22.464C57.3672 22.464 57.8552 22.392 58.2712 22.248C58.6872 22.104 59.0472 21.928 59.3512 21.72C59.6552 21.496 59.9112 21.272 60.1192 21.048C60.3272 20.904 60.5272 20.832 60.7192 20.832C60.9592 20.832 61.1512 20.912 61.2952 21.072C61.4552 21.232 61.5352 21.424 61.5352 21.648C61.5352 21.92 61.4072 22.16 61.1512 22.368C60.7032 22.864 60.0952 23.304 59.3272 23.688C58.5592 24.056 57.7432 24.24 56.8792 24.24ZM70.637 24.24C69.357 24.24 68.237 23.968 67.277 23.424C66.317 22.88 65.565 22.136 65.021 21.192C64.493 20.232 64.229 19.128 64.229 17.88C64.229 16.488 64.501 15.304 65.045 14.328C65.605 13.336 66.325 12.584 67.205 12.072C68.101 11.544 69.045 11.28 70.037 11.28C70.773 11.28 71.485 11.416 72.173 11.688C72.861 11.96 73.469 12.36 73.997 12.888C74.525 13.4 74.949 14.024 75.269 14.76C75.589 15.48 75.757 16.288 75.773 17.184C75.773 17.44 75.677 17.656 75.485 17.832C75.293 18.008 75.069 18.096 74.813 18.096H65.333L64.901 16.44H74.141L73.757 16.776V16.248C73.693 15.592 73.469 15.032 73.085 14.568C72.717 14.088 72.261 13.72 71.717 13.464C71.189 13.208 70.629 13.08 70.037 13.08C69.557 13.08 69.077 13.168 68.597 13.344C68.133 13.504 67.709 13.776 67.325 14.16C66.957 14.528 66.653 15.008 66.413 15.6C66.189 16.192 66.077 16.904 66.077 17.736C66.077 18.664 66.261 19.48 66.629 20.184C67.013 20.888 67.541 21.448 68.213 21.864C68.885 22.264 69.669 22.464 70.565 22.464C71.125 22.464 71.613 22.392 72.029 22.248C72.445 22.104 72.805 21.928 73.109 21.72C73.413 21.496 73.669 21.272 73.877 21.048C74.085 20.904 74.285 20.832 74.477 20.832C74.717 20.832 74.909 20.912 75.053 21.072C75.213 21.232 75.293 21.424 75.293 21.648C75.293 21.92 75.165 22.16 74.909 22.368C74.461 22.864 73.853 23.304 73.085 23.688C72.317 24.056 71.501 24.24 70.637 24.24ZM91.1962 11.4C92.2842 11.4 93.1642 11.68 93.8362 12.24C94.5242 12.784 94.9802 13.56 95.2042 14.568H94.8442L95.0122 14.136C95.2042 13.688 95.5322 13.256 95.9962 12.84C96.4602 12.424 96.9962 12.08 97.6042 11.808C98.2122 11.536 98.8442 11.4 99.5002 11.4C100.556 11.4 101.388 11.632 101.996 12.096C102.604 12.544 103.036 13.152 103.292 13.92C103.564 14.672 103.7 15.52 103.7 16.464V23.016C103.7 23.288 103.604 23.52 103.412 23.712C103.236 23.904 103.012 24 102.74 24C102.452 24 102.22 23.904 102.044 23.712C101.868 23.52 101.78 23.288 101.78 23.016V16.512C101.78 15.888 101.684 15.328 101.492 14.832C101.316 14.32 101.02 13.92 100.604 13.632C100.204 13.328 99.6522 13.176 98.9482 13.176C98.2922 13.176 97.6922 13.328 97.1482 13.632C96.6042 13.92 96.1722 14.32 95.8522 14.832C95.5322 15.328 95.3722 15.888 95.3722 16.512V23.016C95.3722 23.288 95.2842 23.52 95.1082 23.712C94.9322 23.904 94.7002 24 94.4122 24C94.1402 24 93.9082 23.904 93.7162 23.712C93.5402 23.52 93.4522 23.288 93.4522 23.016V16.44C93.4522 15.832 93.3642 15.288 93.1882 14.808C93.0282 14.312 92.7482 13.92 92.3482 13.632C91.9482 13.328 91.3962 13.176 90.6922 13.176C90.0522 13.176 89.4682 13.328 88.9402 13.632C88.4122 13.92 87.9882 14.312 87.6682 14.808C87.3482 15.288 87.1882 15.832 87.1882 16.44V23.016C87.1882 23.288 87.0922 23.52 86.9002 23.712C86.7242 23.904 86.5002 24 86.2282 24C85.9562 24 85.7242 23.904 85.5322 23.712C85.3562 23.52 85.2682 23.288 85.2682 23.016V12.552C85.2682 12.28 85.3562 12.056 85.5322 11.88C85.7242 11.688 85.9562 11.592 86.2282 11.592C86.5162 11.592 86.7482 11.688 86.9242 11.88C87.1002 12.056 87.1882 12.28 87.1882 12.552V14.376L86.6602 14.952C86.7242 14.536 86.8842 14.12 87.1402 13.704C87.4122 13.288 87.7562 12.904 88.1722 12.552C88.5882 12.2 89.0522 11.92 89.5642 11.712C90.0762 11.504 90.6202 11.4 91.1962 11.4ZM119.037 17.76C119.037 19.008 118.757 20.12 118.197 21.096C117.653 22.072 116.909 22.84 115.965 23.4C115.037 23.96 113.989 24.24 112.821 24.24C111.653 24.24 110.597 23.96 109.653 23.4C108.709 22.84 107.957 22.072 107.397 21.096C106.853 20.12 106.581 19.008 106.581 17.76C106.581 16.512 106.853 15.4 107.397 14.424C107.957 13.448 108.709 12.68 109.653 12.12C110.597 11.56 111.653 11.28 112.821 11.28C113.989 11.28 115.037 11.56 115.965 12.12C116.909 12.68 117.653 13.448 118.197 14.424C118.757 15.4 119.037 16.512 119.037 17.76ZM117.117 17.76C117.117 16.832 116.925 16.016 116.541 15.312C116.173 14.608 115.661 14.056 115.005 13.656C114.365 13.256 113.637 13.056 112.821 13.056C112.005 13.056 111.269 13.256 110.613 13.656C109.973 14.056 109.461 14.608 109.077 15.312C108.693 16.016 108.501 16.832 108.501 17.76C108.501 18.672 108.693 19.48 109.077 20.184C109.461 20.888 109.973 21.448 110.613 21.864C111.269 22.264 112.005 22.464 112.821 22.464C113.637 22.464 114.365 22.264 115.005 21.864C115.661 21.448 116.173 20.888 116.541 20.184C116.925 19.48 117.117 18.672 117.117 17.76ZM122.884 24C122.612 24 122.38 23.904 122.188 23.712C122.012 23.52 121.924 23.288 121.924 23.016V12.552C121.924 12.28 122.012 12.056 122.188 11.88C122.38 11.688 122.612 11.592 122.884 11.592C123.172 11.592 123.404 11.688 123.58 11.88C123.756 12.056 123.844 12.28 123.844 12.552V15.72L123.556 15.216C123.652 14.72 123.82 14.24 124.06 13.776C124.316 13.296 124.636 12.872 125.02 12.504C125.404 12.12 125.844 11.824 126.34 11.616C126.836 11.392 127.38 11.28 127.972 11.28C128.324 11.28 128.644 11.368 128.932 11.544C129.236 11.704 129.388 11.936 129.388 12.24C129.388 12.576 129.3 12.824 129.124 12.984C128.948 13.144 128.748 13.224 128.524 13.224C128.316 13.224 128.116 13.184 127.924 13.104C127.732 13.008 127.492 12.96 127.204 12.96C126.804 12.96 126.404 13.072 126.004 13.296C125.62 13.504 125.26 13.808 124.924 14.208C124.604 14.608 124.34 15.064 124.132 15.576C123.94 16.072 123.844 16.608 123.844 17.184V23.016C123.844 23.288 123.748 23.52 123.556 23.712C123.38 23.904 123.156 24 122.884 24ZM136.754 24.24C135.474 24.24 134.354 23.968 133.394 23.424C132.434 22.88 131.682 22.136 131.138 21.192C130.61 20.232 130.346 19.128 130.346 17.88C130.346 16.488 130.618 15.304 131.162 14.328C131.722 13.336 132.442 12.584 133.322 12.072C134.218 11.544 135.162 11.28 136.154 11.28C136.89 11.28 137.602 11.416 138.29 11.688C138.978 11.96 139.586 12.36 140.114 12.888C140.642 13.4 141.066 14.024 141.386 14.76C141.706 15.48 141.874 16.288 141.89 17.184C141.89 17.44 141.794 17.656 141.602 17.832C141.41 18.008 141.186 18.096 140.93 18.096H131.45L131.018 16.44H140.258L139.874 16.776V16.248C139.81 15.592 139.586 15.032 139.202 14.568C138.834 14.088 138.378 13.72 137.834 13.464C137.306 13.208 136.746 13.08 136.154 13.08C135.674 13.08 135.194 13.168 134.714 13.344C134.25 13.504 133.826 13.776 133.442 14.16C133.074 14.528 132.77 15.008 132.53 15.6C132.306 16.192 132.194 16.904 132.194 17.736C132.194 18.664 132.378 19.48 132.746 20.184C133.13 20.888 133.658 21.448 134.33 21.864C135.002 22.264 135.786 22.464 136.682 22.464C137.242 22.464 137.73 22.392 138.146 22.248C138.562 22.104 138.922 21.928 139.226 21.72C139.53 21.496 139.786 21.272 139.994 21.048C140.202 20.904 140.402 20.832 140.594 20.832C140.834 20.832 141.026 20.912 141.17 21.072C141.33 21.232 141.41 21.424 141.41 21.648C141.41 21.92 141.282 22.16 141.026 22.368C140.578 22.864 139.97 23.304 139.202 23.688C138.434 24.056 137.618 24.24 136.754 24.24ZM157.505 11.4C158.593 11.4 159.569 11.672 160.433 12.216C161.297 12.76 161.977 13.512 162.473 14.472C162.985 15.432 163.241 16.536 163.241 17.784C163.241 19.016 162.985 20.12 162.473 21.096C161.977 22.056 161.297 22.816 160.433 23.376C159.585 23.92 158.625 24.192 157.553 24.192C156.961 24.192 156.401 24.104 155.873 23.928C155.361 23.736 154.889 23.496 154.457 23.208C154.041 22.904 153.689 22.568 153.401 22.2C153.113 21.816 152.905 21.44 152.777 21.072L153.305 20.736V27.816C153.305 28.088 153.217 28.32 153.041 28.512C152.865 28.704 152.633 28.8 152.345 28.8C152.073 28.8 151.841 28.704 151.649 28.512C151.473 28.336 151.385 28.104 151.385 27.816V12.48C151.385 12.208 151.473 11.984 151.649 11.808C151.841 11.616 152.073 11.52 152.345 11.52C152.633 11.52 152.865 11.616 153.041 11.808C153.217 11.984 153.305 12.208 153.305 12.48V14.616L152.945 14.424C153.057 14.024 153.249 13.64 153.521 13.272C153.809 12.904 154.153 12.584 154.553 12.312C154.969 12.024 155.425 11.8 155.921 11.64C156.433 11.48 156.961 11.4 157.505 11.4ZM157.289 13.176C156.489 13.176 155.777 13.376 155.153 13.776C154.545 14.176 154.065 14.72 153.713 15.408C153.377 16.096 153.209 16.888 153.209 17.784C153.209 18.664 153.377 19.456 153.713 20.16C154.065 20.864 154.545 21.416 155.153 21.816C155.777 22.216 156.489 22.416 157.289 22.416C158.089 22.416 158.793 22.216 159.401 21.816C160.009 21.416 160.489 20.864 160.841 20.16C161.193 19.456 161.369 18.664 161.369 17.784C161.369 16.888 161.193 16.096 160.841 15.408C160.489 14.72 160.009 14.176 159.401 13.776C158.793 13.376 158.089 13.176 157.289 13.176ZM167.088 24C166.816 24 166.584 23.904 166.392 23.712C166.216 23.52 166.128 23.288 166.128 23.016V12.552C166.128 12.28 166.216 12.056 166.392 11.88C166.584 11.688 166.816 11.592 167.088 11.592C167.376 11.592 167.608 11.688 167.784 11.88C167.96 12.056 168.048 12.28 168.048 12.552V15.72L167.76 15.216C167.856 14.72 168.024 14.24 168.264 13.776C168.52 13.296 168.84 12.872 169.224 12.504C169.608 12.12 170.048 11.824 170.544 11.616C171.04 11.392 171.584 11.28 172.176 11.28C172.528 11.28 172.848 11.368 173.136 11.544C173.44 11.704 173.592 11.936 173.592 12.24C173.592 12.576 173.504 12.824 173.328 12.984C173.152 13.144 172.952 13.224 172.728 13.224C172.52 13.224 172.32 13.184 172.128 13.104C171.936 13.008 171.696 12.96 171.408 12.96C171.008 12.96 170.608 13.072 170.208 13.296C169.824 13.504 169.464 13.808 169.128 14.208C168.808 14.608 168.544 15.064 168.336 15.576C168.144 16.072 168.048 16.608 168.048 17.184V23.016C168.048 23.288 167.952 23.52 167.76 23.712C167.584 23.904 167.36 24 167.088 24ZM187.005 17.76C187.005 19.008 186.725 20.12 186.165 21.096C185.621 22.072 184.877 22.84 183.933 23.4C183.005 23.96 181.957 24.24 180.789 24.24C179.621 24.24 178.565 23.96 177.621 23.4C176.677 22.84 175.925 22.072 175.365 21.096C174.821 20.12 174.549 19.008 174.549 17.76C174.549 16.512 174.821 15.4 175.365 14.424C175.925 13.448 176.677 12.68 177.621 12.12C178.565 11.56 179.621 11.28 180.789 11.28C181.957 11.28 183.005 11.56 183.933 12.12C184.877 12.68 185.621 13.448 186.165 14.424C186.725 15.4 187.005 16.512 187.005 17.76ZM185.085 17.76C185.085 16.832 184.893 16.016 184.509 15.312C184.141 14.608 183.629 14.056 182.973 13.656C182.333 13.256 181.605 13.056 180.789 13.056C179.973 13.056 179.237 13.256 178.581 13.656C177.941 14.056 177.429 14.608 177.045 15.312C176.661 16.016 176.469 16.832 176.469 17.76C176.469 18.672 176.661 19.48 177.045 20.184C177.429 20.888 177.941 21.448 178.581 21.864C179.237 22.264 179.973 22.464 180.789 22.464C181.605 22.464 182.333 22.264 182.973 21.864C183.629 21.448 184.141 20.888 184.509 20.184C184.893 19.48 185.085 18.672 185.085 17.76ZM192.149 24.816C192.149 25.632 191.965 26.328 191.597 26.904C191.245 27.48 190.797 27.928 190.253 28.248C189.709 28.568 189.141 28.728 188.549 28.728C188.277 28.728 188.061 28.64 187.901 28.464C187.725 28.288 187.637 28.08 187.637 27.84V27.672C187.637 27.432 187.717 27.24 187.877 27.096C188.037 26.952 188.237 26.848 188.477 26.784C188.845 26.688 189.157 26.536 189.413 26.328C189.669 26.136 189.869 25.872 190.013 25.536C190.157 25.216 190.229 24.832 190.229 24.384V12.552C190.229 12.28 190.317 12.048 190.493 11.856C190.685 11.664 190.917 11.568 191.189 11.568C191.477 11.568 191.709 11.664 191.885 11.856C192.061 12.048 192.149 12.28 192.149 12.552V24.816ZM191.189 9.792C190.789 9.792 190.493 9.712 190.301 9.552C190.109 9.392 190.013 9.144 190.013 8.808V8.472C190.013 8.136 190.117 7.888 190.325 7.728C190.533 7.568 190.829 7.488 191.213 7.488C191.597 7.488 191.885 7.568 192.077 7.728C192.269 7.888 192.365 8.136 192.365 8.472V8.808C192.365 9.144 192.261 9.392 192.053 9.552C191.861 9.712 191.573 9.792 191.189 9.792ZM202.168 24.24C200.888 24.24 199.768 23.968 198.808 23.424C197.848 22.88 197.096 22.136 196.552 21.192C196.024 20.232 195.76 19.128 195.76 17.88C195.76 16.488 196.032 15.304 196.576 14.328C197.136 13.336 197.856 12.584 198.736 12.072C199.632 11.544 200.576 11.28 201.568 11.28C202.304 11.28 203.016 11.416 203.704 11.688C204.392 11.96 205 12.36 205.528 12.888C206.056 13.4 206.48 14.024 206.8 14.76C207.12 15.48 207.288 16.288 207.304 17.184C207.304 17.44 207.208 17.656 207.016 17.832C206.824 18.008 206.6 18.096 206.344 18.096H196.864L196.432 16.44H205.672L205.288 16.776V16.248C205.224 15.592 205 15.032 204.616 14.568C204.248 14.088 203.792 13.72 203.248 13.464C202.72 13.208 202.16 13.08 201.568 13.08C201.088 13.08 200.608 13.168 200.128 13.344C199.664 13.504 199.24 13.776 198.856 14.16C198.488 14.528 198.184 15.008 197.944 15.6C197.72 16.192 197.608 16.904 197.608 17.736C197.608 18.664 197.792 19.48 198.16 20.184C198.544 20.888 199.072 21.448 199.744 21.864C200.416 22.264 201.2 22.464 202.096 22.464C202.656 22.464 203.144 22.392 203.56 22.248C203.976 22.104 204.336 21.928 204.64 21.72C204.944 21.496 205.2 21.272 205.408 21.048C205.616 20.904 205.816 20.832 206.008 20.832C206.248 20.832 206.44 20.912 206.584 21.072C206.744 21.232 206.824 21.424 206.824 21.648C206.824 21.92 206.696 22.16 206.44 22.368C205.992 22.864 205.384 23.304 204.616 23.688C203.848 24.056 203.032 24.24 202.168 24.24ZM215.71 11.28C216.526 11.28 217.262 11.368 217.918 11.544C218.574 11.72 219.094 11.96 219.478 12.264C219.862 12.568 220.054 12.912 220.054 13.296C220.054 13.504 219.982 13.704 219.838 13.896C219.694 14.088 219.502 14.184 219.262 14.184C219.038 14.184 218.854 14.144 218.71 14.064C218.582 13.984 218.454 13.88 218.326 13.752C218.214 13.624 218.054 13.512 217.846 13.416C217.654 13.304 217.374 13.216 217.006 13.152C216.638 13.088 216.27 13.056 215.902 13.056C215.022 13.056 214.246 13.264 213.574 13.68C212.918 14.096 212.398 14.656 212.014 15.36C211.63 16.064 211.438 16.864 211.438 17.76C211.438 18.656 211.622 19.456 211.99 20.16C212.358 20.864 212.87 21.424 213.526 21.84C214.182 22.256 214.942 22.464 215.806 22.464C216.366 22.464 216.814 22.416 217.15 22.32C217.486 22.224 217.766 22.112 217.99 21.984C218.278 21.824 218.494 21.664 218.638 21.504C218.798 21.344 219.006 21.264 219.262 21.264C219.534 21.264 219.742 21.352 219.886 21.528C220.046 21.704 220.126 21.92 220.126 22.176C220.126 22.464 219.926 22.768 219.526 23.088C219.126 23.408 218.582 23.68 217.894 23.904C217.222 24.128 216.454 24.24 215.59 24.24C214.374 24.24 213.31 23.96 212.398 23.4C211.486 22.824 210.774 22.048 210.262 21.072C209.766 20.08 209.518 18.976 209.518 17.76C209.518 16.544 209.774 15.448 210.286 14.472C210.814 13.496 211.542 12.72 212.47 12.144C213.398 11.568 214.478 11.28 215.71 11.28ZM222.155 11.664H227.795C228.051 11.664 228.259 11.752 228.419 11.928C228.595 12.104 228.683 12.312 228.683 12.552C228.683 12.808 228.595 13.024 228.419 13.2C228.259 13.36 228.051 13.44 227.795 13.44H222.155C221.915 13.44 221.707 13.352 221.531 13.176C221.355 13 221.267 12.784 221.267 12.528C221.267 12.288 221.355 12.088 221.531 11.928C221.707 11.752 221.915 11.664 222.155 11.664ZM224.675 8.4C224.947 8.4 225.171 8.496 225.347 8.688C225.523 8.864 225.611 9.088 225.611 9.36V20.952C225.611 21.336 225.667 21.624 225.779 21.816C225.891 22.008 226.035 22.144 226.211 22.224C226.403 22.288 226.587 22.32 226.763 22.32C226.923 22.32 227.059 22.296 227.171 22.248C227.299 22.184 227.443 22.152 227.603 22.152C227.763 22.152 227.907 22.232 228.035 22.392C228.179 22.536 228.251 22.728 228.251 22.968C228.251 23.256 228.083 23.504 227.747 23.712C227.411 23.904 227.035 24 226.619 24C226.395 24 226.115 23.984 225.779 23.952C225.459 23.92 225.139 23.816 224.819 23.64C224.499 23.464 224.227 23.176 224.003 22.776C223.795 22.36 223.691 21.784 223.691 21.048V9.36C223.691 9.088 223.787 8.864 223.979 8.688C224.171 8.496 224.403 8.4 224.675 8.4ZM231.127 22.032C230.983 21.824 230.919 21.608 230.935 21.384C230.951 21.144 231.087 20.936 231.343 20.76C231.503 20.648 231.687 20.6 231.895 20.616C232.119 20.632 232.319 20.736 232.495 20.928C232.943 21.456 233.455 21.88 234.031 22.2C234.607 22.504 235.311 22.656 236.143 22.656C236.527 22.64 236.911 22.576 237.295 22.464C237.679 22.352 237.999 22.16 238.255 21.888C238.527 21.6 238.663 21.224 238.663 20.76C238.663 20.312 238.527 19.96 238.255 19.704C237.983 19.432 237.631 19.216 237.199 19.056C236.767 18.88 236.295 18.728 235.783 18.6C235.255 18.456 234.735 18.296 234.223 18.12C233.711 17.928 233.247 17.696 232.831 17.424C232.431 17.136 232.103 16.784 231.847 16.368C231.607 15.936 231.487 15.416 231.487 14.808C231.487 14.088 231.679 13.464 232.063 12.936C232.463 12.408 232.991 12 233.647 11.712C234.319 11.424 235.047 11.28 235.831 11.28C236.279 11.28 236.743 11.336 237.223 11.448C237.719 11.544 238.199 11.72 238.663 11.976C239.127 12.216 239.535 12.552 239.887 12.984C240.031 13.144 240.111 13.344 240.127 13.584C240.143 13.824 240.039 14.04 239.815 14.232C239.639 14.36 239.439 14.416 239.215 14.4C239.007 14.384 238.831 14.304 238.687 14.16C238.351 13.76 237.927 13.456 237.415 13.248C236.919 13.024 236.367 12.912 235.759 12.912C235.375 12.912 234.999 12.968 234.631 13.08C234.263 13.192 233.951 13.384 233.695 13.656C233.455 13.912 233.335 14.272 233.335 14.736C233.351 15.168 233.495 15.52 233.767 15.792C234.039 16.064 234.407 16.288 234.871 16.464C235.335 16.624 235.847 16.784 236.407 16.944C236.919 17.072 237.407 17.224 237.871 17.4C238.351 17.56 238.783 17.776 239.167 18.048C239.551 18.32 239.855 18.672 240.079 19.104C240.303 19.52 240.415 20.048 240.415 20.688C240.415 21.424 240.207 22.064 239.791 22.608C239.375 23.136 238.823 23.544 238.135 23.832C237.463 24.104 236.735 24.24 235.951 24.24C235.071 24.24 234.199 24.072 233.335 23.736C232.487 23.4 231.751 22.832 231.127 22.032Z" fill="white"/>
<path d="M38 27H150.183V28.2H38V27ZM154.505 27H186.917V28.2H154.505V27ZM192.731 27H241.423V28.2H192.731V27Z" fill="white"/>
</svg>
