<svg width="33" height="32" viewBox="0 0 33 32" fill="none" xmlns="http://www.w3.org/2000/svg">
<g clip-path="url(#clip0_6073_969)">
<mask id="mask0_6073_969" style="mask-type:luminance" maskUnits="userSpaceOnUse" x="0" y="0" width="33" height="32">
<path d="M32.3117 0H0.311653V32H32.3117V0Z" fill="white"/>
</mask>
<g mask="url(#mask0_6073_969)">
<rect x="3.50003" y="2.3999" width="24" height="24.4" rx="3" fill="white"/>
<path fill-rule="evenodd" clip-rule="evenodd" d="M25.9117 0H6.71165C3.17703 0 0.311653 2.86538 0.311653 6.4V25.6C0.311653 29.1346 3.17703 32 6.71165 32H25.9117C29.4462 32 32.3117 29.1346 32.3117 25.6V6.4C32.3117 2.86538 29.4462 0 25.9117 0ZM6.74037 6.4V8.20357L10.7896 10.3464L6.71165 12.5607V14.4L12.3117 11.2393V9.61429L6.74037 6.4ZM13.7523 14.4H20.1523V16.32H13.7523V14.4Z" fill="#404040"/>
</g>
</g>
<defs>
<clipPath id="clip0_6073_969">
<rect width="32" height="32" fill="white" transform="translate(0.311653)"/>
</clipPath>
</defs>
</svg>
