<?xml version="1.0" encoding="UTF-8"?>
<svg version="1.1" xmlns="http://www.w3.org/2000/svg" width="512" height="512">
<path d="M0 0 C0.97249695 0.00215515 1.9449939 0.0043103 2.94696045 0.00653076 C16.95150669 0.05634441 30.56437475 0.43079689 44.3125 3.3125 C45.30169434 3.50585938 46.29088867 3.69921875 47.31005859 3.8984375 C65.5545527 7.50448666 84.60945724 12.13150965 100.90875244 21.36839294 C117.04444725 30.41542129 130.86856097 32.00618868 149.13540173 31.63236165 C152.72433841 31.5730205 156.31308595 31.5864818 159.90240479 31.59190369 C166.66089753 31.59212958 173.41744198 31.53462093 180.17538667 31.4524855 C190.12264371 31.33378025 200.07032208 31.29349941 210.01820755 31.26646328 C211.11651748 31.26346308 211.11651748 31.26346308 212.23701549 31.26040226 C213.6965094 31.25648722 215.15600386 31.25276643 216.61549878 31.24924558 C220.86703178 31.23685243 225.11773131 31.20344268 229.3689599 31.15142739 C232.6179578 31.11412482 235.86709032 31.09439157 239.11621094 31.07055664 C240.28390518 31.05026901 241.45159943 31.02998138 242.65467834 31.00907898 C243.72767685 31.00427521 244.80067535 30.99947144 245.90618896 30.99452209 C247.29962839 30.97805681 247.29962839 30.97805681 248.72121811 30.96125889 C251.98579681 31.40376353 253.70769687 32.29272157 256.3125 34.3125 C256.93349248 36.92930573 256.93349248 36.92930573 256.92773914 40.1477232 C256.93769439 41.3728848 256.94764963 42.59804639 256.95790654 43.8603341 C256.9436404 45.22709981 256.9289124 46.59386076 256.91377258 47.96061707 C256.91595175 49.40689116 256.92032743 50.85316334 256.92671841 52.29942495 C256.93793206 56.28344891 256.91785376 60.26680452 256.89282811 64.25074327 C256.87128976 68.54316439 256.87853882 72.83554605 256.88233948 77.12800598 C256.88496467 84.56818298 256.86924149 92.0081412 256.84115028 99.44826317 C256.80056134 110.20546923 256.7874978 120.96256921 256.78121033 131.71984354 C256.77025989 149.1716061 256.73696541 166.62325199 256.68969727 184.07495117 C256.64382104 201.03034887 256.60841966 217.9857149 256.5871582 234.94116211 C256.58584459 235.98582239 256.58453097 237.03048267 256.58317754 238.10679933 C256.57665248 243.34741216 256.57033391 248.58802522 256.56411803 253.82863843 C256.51226171 297.32333979 256.42417607 340.81791388 256.3125 384.3125 C252.54888723 386.19430639 247.70392318 385.6450022 243.52148438 385.7421875 C239.30587039 385.78104457 239.30587039 385.78104457 235.67553711 387.63134766 C233.04683864 390.87355035 231.23043068 394.50404389 231.421875 398.72265625 C232.62698261 402.22698233 234.59827412 403.88053388 237.3125 406.375 C242.04401273 410.7368633 242.04401273 410.7368633 243.2890625 413.40625 C243.34057112 417.59561813 239.04617632 420.50434853 236.3125 423.3125 C235.24965196 424.44889333 234.18717834 425.58563693 233.125 426.72265625 C231.98080992 427.92084219 230.83496702 429.11745191 229.6875 430.3125 C229.13755371 430.90087646 228.58760742 431.48925293 228.02099609 432.09545898 C225.64552253 434.51775576 224.04628221 436.10619345 220.7421875 437.03515625 C217.17730402 435.97486132 215.38748051 433.4902453 213.0625 430.75 C209.52251097 426.80939471 209.52251097 426.80939471 204.7734375 424.69921875 C202.3458281 424.94685115 200.55142159 425.34089252 198.3125 426.3125 C197.41402344 426.66183594 196.51554687 427.01117188 195.58984375 427.37109375 C192.88849341 429.24201285 192.88849341 429.24201285 192.74609375 433.18359375 C192.72353623 434.70556257 192.72572048 436.22805768 192.75 437.75 C192.76666897 439.26944038 192.76592929 440.78919141 192.74609375 442.30859375 C192.75697021 442.98075928 192.76784668 443.6529248 192.77905273 444.34545898 C192.07028694 447.33369863 190.74076374 448.48238399 188.3125 450.3125 C185.42749023 450.79833984 185.42749023 450.79833984 182.12109375 450.7734375 C180.33348633 450.76763672 180.33348633 450.76763672 178.50976562 450.76171875 C177.26904297 450.73722656 176.02832031 450.71273438 174.75 450.6875 C173.50541016 450.68621094 172.26082031 450.68492187 170.97851562 450.68359375 C161.73400155 450.59350103 161.73400155 450.59350103 158.3125 448.3125 C157.80078125 445.0546875 157.80078125 445.0546875 157.625 441.1875 C157.52638672 439.26550781 157.52638672 439.26550781 157.42578125 437.3046875 C157.38839844 436.31726563 157.35101563 435.32984375 157.3125 434.3125 C156.67828125 434.88355469 156.0440625 435.45460938 155.390625 436.04296875 C125.20291777 462.2695818 87.47776915 478.00884242 48.75 486.5 C48.05543701 486.65509033 47.36087402 486.81018066 46.64526367 486.9699707 C31.39029342 490.14989464 16.15449746 490.68701585 0.625 490.625 C-0.34749695 490.62284485 -1.3199939 490.6206897 -2.32196045 490.61846924 C-16.32650669 490.56865559 -29.93937475 490.19420311 -43.6875 487.3125 C-44.67669434 487.11914062 -45.66588867 486.92578125 -46.68505859 486.7265625 C-84.64691502 479.22334976 -120.34129045 463.4304482 -150.6875 439.3125 C-151.58339844 438.60867188 -152.47929687 437.90484375 -153.40234375 437.1796875 C-170.08973754 423.82019577 -184.67589462 408.79037531 -197.51953125 391.7109375 C-198.04281006 391.03635498 -198.56608887 390.36177246 -199.10522461 389.66674805 C-200.6875 387.3125 -200.6875 387.3125 -202.06860352 384.15551758 C-203.9300822 380.3425751 -205.40113931 378.03004143 -208.6875 375.3125 C-215.83301752 373.23661828 -223.65038293 373.99849663 -231 374.25 C-234.05396593 374.3060074 -237.10729728 374.345151 -240.16166687 374.37049866 C-242.05623738 374.39138145 -243.95071698 374.43285496 -245.84431458 374.49705505 C-246.69917953 374.51599319 -247.55404449 374.53493134 -248.43481445 374.55444336 C-249.18567825 374.57953476 -249.93654205 374.60462616 -250.7101593 374.63047791 C-253.35738074 374.20477589 -254.0654127 373.43412455 -255.6875 371.3125 C-256.06584883 368.78250265 -256.06584883 368.78250265 -256.07061005 365.68868256 C-256.07966669 364.5106552 -256.08872333 363.33262784 -256.09805441 362.11890268 C-256.09272648 360.81843799 -256.08739856 359.5179733 -256.08190918 358.17810059 C-256.08679536 356.78758675 -256.0929839 355.39707698 -256.10036707 354.00657415 C-256.11682429 350.17675302 -256.11443702 346.34713695 -256.1089921 342.51729274 C-256.10632902 338.39043423 -256.12083999 334.26363128 -256.13308716 330.13679504 C-256.15417324 322.04885321 -256.15868023 313.96098302 -256.15689927 305.87301695 C-256.15559337 299.30178494 -256.159387 292.73057533 -256.16682434 286.15934753 C-256.16892345 284.2689449 -256.17102105 282.37854227 -256.17311716 280.48813963 C-256.17416069 279.54733941 -256.17520422 278.60653918 -256.17627937 277.63722986 C-256.19519418 259.83231364 -256.19412759 242.02743859 -256.18731004 224.22251648 C-256.18173228 207.91932286 -256.20256771 191.61628627 -256.23567051 175.31312937 C-256.26936818 158.5876928 -256.28458084 141.86233154 -256.27995348 125.13686037 C-256.27770498 115.74085567 -256.28300741 106.34499616 -256.30784607 96.94902039 C-256.3288085 88.95102331 -256.33250165 80.95325104 -256.31354648 72.9552449 C-256.30435759 68.87176448 -256.30334105 64.78870379 -256.32390213 60.70525551 C-256.34249863 56.97079916 -256.33823813 53.23710957 -256.31535631 49.50268346 C-256.30913701 47.50380345 -256.32765307 45.50489441 -256.34689283 43.50609732 C-256.33508749 42.32806996 -256.32328216 41.1500426 -256.31111908 39.93631744 C-256.31139146 38.91535681 -256.31166385 37.89439618 -256.31194448 36.84249735 C-255.6875 34.3125 -255.6875 34.3125 -253.31012976 32.4827894 C-250.39142446 31.18038297 -248.47809478 30.9590658 -245.29464722 31.00125122 C-243.68948494 31.01062462 -243.68948494 31.01062462 -242.05189514 31.02018738 C-240.30506691 31.05297539 -240.30506691 31.05297539 -238.52294922 31.08642578 C-236.67033226 31.10246101 -236.67033226 31.10246101 -234.7802887 31.11882019 C-232.09443146 31.14252734 -229.40911748 31.1713729 -226.72344589 31.20746231 C-222.44782234 31.26234104 -218.17244514 31.28322534 -213.89651489 31.29684448 C-212.42584793 31.3019133 -210.95518105 31.3070042 -209.48451424 31.31211662 C-208.74772635 31.3146525 -208.01093846 31.31718837 -207.25182366 31.31980109 C-197.30692985 31.35656258 -187.36300229 31.41949406 -177.41894531 31.55566406 C-170.70165493 31.64737722 -163.98578579 31.69062467 -157.26785481 31.68267238 C-153.72705955 31.68039299 -150.1900172 31.70030172 -146.65005112 31.78049088 C-126.30667427 32.22302666 -112.90075736 28.67707001 -95.39330006 18.77518845 C-89.71157389 15.7037881 -83.65033478 13.73963761 -77.5 11.8125 C-76.2622583 11.41289062 -75.0245166 11.01328125 -73.74926758 10.6015625 C-49.45720667 2.96829569 -25.36566585 -0.10129582 0 0 Z " fill="#FEFEFE" transform="translate(255.6875,10.6875)"/>
<path d="M0 0 C0.97249695 0.00215515 1.9449939 0.0043103 2.94696045 0.00653076 C16.95150669 0.05634441 30.56437475 0.43079689 44.3125 3.3125 C45.30169434 3.50585938 46.29088867 3.69921875 47.31005859 3.8984375 C65.5545527 7.50448666 84.60945724 12.13150965 100.90875244 21.36839294 C117.04444725 30.41542129 130.86856097 32.00618868 149.13540173 31.63236165 C152.72433841 31.5730205 156.31308595 31.5864818 159.90240479 31.59190369 C166.66089753 31.59212958 173.41744198 31.53462093 180.17538667 31.4524855 C190.12264371 31.33378025 200.07032208 31.29349941 210.01820755 31.26646328 C211.11651748 31.26346308 211.11651748 31.26346308 212.23701549 31.26040226 C213.6965094 31.25648722 215.15600386 31.25276643 216.61549878 31.24924558 C220.86703178 31.23685243 225.11773131 31.20344268 229.3689599 31.15142739 C232.6179578 31.11412482 235.86709032 31.09439157 239.11621094 31.07055664 C240.28390518 31.05026901 241.45159943 31.02998138 242.65467834 31.00907898 C243.72767685 31.00427521 244.80067535 30.99947144 245.90618896 30.99452209 C247.29962839 30.97805681 247.29962839 30.97805681 248.72121811 30.96125889 C251.98579681 31.40376353 253.70769687 32.29272157 256.3125 34.3125 C256.93349248 36.92930573 256.93349248 36.92930573 256.92773914 40.1477232 C256.93769439 41.3728848 256.94764963 42.59804639 256.95790654 43.8603341 C256.9436404 45.22709981 256.9289124 46.59386076 256.91377258 47.96061707 C256.91595175 49.40689116 256.92032743 50.85316334 256.92671841 52.29942495 C256.93793206 56.28344891 256.91785376 60.26680452 256.89282811 64.25074327 C256.87128976 68.54316439 256.87853882 72.83554605 256.88233948 77.12800598 C256.88496467 84.56818298 256.86924149 92.0081412 256.84115028 99.44826317 C256.80056134 110.20546923 256.7874978 120.96256921 256.78121033 131.71984354 C256.77025989 149.1716061 256.73696541 166.62325199 256.68969727 184.07495117 C256.64382104 201.03034887 256.60841966 217.9857149 256.5871582 234.94116211 C256.58584459 235.98582239 256.58453097 237.03048267 256.58317754 238.10679933 C256.57665248 243.34741216 256.57033391 248.58802522 256.56411803 253.82863843 C256.51226171 297.32333979 256.42417607 340.81791388 256.3125 384.3125 C252.54888723 386.19430639 247.70392318 385.6450022 243.52148438 385.7421875 C239.30587039 385.78104457 239.30587039 385.78104457 235.67553711 387.63134766 C233.04683864 390.87355035 231.23043068 394.50404389 231.421875 398.72265625 C232.62698261 402.22698233 234.59827412 403.88053388 237.3125 406.375 C242.04401273 410.7368633 242.04401273 410.7368633 243.2890625 413.40625 C243.34057112 417.59561813 239.04617632 420.50434853 236.3125 423.3125 C235.24965196 424.44889333 234.18717834 425.58563693 233.125 426.72265625 C231.98080992 427.92084219 230.83496702 429.11745191 229.6875 430.3125 C229.13755371 430.90087646 228.58760742 431.48925293 228.02099609 432.09545898 C225.64552253 434.51775576 224.04628221 436.10619345 220.7421875 437.03515625 C217.17730402 435.97486132 215.38748051 433.4902453 213.0625 430.75 C209.52251097 426.80939471 209.52251097 426.80939471 204.7734375 424.69921875 C202.3458281 424.94685115 200.55142159 425.34089252 198.3125 426.3125 C197.41402344 426.66183594 196.51554687 427.01117188 195.58984375 427.37109375 C192.88849341 429.24201285 192.88849341 429.24201285 192.74609375 433.18359375 C192.72353623 434.70556257 192.72572048 436.22805768 192.75 437.75 C192.76666897 439.26944038 192.76592929 440.78919141 192.74609375 442.30859375 C192.75697021 442.98075928 192.76784668 443.6529248 192.77905273 444.34545898 C192.07028694 447.33369863 190.74076374 448.48238399 188.3125 450.3125 C185.42749023 450.79833984 185.42749023 450.79833984 182.12109375 450.7734375 C180.33348633 450.76763672 180.33348633 450.76763672 178.50976562 450.76171875 C177.26904297 450.73722656 176.02832031 450.71273438 174.75 450.6875 C173.50541016 450.68621094 172.26082031 450.68492187 170.97851562 450.68359375 C161.73400155 450.59350103 161.73400155 450.59350103 158.3125 448.3125 C157.80078125 445.0546875 157.80078125 445.0546875 157.625 441.1875 C157.52638672 439.26550781 157.52638672 439.26550781 157.42578125 437.3046875 C157.38839844 436.31726563 157.35101563 435.32984375 157.3125 434.3125 C156.67828125 434.88355469 156.0440625 435.45460938 155.390625 436.04296875 C125.20291777 462.2695818 87.47776915 478.00884242 48.75 486.5 C48.05543701 486.65509033 47.36087402 486.81018066 46.64526367 486.9699707 C31.39029342 490.14989464 16.15449746 490.68701585 0.625 490.625 C-0.34749695 490.62284485 -1.3199939 490.6206897 -2.32196045 490.61846924 C-16.32650669 490.56865559 -29.93937475 490.19420311 -43.6875 487.3125 C-44.67669434 487.11914062 -45.66588867 486.92578125 -46.68505859 486.7265625 C-84.64691502 479.22334976 -120.34129045 463.4304482 -150.6875 439.3125 C-151.58339844 438.60867188 -152.47929687 437.90484375 -153.40234375 437.1796875 C-170.08973754 423.82019577 -184.67589462 408.79037531 -197.51953125 391.7109375 C-198.04281006 391.03635498 -198.56608887 390.36177246 -199.10522461 389.66674805 C-200.6875 387.3125 -200.6875 387.3125 -202.06860352 384.15551758 C-203.9300822 380.3425751 -205.40113931 378.03004143 -208.6875 375.3125 C-215.83301752 373.23661828 -223.65038293 373.99849663 -231 374.25 C-234.05396593 374.3060074 -237.10729728 374.345151 -240.16166687 374.37049866 C-242.05623738 374.39138145 -243.95071698 374.43285496 -245.84431458 374.49705505 C-246.69917953 374.51599319 -247.55404449 374.53493134 -248.43481445 374.55444336 C-249.18567825 374.57953476 -249.93654205 374.60462616 -250.7101593 374.63047791 C-253.35738074 374.20477589 -254.0654127 373.43412455 -255.6875 371.3125 C-256.06584883 368.78250265 -256.06584883 368.78250265 -256.07061005 365.68868256 C-256.07966669 364.5106552 -256.08872333 363.33262784 -256.09805441 362.11890268 C-256.09272648 360.81843799 -256.08739856 359.5179733 -256.08190918 358.17810059 C-256.08679536 356.78758675 -256.0929839 355.39707698 -256.10036707 354.00657415 C-256.11682429 350.17675302 -256.11443702 346.34713695 -256.1089921 342.51729274 C-256.10632902 338.39043423 -256.12083999 334.26363128 -256.13308716 330.13679504 C-256.15417324 322.04885321 -256.15868023 313.96098302 -256.15689927 305.87301695 C-256.15559337 299.30178494 -256.159387 292.73057533 -256.16682434 286.15934753 C-256.16892345 284.2689449 -256.17102105 282.37854227 -256.17311716 280.48813963 C-256.17416069 279.54733941 -256.17520422 278.60653918 -256.17627937 277.63722986 C-256.19519418 259.83231364 -256.19412759 242.02743859 -256.18731004 224.22251648 C-256.18173228 207.91932286 -256.20256771 191.61628627 -256.23567051 175.31312937 C-256.26936818 158.5876928 -256.28458084 141.86233154 -256.27995348 125.13686037 C-256.27770498 115.74085567 -256.28300741 106.34499616 -256.30784607 96.94902039 C-256.3288085 88.95102331 -256.33250165 80.95325104 -256.31354648 72.9552449 C-256.30435759 68.87176448 -256.30334105 64.78870379 -256.32390213 60.70525551 C-256.34249863 56.97079916 -256.33823813 53.23710957 -256.31535631 49.50268346 C-256.30913701 47.50380345 -256.32765307 45.50489441 -256.34689283 43.50609732 C-256.33508749 42.32806996 -256.32328216 41.1500426 -256.31111908 39.93631744 C-256.31139146 38.91535681 -256.31166385 37.89439618 -256.31194448 36.84249735 C-255.6875 34.3125 -255.6875 34.3125 -253.31012976 32.4827894 C-250.39142446 31.18038297 -248.47809478 30.9590658 -245.29464722 31.00125122 C-243.68948494 31.01062462 -243.68948494 31.01062462 -242.05189514 31.02018738 C-240.30506691 31.05297539 -240.30506691 31.05297539 -238.52294922 31.08642578 C-236.67033226 31.10246101 -236.67033226 31.10246101 -234.7802887 31.11882019 C-232.09443146 31.14252734 -229.40911748 31.1713729 -226.72344589 31.20746231 C-222.44782234 31.26234104 -218.17244514 31.28322534 -213.89651489 31.29684448 C-212.42584793 31.3019133 -210.95518105 31.3070042 -209.48451424 31.31211662 C-208.74772635 31.3146525 -208.01093846 31.31718837 -207.25182366 31.31980109 C-197.30692985 31.35656258 -187.36300229 31.41949406 -177.41894531 31.55566406 C-170.70165493 31.64737722 -163.98578579 31.69062467 -157.26785481 31.68267238 C-153.72705955 31.68039299 -150.1900172 31.70030172 -146.65005112 31.78049088 C-126.30667427 32.22302666 -112.90075736 28.67707001 -95.39330006 18.77518845 C-89.71157389 15.7037881 -83.65033478 13.73963761 -77.5 11.8125 C-76.2622583 11.41289062 -75.0245166 11.01328125 -73.74926758 10.6015625 C-49.45720667 2.96829569 -25.36566585 -0.10129582 0 0 Z M-229.63172215 62.56642324 C-230.94845041 64.74406754 -231.06241257 66.08567042 -231.06223011 68.62725163 C-231.06943665 69.51329045 -231.0766432 70.39932928 -231.08406812 71.31221777 C-231.07669383 72.28652493 -231.06931955 73.26083208 -231.0617218 74.2646637 C-231.06569621 75.29895459 -231.06967061 76.33324548 -231.07376546 77.39887851 C-231.08342707 80.88137257 -231.07154684 84.3634643 -231.05981445 87.84594727 C-231.06224112 90.33572543 -231.06595922 92.82550261 -231.07087708 95.3152771 C-231.07932604 101.38560589 -231.07375661 107.45577573 -231.06161413 113.52608628 C-231.04800844 120.59040128 -231.0496307 127.65468784 -231.05174746 134.71901261 C-231.05493877 147.32010509 -231.04326107 159.92114107 -231.02368164 172.5222168 C-231.00467282 184.75921346 -230.99759497 196.99614392 -231.00317383 209.2331543 C-231.0092266 222.54911217 -231.00906409 235.86504091 -230.997688 249.18099636 C-230.99648066 250.59983535 -230.99527468 252.01867435 -230.99407005 253.43751335 C-230.99346651 254.13566686 -230.99286298 254.83382037 -230.99224115 255.55313005 C-230.98835611 260.48147911 -230.98875787 265.40981734 -230.9906559 270.33816719 C-230.99299503 276.96600733 -230.98447624 283.59377407 -230.9685955 290.22159958 C-230.96433704 292.66055765 -230.96351251 295.09952436 -230.96628571 297.53848457 C-230.96948565 300.85485822 -230.96048116 304.17097294 -230.94819641 307.48731995 C-230.95197573 308.46385782 -230.95575506 309.4403957 -230.95964891 310.44652563 C-230.95381671 311.32995671 -230.94798452 312.2133878 -230.94197559 313.12358952 C-230.94110882 313.88975781 -230.94024204 314.6559261 -230.939349 315.44531161 C-230.84652984 317.5576311 -230.84652984 317.5576311 -228.6875 319.3125 C-226.17468725 319.63303689 -226.17468725 319.63303689 -223.1918087 319.60328865 C-222.01682269 319.61713793 -220.84183667 319.63098721 -219.63124502 319.64525616 C-218.32895314 319.65034439 -217.02666127 319.65543263 -215.68490601 319.66067505 C-214.29626824 319.67299488 -212.90763764 319.68614658 -211.51901495 319.70006263 C-207.68932116 319.73572749 -203.85964062 319.75857518 -200.02983999 319.779176 C-196.74793935 319.79842698 -193.46611519 319.82505543 -190.18426763 319.85171391 C-178.42243882 319.94699752 -166.66050144 320.01221797 -154.8984375 320.0703125 C-153.9698052 320.07492766 -153.04117291 320.07954282 -152.08440024 320.08429784 C-133.64029782 320.17520939 -115.19614781 320.25224661 -96.75189781 320.30575752 C-92.69429845 320.31773565 -88.63669973 320.32990692 -84.57910156 320.34228516 C-83.57061112 320.34535112 -82.56212069 320.34841708 -81.52306993 320.35157596 C-65.20873679 320.40293426 -48.89544086 320.51662429 -32.58164041 320.65521576 C-15.8256927 320.79638412 0.9297202 320.87666087 17.68625295 320.89925659 C27.09181004 320.91355113 36.49556863 320.95481922 45.90053177 321.06531143 C53.91655445 321.15941868 61.93050847 321.19864245 69.94706358 321.16754843 C74.03370634 321.15338933 78.11592772 321.16448232 82.20186424 321.2467041 C101.54444906 322.15619261 101.54444906 322.15619261 118.01064336 313.45942295 C120.50214551 310.70415311 122.75168046 307.85238966 124.79827821 304.75192153 C126.3125 303.3125 126.3125 303.3125 128.84249651 302.97915852 C132.35822428 303.45362663 133.57040959 305.10891698 135.9375 307.6875 C138.35909411 310.29092029 140.34190759 312.33210506 143.3125 314.3125 C149.16958251 313.98096703 154.10323582 312.52176418 158.3125 308.3125 C158.66457936 306.39571729 158.66457936 306.39571729 158.69140625 304.21484375 C158.72556641 303.41369141 158.75972656 302.61253906 158.79492188 301.78710938 C158.82134766 300.94986328 158.84777344 300.11261719 158.875 299.25 C159.19256757 290.43243243 159.19256757 290.43243243 160.3125 289.3125 C162.44603174 289.21246711 164.58287542 289.18168952 166.71875 289.1796875 C168.01941406 289.17839844 169.32007813 289.17710937 170.66015625 289.17578125 C171.68133545 289.17892334 171.68133545 289.17892334 172.72314453 289.18212891 C174.80378515 289.1874776 176.88420989 289.1821832 178.96484375 289.17578125 C180.91583984 289.17771484 180.91583984 289.17771484 182.90625 289.1796875 C184.10958984 289.18081543 185.31292969 289.18194336 186.55273438 289.18310547 C189.3125 289.3125 189.3125 289.3125 190.3125 290.3125 C190.44859418 293.83582714 190.56046021 297.35290496 190.56640625 300.87890625 C190.70646269 305.14694187 190.92913856 306.83922969 193.7109375 310.2734375 C197.52675938 313.26421681 199.7596064 314.37962274 204.65625 314.16796875 C209.08727926 313.13122152 210.47511076 311.63626808 213.4375 308.25 C217.653891 303.44762495 217.653891 303.44762495 220.8828125 302.78515625 C223.92522693 303.44548736 224.99978515 304.51248167 227.0625 306.8125 C228.1357702 307.98843083 229.21657456 309.15765384 230.3125 310.3125 C230.6425 310.3125 230.9725 310.3125 231.3125 310.3125 C231.38089463 279.02463159 231.43400669 247.73678289 231.46569599 216.4488575 C231.46944824 212.75749016 231.47333119 209.06612297 231.47729492 205.37475586 C231.47808185 204.63985156 231.47886878 203.90494725 231.47967956 203.14777312 C231.49274392 191.23843508 231.5164034 179.32914035 231.54395839 167.41982802 C231.57198399 155.2055122 231.58867022 142.99121911 231.59476548 130.77687246 C231.59888785 123.23611859 231.61192158 115.69548714 231.6362494 108.15477095 C231.65393823 102.37868759 231.65587283 96.60268319 231.65182304 90.82657814 C231.65265139 88.45253366 231.65865849 86.07848474 231.67011642 83.70446777 C231.68495077 80.47359654 231.68148666 77.24325736 231.67326355 74.01237488 C231.68200207 73.06394012 231.6907406 72.11550537 231.69974393 71.13833016 C231.69377078 70.2754417 231.68779764 69.41255325 231.68164349 68.52351665 C231.68278265 67.77736621 231.68392181 67.03121576 231.68509549 66.26245469 C231.42047851 64.26228486 231.42047851 64.26228486 230.25707132 62.57290667 C227.27841235 60.64223866 224.26523717 60.90160021 220.83021545 60.93497658 C219.67152374 60.92843609 219.67152374 60.92843609 218.48942411 60.92176348 C215.87957474 60.91074311 213.27024663 60.92126053 210.66040039 60.93154907 C208.77903757 60.92809518 206.89767677 60.92333244 205.01632023 60.91736734 C199.82971785 60.90479072 194.6432801 60.91105787 189.45667696 60.92032599 C183.86969645 60.92708899 178.28274506 60.91664896 172.69577026 60.90838623 C161.74427185 60.89501722 150.79283497 60.89794071 139.8413341 60.90662415 C130.94411382 60.91338786 122.04691083 60.91432312 113.14968872 60.9110527 C111.25325059 60.91036316 111.25325059 60.91036316 109.31850058 60.90965968 C106.75045037 60.90870054 104.18240016 60.9077279 101.61434996 60.9067419 C78.19785671 60.89842304 54.78140301 60.90706314 31.36491741 60.92276969 C9.97600766 60.93700714 -11.41284852 60.93573328 -32.80175781 60.92138672 C-56.81725324 60.90533233 -80.83271517 60.89900279 -104.84821796 60.90822351 C-107.40704154 60.9091792 -109.96586513 60.91012231 -112.52468872 60.9110527 C-114.41337949 60.91174694 -114.41337949 60.91174694 -116.34022564 60.91245521 C-125.23104599 60.91505001 -134.12184738 60.91066357 -143.01266479 60.90361404 C-153.84145421 60.89521698 -164.67017836 60.89744129 -175.49896026 60.91345628 C-181.02836689 60.92136322 -186.55766454 60.92438951 -192.08707047 60.91450882 C-197.14253974 60.90561138 -202.19779834 60.91041248 -207.25324833 60.92644148 C-209.08832563 60.92981039 -210.9234205 60.92804832 -212.75848663 60.92081411 C-215.24098746 60.91177349 -217.72275387 60.92096379 -220.20521545 60.93497658 C-220.92805839 60.92795308 -221.65090133 60.92092958 -222.3956486 60.91369325 C-225.21916502 60.94584275 -227.22460868 61.01395892 -229.63172215 62.56642324 Z " fill="#293D7C" transform="translate(255.6875,10.6875)"/>
<path d="M0 0 C1.29292969 -0.00257813 2.58585937 -0.00515625 3.91796875 -0.0078125 C4.59263184 -0.00362305 5.26729492 0.00056641 5.96240234 0.00488281 C8.02341157 0.0155843 10.08354919 0.00498557 12.14453125 -0.0078125 C13.43746094 -0.00523437 14.73039062 -0.00265625 16.0625 0 C17.25423828 0.00225586 18.44597656 0.00451172 19.67382812 0.00683594 C22.53125 0.265625 22.53125 0.265625 24.53125 2.265625 C24.79054769 5.84393309 24.89780911 9.38293266 24.921875 12.96875 C25.05223387 17.70127888 25.05223387 17.70127888 27.42578125 21.72265625 C31.02811474 24.36258525 33.35757646 25.31492751 37.87890625 25.125 C42.30457469 24.08366625 43.69632494 22.58657632 46.65625 19.203125 C50.90144561 14.36794215 50.90144561 14.36794215 53.890625 13.88232422 C59.26993922 14.66316033 62.7431914 19.72756614 66.40625 23.453125 C67.74429688 24.74959961 67.74429688 24.74959961 69.109375 26.07226562 C69.94726562 26.91337891 70.78515625 27.75449219 71.6484375 28.62109375 C72.41784668 29.39090576 73.18725586 30.16071777 73.97998047 30.95385742 C75.53125 33.265625 75.53125 33.265625 75.41674805 35.90405273 C73.81610021 40.17288828 70.04653438 42.63658309 66.68359375 45.5703125 C64.21987213 48.16304166 64.21987213 48.16304166 64.13671875 51.84375 C64.62095337 56.04364631 65.59286585 58.53796317 67.53125 62.265625 C69.76924705 63.38462352 71.10977274 63.43039807 73.59375 63.51171875 C74.39039063 63.54458984 75.18703125 63.57746094 76.0078125 63.61132812 C77.68996678 63.67252104 79.37226747 63.72981363 81.0546875 63.78320312 C81.85132813 63.81736328 82.64796875 63.85152344 83.46875 63.88671875 C84.56509766 63.92430298 84.56509766 63.92430298 85.68359375 63.96264648 C87.53125 64.265625 87.53125 64.265625 89.53125 66.265625 C89.75830078 69.24658203 89.75830078 69.24658203 89.7265625 73.0234375 C89.72231766 74.01801468 89.72231766 74.01801468 89.71798706 75.03268433 C89.70678435 77.15218083 89.68168051 79.27125604 89.65625 81.390625 C89.64622028 82.82681682 89.63709441 84.26301525 89.62890625 85.69921875 C89.606845 89.22149128 89.57231494 92.74351703 89.53125 96.265625 C85.76763723 98.14743139 80.92267318 97.5981272 76.74023438 97.6953125 C72.52462039 97.73416957 72.52462039 97.73416957 68.89428711 99.58447266 C66.26558864 102.82667535 64.44918068 106.45716889 64.640625 110.67578125 C65.84573261 114.18010733 67.81702412 115.83365888 70.53125 118.328125 C75.26276273 122.6899883 75.26276273 122.6899883 76.5078125 125.359375 C76.55932112 129.54874313 72.26492632 132.45747353 69.53125 135.265625 C68.46840196 136.40201833 67.40592834 137.53876193 66.34375 138.67578125 C65.19955992 139.87396719 64.05371702 141.07057691 62.90625 142.265625 C62.35630371 142.85400146 61.80635742 143.44237793 61.23974609 144.04858398 C58.86427253 146.47088076 57.26503221 148.05931845 53.9609375 148.98828125 C50.39605402 147.92798632 48.60623051 145.4433703 46.28125 142.703125 C42.74126097 138.76251971 42.74126097 138.76251971 37.9921875 136.65234375 C35.5645781 136.89997615 33.77017159 137.29401752 31.53125 138.265625 C30.63277344 138.61496094 29.73429687 138.96429688 28.80859375 139.32421875 C26.10724341 141.19513785 26.10724341 141.19513785 25.96484375 145.13671875 C25.94228623 146.65868757 25.94447048 148.18118268 25.96875 149.703125 C25.98541897 151.22256538 25.98467929 152.74231641 25.96484375 154.26171875 C25.97572021 154.93388428 25.98659668 155.6060498 25.99780273 156.29858398 C25.28903694 159.28682363 23.95951374 160.43550899 21.53125 162.265625 C18.64624023 162.75146484 18.64624023 162.75146484 15.33984375 162.7265625 C14.14810547 162.72269531 12.95636719 162.71882812 11.72851562 162.71484375 C10.48779297 162.69035156 9.24707031 162.66585937 7.96875 162.640625 C6.72416016 162.63933594 5.47957031 162.63804687 4.19726562 162.63671875 C-5.04724845 162.54662603 -5.04724845 162.54662603 -8.46875 160.265625 C-8.98046875 157.0078125 -8.98046875 157.0078125 -9.15625 153.140625 C-9.22199219 151.85929688 -9.28773438 150.57796875 -9.35546875 149.2578125 C-9.39285156 148.27039063 -9.43023437 147.28296875 -9.46875 146.265625 C-10.10296875 146.83667969 -10.7371875 147.40773438 -11.390625 147.99609375 C-41.57833223 174.2227068 -79.30348085 189.96196742 -118.03125 198.453125 C-118.72581299 198.60821533 -119.42037598 198.76330566 -120.13598633 198.9230957 C-135.39095658 202.10301964 -150.62675254 202.64014085 -166.15625 202.578125 C-167.12874695 202.57596985 -168.1012439 202.5738147 -169.10321045 202.57159424 C-183.10775669 202.52178059 -196.72062475 202.14732811 -210.46875 199.265625 C-211.45794434 199.07226562 -212.44713867 198.87890625 -213.46630859 198.6796875 C-251.42816502 191.17647476 -287.12254045 175.3835732 -317.46875 151.265625 C-318.36464844 150.56179688 -319.26054687 149.85796875 -320.18359375 149.1328125 C-341.91331469 131.73656532 -360.96244857 111.10679714 -375.46875 87.265625 C-375.46875 86.935625 -375.46875 86.605625 -375.46875 86.265625 C-321.34875 86.265625 -267.22875 86.265625 -211.46875 86.265625 C-211.46875 100.125625 -211.46875 113.985625 -211.46875 128.265625 C-232.40625 128.703125 -232.40625 128.703125 -239.02319336 128.83374023 C-240.74333543 128.8718464 -242.46346955 128.91031408 -244.18359375 128.94921875 C-245.536203 128.9739325 -245.536203 128.9739325 -246.9161377 128.99914551 C-251.01988255 128.68635032 -251.01988255 128.68635032 -254.46875 130.265625 C-254.56858058 132.25319528 -254.59955753 134.2443002 -254.6015625 136.234375 C-254.60285156 137.44480469 -254.60414063 138.65523437 -254.60546875 139.90234375 C-254.60160156 141.17722656 -254.59773438 142.45210937 -254.59375 143.765625 C-254.59761719 145.04050781 -254.60148437 146.31539062 -254.60546875 147.62890625 C-254.60417969 148.83933594 -254.60289062 150.04976562 -254.6015625 151.296875 C-254.59987061 152.97620117 -254.59987061 152.97620117 -254.59814453 154.68945312 C-254.76091368 157.19704302 -254.76091368 157.19704302 -253.46875 158.265625 C-251.23080348 158.36487017 -248.98965765 158.39194928 -246.74951172 158.39260864 C-246.03882475 158.39416863 -245.32813778 158.39572862 -244.59591484 158.39733589 C-242.1967351 158.40134829 -239.7976178 158.39815533 -237.3984375 158.39501953 C-235.68564822 158.39637347 -233.97285923 158.39815335 -232.2600708 158.40032959 C-227.59491518 158.40490485 -222.92978157 158.40311398 -218.26462555 158.3999505 C-213.39370156 158.39742738 -208.52277952 158.39976431 -203.65185547 158.40133667 C-195.47037414 158.40315851 -187.28890183 158.40075169 -179.10742188 158.39599609 C-169.63425665 158.39055345 -160.16111293 158.39231609 -150.68794823 158.3978225 C-142.56993106 158.40235323 -134.45192038 158.40300437 -126.33390236 158.40038383 C-121.47859977 158.39882083 -116.62330732 158.3986279 -111.76800537 158.40192032 C-107.2044651 158.40479846 -102.64095271 158.40282441 -98.07741547 158.39702606 C-96.39755042 158.39569815 -94.71768305 158.3960931 -93.03781891 158.39828873 C-90.75450982 158.40099904 -88.4712915 158.3976206 -86.18798828 158.39260864 C-84.90707306 158.39223162 -83.62615784 158.39185459 -82.306427 158.39146614 C-79.56803129 158.58993481 -79.56803129 158.58993481 -78.46875 157.265625 C-78.38116997 155.26597518 -78.36178424 153.2632639 -78.37109375 151.26171875 C-78.37592773 149.43930664 -78.37592773 149.43930664 -78.38085938 147.58007812 C-78.38923828 146.30068359 -78.39761719 145.02128906 -78.40625 143.703125 C-78.41301758 141.77823242 -78.41301758 141.77823242 -78.41992188 139.81445312 C-78.43175455 136.63146478 -78.44823932 133.44856738 -78.46875 130.265625 C-81.90325639 128.5483718 -85.84916761 129.02046038 -89.6328125 128.94921875 C-90.83877075 128.92124207 -90.83877075 128.92124207 -92.0690918 128.8927002 C-95.07719761 128.82431485 -98.08548733 128.76422213 -101.09375 128.703125 C-107.8175 128.55875 -114.54125 128.414375 -121.46875 128.265625 C-121.46875 114.405625 -121.46875 100.545625 -121.46875 86.265625 C-105.62875 86.265625 -89.78875 86.265625 -73.46875 86.265625 C-73.46875 79.995625 -73.46875 73.725625 -73.46875 67.265625 C-69.27470544 63.07158044 -65.22301707 63.80365483 -59.62890625 63.73828125 C-55.44201502 63.76464985 -55.44201502 63.76464985 -51.83398438 61.95117188 C-49.21373329 58.71615515 -47.41493405 55.08938777 -47.5390625 50.8828125 C-49.03156835 46.6812204 -52.4160027 44.22649277 -55.6953125 41.37109375 C-57.1953125 39.984375 -57.1953125 39.984375 -59.46875 37.265625 C-59.15344428 30.79921928 -54.05186014 27.2288653 -49.71875 22.953125 C-48.90664063 22.11716797 -48.09453125 21.28121094 -47.2578125 20.41992188 C-46.46632813 19.63037109 -45.67484375 18.84082031 -44.859375 18.02734375 C-44.13782227 17.30506592 -43.41626953 16.58278809 -42.67285156 15.83862305 C-40.01001983 13.93824369 -38.6737496 13.78774432 -35.46875 14.265625 C-33.1171875 16.1640625 -33.1171875 16.1640625 -30.84375 18.640625 C-28.42215589 21.24404529 -26.43934241 23.28523006 -23.46875 25.265625 C-18.45971677 24.98209482 -13.16463614 23.96151114 -9.46875 20.265625 C-9.23131524 16.44028717 -9.07207034 12.62143271 -8.95117188 8.79101562 C-8.91701172 7.98986328 -8.88285156 7.18871094 -8.84765625 6.36328125 C-8.8226001 5.62601807 -8.79754395 4.88875488 -8.77172852 4.12915039 C-7.97416967 -0.77638277 -4.03386708 0.00763577 0 0 Z " fill="#F14975" transform="translate(422.46875,298.734375)"/>
<path d="M0 0 C1.29292969 -0.00257813 2.58585937 -0.00515625 3.91796875 -0.0078125 C4.59263184 -0.00362305 5.26729492 0.00056641 5.96240234 0.00488281 C8.02341157 0.0155843 10.08354919 0.00498557 12.14453125 -0.0078125 C13.43746094 -0.00523437 14.73039062 -0.00265625 16.0625 0 C17.25423828 0.00225586 18.44597656 0.00451172 19.67382812 0.00683594 C22.53125 0.265625 22.53125 0.265625 24.53125 2.265625 C24.79054769 5.84393309 24.89780911 9.38293266 24.921875 12.96875 C25.05223387 17.70127888 25.05223387 17.70127888 27.42578125 21.72265625 C31.02811474 24.36258525 33.35757646 25.31492751 37.87890625 25.125 C42.30457469 24.08366625 43.69632494 22.58657632 46.65625 19.203125 C50.90144561 14.36794215 50.90144561 14.36794215 53.890625 13.88232422 C59.26993922 14.66316033 62.7431914 19.72756614 66.40625 23.453125 C67.74429688 24.74959961 67.74429688 24.74959961 69.109375 26.07226562 C69.94726562 26.91337891 70.78515625 27.75449219 71.6484375 28.62109375 C72.41784668 29.39090576 73.18725586 30.16071777 73.97998047 30.95385742 C75.53125 33.265625 75.53125 33.265625 75.41674805 35.90405273 C73.81610021 40.17288828 70.04653438 42.63658309 66.68359375 45.5703125 C64.21987213 48.16304166 64.21987213 48.16304166 64.13671875 51.84375 C64.62095337 56.04364631 65.59286585 58.53796317 67.53125 62.265625 C69.76924705 63.38462352 71.10977274 63.43039807 73.59375 63.51171875 C74.39039063 63.54458984 75.18703125 63.57746094 76.0078125 63.61132812 C77.68996678 63.67252104 79.37226747 63.72981363 81.0546875 63.78320312 C81.85132813 63.81736328 82.64796875 63.85152344 83.46875 63.88671875 C84.56509766 63.92430298 84.56509766 63.92430298 85.68359375 63.96264648 C87.53125 64.265625 87.53125 64.265625 89.53125 66.265625 C89.75830078 69.24658203 89.75830078 69.24658203 89.7265625 73.0234375 C89.7237326 73.68648895 89.72090271 74.34954041 89.71798706 75.03268433 C89.70678435 77.15218083 89.68168051 79.27125604 89.65625 81.390625 C89.64622028 82.82681682 89.63709441 84.26301525 89.62890625 85.69921875 C89.606845 89.22149128 89.57231494 92.74351703 89.53125 96.265625 C85.76763723 98.14743139 80.92267318 97.5981272 76.74023438 97.6953125 C72.52462039 97.73416957 72.52462039 97.73416957 68.89428711 99.58447266 C66.26558864 102.82667535 64.44918068 106.45716889 64.640625 110.67578125 C65.84573261 114.18010733 67.81702412 115.83365888 70.53125 118.328125 C75.26276273 122.6899883 75.26276273 122.6899883 76.5078125 125.359375 C76.55932112 129.54874313 72.26492632 132.45747353 69.53125 135.265625 C68.46840196 136.40201833 67.40592834 137.53876193 66.34375 138.67578125 C65.19955992 139.87396719 64.05371702 141.07057691 62.90625 142.265625 C62.35630371 142.85400146 61.80635742 143.44237793 61.23974609 144.04858398 C58.86427253 146.47088076 57.26503221 148.05931845 53.9609375 148.98828125 C50.39605402 147.92798632 48.60623051 145.4433703 46.28125 142.703125 C42.74126097 138.76251971 42.74126097 138.76251971 37.9921875 136.65234375 C35.5645781 136.89997615 33.77017159 137.29401752 31.53125 138.265625 C30.63277344 138.61496094 29.73429687 138.96429688 28.80859375 139.32421875 C26.10724341 141.19513785 26.10724341 141.19513785 25.96484375 145.13671875 C25.94228623 146.65868757 25.94447048 148.18118268 25.96875 149.703125 C25.98541897 151.22256538 25.98467929 152.74231641 25.96484375 154.26171875 C25.98115845 155.26996704 25.98115845 155.26996704 25.99780273 156.29858398 C25.28903694 159.28682363 23.95951374 160.43550899 21.53125 162.265625 C18.64624023 162.75146484 18.64624023 162.75146484 15.33984375 162.7265625 C14.14810547 162.72269531 12.95636719 162.71882812 11.72851562 162.71484375 C10.48779297 162.69035156 9.24707031 162.66585937 7.96875 162.640625 C6.72416016 162.63933594 5.47957031 162.63804687 4.19726562 162.63671875 C-5.04724845 162.54662603 -5.04724845 162.54662603 -8.46875 160.265625 C-8.83764648 158.34204102 -8.83764648 158.34204102 -8.83984375 156.01953125 C-8.85724609 155.18228516 -8.87464844 154.34503906 -8.89257812 153.48242188 C-8.90167251 151.71681261 -8.90689815 149.95117907 -8.90820312 148.18554688 C-8.8468678 143.24388132 -8.8468678 143.24388132 -11.3515625 139.2421875 C-12.05023438 138.91992188 -12.74890625 138.59765625 -13.46875 138.265625 C-14.273125 137.87375 -15.0775 137.481875 -15.90625 137.078125 C-18.75551661 136.174699 -20.49593502 135.9038308 -23.46875 136.265625 C-26.16838891 138.14329318 -26.16838891 138.14329318 -28.65625 140.640625 C-29.94595703 141.85878906 -29.94595703 141.85878906 -31.26171875 143.1015625 C-32.67056646 144.48298132 -34.07354933 145.87042433 -35.46875 147.265625 C-38.75553372 147.79232229 -40.06520895 147.55424954 -42.79638672 145.60083008 C-45.3283732 143.10800344 -47.85254811 140.61183256 -50.34375 138.078125 C-51.68179687 136.78165039 -51.68179687 136.78165039 -53.046875 135.45898438 C-53.88476562 134.61787109 -54.72265625 133.77675781 -55.5859375 132.91015625 C-56.74005127 131.75543823 -56.74005127 131.75543823 -57.91748047 130.57739258 C-59.46875 128.265625 -59.46875 128.265625 -59.35205078 125.6315918 C-57.74754641 121.33384391 -54.04432808 118.7888778 -50.71875 115.765625 C-48.29427778 113.07176698 -47.57588405 111.85179623 -47.46875 108.265625 C-48.11579099 105.8112677 -48.11579099 105.8112677 -49.28125 103.515625 C-49.81685547 102.34773438 -49.81685547 102.34773438 -50.36328125 101.15625 C-51.33038182 99.10714683 -51.33038182 99.10714683 -53.46875 98.265625 C-57.06649302 98.06636539 -60.65770176 97.91963691 -64.25976562 97.8359375 C-69.9678386 97.59994482 -69.9678386 97.59994482 -72.19018555 96.11669922 C-74.03251803 93.44941549 -73.8572478 91.39233907 -73.8671875 88.171875 C-73.87105469 86.97691406 -73.87492187 85.78195312 -73.87890625 84.55078125 C-73.86730469 83.30167969 -73.85570312 82.05257812 -73.84375 80.765625 C-73.85535156 79.51652344 -73.86695313 78.26742187 -73.87890625 76.98046875 C-73.87503906 75.78550781 -73.87117188 74.59054687 -73.8671875 73.359375 C-73.86380371 72.26302734 -73.86041992 71.16667969 -73.85693359 70.03710938 C-73.46875 67.265625 -73.46875 67.265625 -72.18798828 65.41015625 C-68.68425255 63.07764942 -63.73896766 63.78631202 -59.62890625 63.73828125 C-55.44201502 63.76464985 -55.44201502 63.76464985 -51.83398438 61.95117188 C-49.21373329 58.71615515 -47.41493405 55.08938777 -47.5390625 50.8828125 C-49.03156835 46.6812204 -52.4160027 44.22649277 -55.6953125 41.37109375 C-57.1953125 39.984375 -57.1953125 39.984375 -59.46875 37.265625 C-59.15344428 30.79921928 -54.05186014 27.2288653 -49.71875 22.953125 C-48.90664063 22.11716797 -48.09453125 21.28121094 -47.2578125 20.41992188 C-46.46632813 19.63037109 -45.67484375 18.84082031 -44.859375 18.02734375 C-44.13782227 17.30506592 -43.41626953 16.58278809 -42.67285156 15.83862305 C-40.01001983 13.93824369 -38.6737496 13.78774432 -35.46875 14.265625 C-33.1171875 16.1640625 -33.1171875 16.1640625 -30.84375 18.640625 C-28.42215589 21.24404529 -26.43934241 23.28523006 -23.46875 25.265625 C-18.45971677 24.98209482 -13.16463614 23.96151114 -9.46875 20.265625 C-9.23131524 16.44028717 -9.07207034 12.62143271 -8.95117188 8.79101562 C-8.91701172 7.98986328 -8.88285156 7.18871094 -8.84765625 6.36328125 C-8.81007202 5.25738647 -8.81007202 5.25738647 -8.77172852 4.12915039 C-7.97416967 -0.77638277 -4.03386708 0.00763577 0 0 Z " fill="#FE9418" transform="translate(422.46875,298.734375)"/>
<path d="M0 0 C0.72284294 0.0070235 1.44568588 0.014047 2.19043314 0.02128333 C2.96289429 0.01692301 3.73535543 0.01256268 4.53122449 0.00807023 C7.14107386 -0.00295014 9.75040197 0.00756728 12.36024821 0.01785582 C14.24161103 0.01440193 16.12297183 0.00963919 18.00432837 0.00367409 C23.19093075 -0.00890253 28.3773685 -0.00263537 33.56397164 0.00663275 C39.15095215 0.01339574 44.73790353 0.00295571 50.32487833 -0.00530702 C61.27637675 -0.01867603 72.22781363 -0.01575254 83.17931449 -0.0070691 C92.07653478 -0.00030539 100.97373776 0.00062987 109.87095988 -0.00264055 C111.13525196 -0.00310024 112.39954405 -0.00355994 113.70214802 -0.00403357 C116.27019823 -0.00499271 118.83824844 -0.00596535 121.40629864 -0.00695135 C144.82279189 -0.01527021 168.23924559 -0.00663011 191.65573119 0.00907644 C213.04464094 0.02331389 234.43349712 0.02204003 255.82240641 0.00769347 C279.83790184 -0.00836092 303.85336377 -0.01469046 327.86886656 -0.00546974 C330.42769014 -0.00451405 332.98651373 -0.00357094 335.54533732 -0.00264055 C336.8044645 -0.00217772 338.06359168 -0.00171489 339.36087424 -0.00123804 C348.25169458 0.00135676 357.14249598 -0.00302968 366.03331339 -0.01007921 C376.86210281 -0.01847627 387.69082696 -0.01625196 398.51960886 -0.00023697 C404.04901549 0.00766997 409.57831313 0.01069626 415.10771906 0.00081557 C420.16318834 -0.00808187 425.21844694 -0.00328077 430.27389693 0.01274823 C432.10897423 0.01611714 433.9440691 0.01435507 435.77913523 0.00712086 C438.26163606 -0.00191976 440.74340247 0.00727054 443.22586405 0.02128333 C443.94870699 0.01425983 444.67154993 0.00723633 445.4162972 0 C448.24384645 0.03219542 450.24540426 0.09887121 452.65271991 1.65921342 C453.95544814 3.80641424 454.08112016 5.1024349 454.07729208 7.60982341 C454.08326523 8.47271186 454.08923838 9.33560032 454.09539253 10.22463691 C454.086654 11.17307167 454.07791548 12.12150643 454.06891215 13.09868163 C454.07147542 14.10579878 454.0740387 15.11291594 454.07667965 16.1505518 C454.08163943 19.54099973 454.06508821 22.93100695 454.04872477 26.32141417 C454.04787897 28.74547107 454.04835271 31.16952874 454.05005229 33.59358519 C454.05073647 38.8204985 454.04220171 44.04731128 454.02533877 49.27419394 C454.00097357 56.8314085 453.99314605 64.38856871 453.98937479 71.94581828 C453.98280641 84.20646435 453.96283476 96.46705059 453.93446696 108.72766417 C453.9069364 120.63879394 453.88569792 132.54990746 453.87294352 144.46106261 C453.87215535 145.19507535 453.87136718 145.92908809 453.87055513 146.68534365 C453.86664006 150.36761317 453.86284892 154.04988281 453.85911942 157.73215252 C453.82801145 188.28774676 453.77494237 218.84326846 453.7081486 249.39880675 C453.3781486 249.39880675 453.0481486 249.39880675 452.7081486 249.39880675 C452.7081486 176.79880675 452.7081486 104.19880675 452.7081486 29.39880675 C300.5781486 29.39880675 148.4481486 29.39880675 -8.2918514 29.39880675 C-8.2918514 20.81880675 -8.2918514 12.23880675 -8.2918514 3.39880675 C-5.06661912 0.17357447 -4.31959768 0.04918438 0 0 Z " fill="#5EC0D7" transform="translate(33.29185140132904,71.60119324922562)"/>
<path d="M0 0 C1.2684375 0.8353125 1.2684375 0.8353125 2.5625 1.6875 C10.96396954 9.65812495 16.45775632 20.38347183 17 32 C17.07476562 32.89332031 17.14953125 33.78664063 17.2265625 34.70703125 C17.87066751 47.63998183 12.43192741 58.43330853 4 68 C-5.53928938 77.37996931 -18.280648 80.33778211 -31.16918945 80.38500977 C-43.88979231 80.17389363 -52.94612065 74.84012543 -61.93359375 66.125 C-71.02723173 56.42511949 -74.54132728 45.15526228 -74.2421875 32.04296875 C-73.26494836 19.76443185 -67.3406312 9.26441119 -58.42578125 0.8515625 C-40.36469826 -12.93419167 -18.51974325 -13.07025558 0 0 Z " fill="#FEAD10" transform="translate(459,344)"/>
<path d="M0 0 C0.70604671 -0.00311998 1.41209342 -0.00623996 2.13953549 -0.00945449 C4.51718469 -0.01746352 6.89458073 -0.01109965 9.27223206 -0.00482178 C10.97207286 -0.00753038 12.67191249 -0.01109057 14.37174988 -0.01544189 C18.9977475 -0.02458445 23.62365624 -0.0210138 28.24965549 -0.01468372 C33.08360461 -0.00963254 37.91754595 -0.01431279 42.75149536 -0.01745605 C50.87154003 -0.02109863 58.99154837 -0.01628935 67.11158752 -0.0067749 C76.50693502 0.00410654 85.9021957 0.00058749 95.29754108 -0.01042771 C103.35446938 -0.01949667 111.41137151 -0.02078767 119.46830326 -0.01555037 C124.28454166 -0.01242805 129.10073923 -0.01202845 133.91697502 -0.01862335 C138.44527255 -0.02439037 142.97345793 -0.02041174 147.50174332 -0.00883484 C149.16625469 -0.00618464 150.83077546 -0.00695945 152.49528313 -0.01136017 C154.76260893 -0.01680304 157.02957245 -0.009997 159.296875 0 C160.56727347 0.00075405 161.83767195 0.0015081 163.14656734 0.002285 C166.21192932 0.25396729 166.21192932 0.25396729 169.21192932 2.25396729 C169.58424377 4.92779541 169.58424377 4.92779541 169.57521057 8.28521729 C169.57424377 10.08926025 169.57424377 10.08926025 169.57325745 11.92974854 C169.55714417 13.19174072 169.54103088 14.45373291 169.52442932 15.75396729 C169.52765198 17.01595947 169.53087463 18.27795166 169.53419495 19.57818604 C169.47872935 28.98716725 169.47872935 28.98716725 167.21192932 31.25396729 C164.2539978 31.50564957 164.2539978 31.50564957 160.37916565 31.50793457 C159.31291191 31.51261454 159.31291191 31.51261454 158.22511768 31.51738906 C155.83131553 31.52539822 153.43776483 31.51903419 151.04396057 31.51275635 C149.33264517 31.51546492 147.62133093 31.51902509 145.91001892 31.52337646 C141.25309788 31.53251868 136.59626514 31.52894869 131.9393425 31.52261829 C127.07422898 31.51756776 122.2091232 31.5222471 117.3440094 31.52539062 C109.1726902 31.52903304 101.00140711 31.52422396 92.83009338 31.51470947 C83.3722421 31.5038244 73.91447704 31.50734978 64.45662785 31.51836228 C56.34791098 31.52742733 48.23922013 31.52872428 40.13049984 31.52348495 C35.28243534 31.52036093 30.43441141 31.5199677 25.58634949 31.52655792 C21.02932813 31.5323194 16.47241834 31.52835656 11.91540909 31.51676941 C10.23918976 31.51411639 8.56296111 31.5148988 6.88674545 31.51929474 C4.60593292 31.52472646 2.32548221 31.51794535 0.04469299 31.50793457 C-1.23400162 31.50718052 -2.51269623 31.50642647 -3.83013916 31.50564957 C-6.78807068 31.25396729 -6.78807068 31.25396729 -8.78807068 29.25396729 C-9.04685974 26.58013916 -9.04685974 26.58013916 -9.05369568 23.22271729 C-9.0562738 22.02002197 -9.05885193 20.81732666 -9.06150818 19.57818604 C-9.0537738 18.31619385 -9.04603943 17.05420166 -9.03807068 15.75396729 C-9.04580505 14.4919751 -9.05353943 13.22998291 -9.06150818 11.92974854 C-9.05893005 10.72705322 -9.05635193 9.52435791 -9.05369568 8.28521729 C-9.05143982 7.17726807 -9.04918396 6.06931885 -9.04685974 4.92779541 C-8.49523326 -0.77165105 -4.81443058 0.00285848 0 0 Z " fill="#293D7C" transform="translate(175.78807067871094,426.74603271484375)"/>
<path d="M0 0 C2.875 2.1875 2.875 2.1875 5 5 C5.25174732 10.53844105 2.020119 15.5213008 -1 20 C-3.11475175 22.11475175 -5.00834306 23.55633448 -7.73976135 24.77836609 C-16.39549201 28.86405467 -22.55665048 36.09711278 -29.15234375 42.83203125 C-30.50129565 44.1935402 -31.85129387 45.5540132 -33.20228577 46.91349792 C-36.73639216 50.47406936 -40.25914177 54.04564584 -43.77868652 57.62060547 C-49.43361887 63.36219242 -55.10247173 69.08996198 -60.7775898 74.81159019 C-62.75782767 76.81231328 -64.73113207 78.81969272 -66.70384216 80.82783508 C-67.9077214 82.0453604 -69.11181608 83.26267275 -70.31616211 84.47973633 C-70.8652272 85.04227615 -71.4142923 85.60481598 -71.97999573 86.18440247 C-73.28244323 87.49469902 -74.63658302 88.753268 -76 90 C-76.66 90 -77.32 90 -78 90 C-77.95359375 91.09699219 -77.9071875 92.19398438 -77.859375 93.32421875 C-77.8218421 94.7786185 -77.78544357 96.23304783 -77.75 97.6875 C-77.71648437 98.40873047 -77.68296875 99.12996094 -77.6484375 99.87304688 C-77.57952164 103.64619014 -77.7804255 105.61371153 -79.6875 108.96875 C-82.38217867 111.33569748 -83.71078522 111.67279415 -87.25 111.8125 C-88.58804688 111.88404297 -88.58804688 111.88404297 -89.953125 111.95703125 C-90.62859375 111.97121094 -91.3040625 111.98539062 -92 112 C-92.70134176 114.50479201 -93.05846042 116.7288638 -93.26811218 119.34272766 C-94.11563858 123.57785057 -95.22864882 124.96031557 -98.27270508 127.95385742 C-99.18067337 128.86137253 -100.08864166 129.76888763 -101.02412415 130.7039032 C-102.02228406 131.67141073 -103.02076089 132.6385914 -104.01953125 133.60546875 C-105.04116039 134.6158906 -106.06146053 135.6276578 -107.08049011 136.64070129 C-109.76039327 139.29776508 -112.457803 141.93633266 -115.15936279 144.5713501 C-117.89888626 147.24957944 -120.62160683 149.94476843 -123.34570312 152.63867188 C-128.1436836 157.37932782 -132.95607144 162.10484042 -137.77937317 166.81974792 C-139.2577603 168.27125548 -140.72029145 169.73909388 -142.16630554 171.22285461 C-145.19234481 174.15557424 -147.69720498 174.41133656 -151.89648438 174.35253906 C-155.52812557 173.74389353 -157.77341045 171.40400414 -160.25 168.875 C-160.75273437 168.400625 -161.25546875 167.92625 -161.7734375 167.4375 C-166.04954278 163.29572263 -169.52702374 159.18296737 -170.8125 153.25 C-170.59925955 149.1761275 -168.77475352 147.2591007 -166.04443359 144.33789062 C-164.81729645 143.02026733 -164.81729645 143.02026733 -163.56536865 141.67602539 C-159.58038896 137.51915428 -155.55342631 133.41053857 -151.4765625 129.34375 C-150.60857025 128.47480103 -149.740578 127.60585205 -148.84628296 126.71057129 C-147.03074798 124.89436151 -145.21397255 123.07939093 -143.39599609 121.265625 C-140.60788002 118.4829132 -137.82520379 115.69484052 -135.04296875 112.90625 C-133.27115428 111.13509554 -131.49903006 109.36425089 -129.7265625 107.59375 C-128.89532867 106.76049194 -128.06409485 105.92723389 -127.20767212 105.06872559 C-126.05034073 103.91612244 -126.05034073 103.91612244 -124.86962891 102.74023438 C-123.85444687 101.72624573 -123.85444687 101.72624573 -122.8187561 100.69177246 C-119.69418645 97.78535698 -117.48482868 96.73781119 -113.3125 96.375 C-112.10013672 96.26285156 -112.10013672 96.26285156 -110.86328125 96.1484375 C-110.24839844 96.09945312 -109.63351563 96.05046875 -109 96 C-107.80224458 93.06877209 -107.80224458 93.06877209 -108.25 90.125 C-108 87 -108 87 -106.1875 84.125 C-102.14161081 81.42774054 -99.55654851 81.66216633 -94.81640625 82.01953125 C-88.12526832 81.97312946 -84.26708769 78.85741146 -79.73852539 74.2878418 C-79.14417191 73.70371017 -78.54981842 73.11957855 -77.93745422 72.51774597 C-75.9804276 70.58845574 -74.0385535 68.64472547 -72.09765625 66.69921875 C-70.73338175 65.34272645 -69.36866403 63.98667978 -68.00352478 62.63105774 C-65.14302977 59.78547911 -62.29039903 56.93228365 -59.44262695 54.07397461 C-55.81724398 50.43705968 -52.16977613 46.82325935 -48.51543522 43.21547222 C-45.68817829 40.41790297 -42.87513537 37.60636083 -40.06579399 34.79081154 C-38.7282362 33.45427139 -37.38602568 32.12236888 -36.03886604 30.79550743 C-28.7404907 23.59362012 -22.80695489 17.19352427 -18.63597107 7.70320129 C-14.95522633 1.62131261 -6.91181191 -2.30004552 0 0 Z " fill="#293D7B" transform="translate(248,126)"/>
<path d="M0 0 C0.97249695 0.00215515 1.9449939 0.0043103 2.94696045 0.00653076 C16.95150669 0.05634441 30.56437475 0.43079689 44.3125 3.3125 C45.30169434 3.50585938 46.29088867 3.69921875 47.31005859 3.8984375 C72.54824476 8.88679945 98.03897803 17.18355629 120.3125 30.3125 C120.6425 30.9725 120.9725 31.6325 121.3125 32.3125 C41.4525 32.3125 -38.4075 32.3125 -120.6875 32.3125 C-93.57939392 5.20439392 -35.90027094 -0.14336495 0 0 Z " fill="#F04876" transform="translate(255.6875,10.6875)"/>
<path d="M0 0 C6.6 0 13.2 0 20 0 C20.01030746 2.83943207 20.02061493 5.67886414 20.03123474 8.6043396 C20.12613554 34.62066191 20.22593976 60.63696183 20.33111694 86.6532447 C20.34488712 90.06049631 20.35861412 93.4677481 20.37231445 96.875 C20.37640691 97.8925174 20.37640691 97.8925174 20.38058204 98.9305907 C20.42470078 109.92555836 20.46531933 120.92053632 20.50465261 131.91552202 C20.54506625 143.19081107 20.58929637 154.46608073 20.63687855 165.74134219 C20.66349453 172.0772438 20.68834795 178.41314155 20.70907402 184.7490654 C20.72861568 190.70628572 20.75275198 196.66346934 20.78049088 202.62065697 C20.78987443 204.81288806 20.79754499 207.00512722 20.80341911 209.19737053 C20.81165817 212.17885201 20.82592857 215.16024387 20.84178162 218.14169312 C20.84275972 219.0191127 20.84373783 219.89653228 20.84474558 220.80054033 C20.75494292 225.03494127 20.75494292 225.03494127 22 229 C18.70840684 229.05790353 15.41694397 229.09356261 12.125 229.125 C11.18785156 229.14175781 10.25070313 229.15851563 9.28515625 229.17578125 C7.94130859 229.18544922 7.94130859 229.18544922 6.5703125 229.1953125 C5.74289551 229.20578613 4.91547852 229.21625977 4.06298828 229.22705078 C2 229 2 229 0 227 C-0.19366404 224.01649906 -0.26032427 221.12611108 -0.24050903 218.14169312 C-0.24221788 217.21301788 -0.24392673 216.28434264 -0.24568737 215.32752573 C-0.24899768 212.19662636 -0.23795327 209.06593842 -0.22705078 205.93505859 C-0.226487 203.69833888 -0.22680258 201.46161879 -0.22793579 199.22489929 C-0.2285116 193.13633677 -0.21672051 187.04785243 -0.20278788 180.95930815 C-0.19031838 174.60248424 -0.18911301 168.24565871 -0.18673706 161.88882446 C-0.18121931 151.21395346 -0.16871151 140.53911348 -0.15087891 129.86425781 C-0.1325282 118.86784001 -0.11836774 107.87143002 -0.10986328 96.875 C-0.10933783 96.19747745 -0.10881239 95.5199549 -0.10827102 94.82190137 C-0.10566099 91.42305851 -0.10313356 88.0242156 -0.10064721 84.62537265 C-0.07990496 56.41689438 -0.04412151 28.20845049 0 0 Z " fill="#D7E8FA" transform="translate(25,101)"/>
<path d="M0 0 C4.97954395 4.14789977 9.53479872 8.49250856 14 13.18359375 C15.31143126 14.53684382 16.62396378 15.88902739 17.9375 17.24023438 C19.98185321 19.34650031 22.01925818 21.45780732 24.0390625 23.58764648 C26.007698 25.65913179 28.00083208 27.70411666 30 29.74609375 C30.598125 30.38864609 31.19625 31.03119843 31.8125 31.69322205 C33.48280156 33.37460672 34.96485688 34.78430939 37 36 C40.73221285 36.06274086 40.73221285 36.06274086 44 35 C53.55550073 34.0835133 62.80407996 36.47586127 70.44140625 42.46484375 C77.5227562 49.43970724 81.12167429 58.09491785 81.25 67.9375 C81.17030568 72.65938865 81.17030568 72.65938865 80 75 C76.22531329 74.43379699 74.52448107 72.87731019 71.890625 70.18359375 C71.13652344 69.41982422 70.38242188 68.65605469 69.60546875 67.86914062 C68.82816406 67.06669922 68.05085938 66.26425781 67.25 65.4375 C66.06083984 64.22803711 66.06083984 64.22803711 64.84765625 62.99414062 C62.89152954 61.00266222 60.94274281 59.00452279 59 57 C55.7413364 58.4264578 53.5975146 60.16704162 51.109375 62.6953125 C50.04589844 63.76845703 50.04589844 63.76845703 48.9609375 64.86328125 C48.23132813 65.60964844 47.50171875 66.35601562 46.75 67.125 C45.63238281 68.25615234 45.63238281 68.25615234 44.4921875 69.41015625 C42.6568658 71.26900772 40.8263809 73.13237005 39 75 C43.06838173 79.8911484 47.34438078 84.47350753 51.875 88.9375 C52.46796875 89.52595703 53.0609375 90.11441406 53.671875 90.72070312 C55.11226466 92.14947674 56.5557967 93.57508132 58 95 C57.505 96.485 57.505 96.485 57 98 C49.93888453 100.60788498 42.48146033 99.08923837 35.7109375 96.38671875 C27.81341621 92.34692039 22.4223181 86.12800548 19 78 C17.94870952 74.73717128 18.04903845 73.79088451 18.88671875 70.21875 C20.03882082 64.39032098 20.2729291 59.59464173 18 54 C10.6250814 43.26635545 -0.26838858 34.52994968 -10 26 C-9.505 24.515 -9.505 24.515 -9 23 C-8.95584004 21.39644127 -8.96058538 19.79118238 -9 18.1875 C-9 8.03805497 -9 8.03805497 -6.15234375 5.08203125 C-4.15042518 3.31314024 -2.11634517 1.62944115 0 0 Z " fill="#FE961A" transform="translate(178,209)"/>
<path d="M0 0 C11.59588002 -0.92629811 19.73587761 0.96146678 28.875 8.3125 C38.24852701 20.16725475 38.24852701 20.16725475 37.82788086 24.96183777 C37.70807861 25.70299332 37.58827637 26.44414886 37.46484375 27.20776367 C36.51626527 35.36735152 36.19502741 42.31383423 41.37109375 49.09619141 C45.89319025 54.21313545 50.92089384 58.7603369 56 63.3125 C57.73914445 64.94610912 59.47357259 66.58475451 61.203125 68.22851562 C65.41611736 72.21205477 69.68310621 76.12945707 74 80 C73.04270084 81.12588014 72.08412105 82.2506715 71.125 83.375 C70.59132813 84.00148438 70.05765625 84.62796875 69.5078125 85.2734375 C66.55099353 88.65922502 64.92067562 89.44182287 60.37182617 89.79516602 C57.98751535 89.94692207 57.98751535 89.94692207 55.65356445 90.53100586 C51.7695633 91.09876807 48.6563635 91.13269921 45.30776978 88.84277344 C40.70822073 84.92109084 36.68232897 80.40504274 32.625 75.9375 C30.76458986 73.91864965 28.89662785 71.90871669 27.0093689 69.91493225 C25.84061392 68.67748523 24.68782286 67.42471924 23.55337524 66.15574646 C21.82355926 64.23588622 21.82355926 64.23588622 19 62 C16.32284482 61.95904455 16.32284482 61.95904455 14 63 C3.71272653 63.94830176 -4.35691637 63.14280834 -13 57 C-20.22490546 50.87840523 -24.35639016 43.41959558 -25.3046875 33.9609375 C-25.47675159 26.71512739 -25.47675159 26.71512739 -23 23 C-19.63664406 24.45745424 -17.45465995 26.31117854 -14.890625 28.9140625 C-14.13652344 29.67460937 -13.38242188 30.43515625 -12.60546875 31.21875 C-11.82816406 32.0128125 -11.05085938 32.806875 -10.25 33.625 C-9.06083984 34.82769531 -9.06083984 34.82769531 -7.84765625 36.0546875 C-5.89385507 38.03202846 -3.94487897 40.01388909 -2 42 C2.70341126 38.07711742 7.14273951 33.98981304 11.4375 29.625 C11.97826172 29.07972656 12.51902344 28.53445312 13.07617188 27.97265625 C14.38646723 26.65076536 15.69358284 25.32572382 17 24 C15.57888017 20.7279406 13.86464013 18.68034504 11.26953125 16.25 C10.54958984 15.5590625 9.82964844 14.868125 9.08789062 14.15625 C7.56477811 12.71288844 6.03606515 11.27541498 4.50195312 9.84375 C3.78587891 9.1528125 3.06980469 8.461875 2.33203125 7.75 C1.66921143 7.12609375 1.0063916 6.5021875 0.32348633 5.859375 C-1 4 -1 4 -0.70825195 1.765625 C-0.47452881 1.18296875 -0.24080566 0.6003125 0 0 Z " fill="#FE951A" transform="translate(95,119)"/>
<path d="M0 0 C1.2684375 0.8353125 1.2684375 0.8353125 2.5625 1.6875 C10.96396954 9.65812495 16.45775632 20.38347183 17 32 C17.07476562 32.89332031 17.14953125 33.78664063 17.2265625 34.70703125 C17.87066751 47.63998183 12.43192741 58.43330853 4 68 C-5.53928938 77.37996931 -18.280648 80.33778211 -31.16918945 80.38500977 C-43.88979231 80.17389363 -52.94612065 74.84012543 -61.93359375 66.125 C-71.02723173 56.42511949 -74.54132728 45.15526228 -74.2421875 32.04296875 C-73.26494836 19.76443185 -67.3406312 9.26441119 -58.42578125 0.8515625 C-40.36469826 -12.93419167 -18.51974325 -13.07025558 0 0 Z M-54 15 C-60.40880616 24.11310009 -62.28201687 31.75169549 -61 43 C-58.75317308 49.68036499 -55.50106976 55.48630173 -50 60 C-49.278125 60.680625 -48.55625 61.36125 -47.8125 62.0625 C-39.11696073 68.05276039 -30.73602469 69.10199186 -20.5 67.375 C-9.98362009 64.6808744 -3.41714552 58.24096354 2.09375 49.20703125 C5.53082062 41.99873037 5.38945297 31.45997248 3.05078125 23.953125 C1.86035059 21.47462584 0.55970572 19.26157329 -1 17 C-1.721875 15.9275 -2.44375 14.855 -3.1875 13.75 C-10.27210038 6.82283518 -18.01712224 3.49039982 -27.8125 2.6875 C-38.38509566 3.00029869 -47.01496083 7.11944299 -54 15 Z " fill="#DB722B" transform="translate(459,344)"/>
<path d="M0 0 C23.1 0 46.2 0 70 0 C70 13.86 70 27.72 70 42 C46.9 42 23.8 42 0 42 C0 28.14 0 14.28 0 0 Z " fill="#445D9F" transform="translate(231,385)"/>
<path d="M0 0 C1.14397247 -0.00983414 2.28794495 -0.01966827 3.46658325 -0.02980042 C4.71245209 -0.02013245 5.95832092 -0.01046448 7.24194336 -0.00050354 C8.56112762 -0.00590652 9.88031189 -0.01130951 11.23947144 -0.01687622 C14.85113395 -0.03082137 18.46231957 -0.01966811 22.07395554 -0.00316501 C25.85659902 0.01070131 29.63921526 0.00422362 33.421875 0.0007019 C39.77375967 -0.00199898 46.12545525 0.01146476 52.47729492 0.03465271 C59.81700365 0.06126179 67.15639624 0.06300915 74.49613667 0.05126435 C81.56174571 0.04047856 88.62724059 0.04667989 95.69284058 0.06081963 C98.6975271 0.06657252 101.70212989 0.06650226 104.70681763 0.06175423 C108.9035966 0.05608816 113.09990493 0.07531862 117.29663086 0.09715271 C119.16543411 0.09040024 119.16543411 0.09040024 121.07199097 0.08351135 C122.78794968 0.0983683 122.78794968 0.0983683 124.53857422 0.11352539 C125.53038193 0.11595529 126.52218964 0.11838518 127.54405212 0.12088871 C131.0503535 0.61020618 133.74920227 1.9811206 136.26928711 4.50120544 C136.77425869 8.20433035 136.59690014 9.99014622 134.56237793 13.16389465 C130.18485477 17.23560127 123.79159937 16.19322561 118.20483398 16.1481781 C116.86246048 16.15495725 115.52009628 16.16386207 114.17774963 16.17472839 C110.53916367 16.19749393 106.90128772 16.18869746 103.26268959 16.17283297 C99.45200332 16.16015942 95.64137717 16.1719181 91.83068848 16.17976379 C85.43169254 16.18885618 79.03298529 16.17688347 72.6340332 16.15306091 C65.23965237 16.1258501 57.84596087 16.13466458 50.45159674 16.16219294 C44.09896879 16.18489496 37.74654817 16.18807885 31.39389277 16.17499959 C27.60146443 16.16721096 23.80935994 16.16614693 20.01695251 16.18268204 C16.45109282 16.19714384 12.88612037 16.1870757 9.32035637 16.15821075 C7.39026478 16.14846356 5.46009801 16.16328575 3.53004456 16.17884827 C-5.90593848 16.06340171 -5.90593848 16.06340171 -9.00817871 13.1521759 C-10.73071289 10.50120544 -10.73071289 10.50120544 -11.35571289 7.43870544 C-10.09771265 1.52610432 -5.57406847 0.0011762 0 0 Z " fill="#69CDFF" transform="translate(301.730712890625,181.49879455566406)"/>
<path d="M0 0 C1.71389671 -0.01268921 1.71389671 -0.01268921 3.4624176 -0.02563477 C4.71188171 -0.01956207 5.96134583 -0.01348938 7.24867249 -0.00723267 C9.22722984 -0.0151181 9.22722984 -0.0151181 11.24575806 -0.02316284 C14.8615282 -0.03683796 18.47704149 -0.03153677 22.09281611 -0.02202559 C25.8781381 -0.01442837 29.66343814 -0.02147491 33.44876099 -0.02618408 C39.80658412 -0.03164213 46.16430272 -0.02444947 52.52210999 -0.01016235 C59.86917282 0.0061573 67.21598582 0.00088094 74.56304258 -0.01564157 C80.87314965 -0.02926345 87.18318157 -0.03117247 93.49329859 -0.02332556 C97.26107633 -0.01865198 101.02873671 -0.01801532 104.79650688 -0.02793503 C108.33998343 -0.03661245 111.88313854 -0.03056896 115.42658043 -0.01325226 C117.34476151 -0.00740417 119.26296982 -0.01629689 121.18113708 -0.02563477 C122.89926353 -0.01294556 122.89926353 -0.01294556 124.65209961 0 C126.1417594 0.00169662 126.1417594 0.00169662 127.66151333 0.00342751 C130.91554174 0.45374246 132.78560776 1.39463928 135.38954163 3.38095093 C136.51454163 6.75595093 136.51454163 6.75595093 136.38954163 10.38095093 C134.7405711 12.99987437 134.03420102 13.95592273 131.38954163 15.38095093 C127.04151263 16.14213987 122.72964687 16.06343866 118.3250885 16.02792358 C116.98271499 16.03470273 115.64035079 16.04360755 114.29800415 16.05447388 C110.65941819 16.07723942 107.02154224 16.06844294 103.38294411 16.05257845 C99.57225784 16.0399049 95.76163169 16.05166358 91.95094299 16.05950928 C85.55194706 16.06860166 79.15323981 16.05662895 72.75428772 16.0328064 C65.35990689 16.00559558 57.96621538 16.01441006 50.57185125 16.04193842 C44.21922331 16.06464044 37.86680269 16.06782434 31.51414728 16.05474508 C27.72171895 16.04695644 23.92961446 16.04589241 20.13720703 16.06242752 C16.57134734 16.07688933 13.00637488 16.06682118 9.44061089 16.03795624 C7.5105193 16.02820904 5.58035253 16.04303124 3.65029907 16.05859375 C-5.78722208 15.94312838 -5.78722208 15.94312838 -8.92308044 13.06707764 C-10.61045837 10.38095093 -10.61045837 10.38095093 -10.67295837 6.75595093 C-8.85601112 0.98447142 -5.78103155 0.00658668 0 0 Z " fill="#38C47A" transform="translate(301.61045837402344,222.61904907226563)"/>
<path d="M0 0 C1.71389671 -0.01268921 1.71389671 -0.01268921 3.4624176 -0.02563477 C4.71188171 -0.01956207 5.96134583 -0.01348938 7.24867249 -0.00723267 C9.22722984 -0.0151181 9.22722984 -0.0151181 11.24575806 -0.02316284 C14.8615282 -0.03683796 18.47704149 -0.03153677 22.09281611 -0.02202559 C25.8781381 -0.01442837 29.66343814 -0.02147491 33.44876099 -0.02618408 C39.80658412 -0.03164213 46.16430272 -0.02444947 52.52210999 -0.01016235 C59.86917282 0.0061573 67.21598582 0.00088094 74.56304258 -0.01564157 C80.87314965 -0.02926345 87.18318157 -0.03117247 93.49329859 -0.02332556 C97.26107633 -0.01865198 101.02873671 -0.01801532 104.79650688 -0.02793503 C108.33998343 -0.03661245 111.88313854 -0.03056896 115.42658043 -0.01325226 C117.34476151 -0.00740417 119.26296982 -0.01629689 121.18113708 -0.02563477 C122.89926353 -0.01294556 122.89926353 -0.01294556 124.65209961 0 C126.1417594 0.00169662 126.1417594 0.00169662 127.66151333 0.00342751 C130.91554174 0.45374246 132.78560776 1.39463928 135.38954163 3.38095093 C136.51454163 6.75595093 136.51454163 6.75595093 136.38954163 10.38095093 C134.7405711 12.99987437 134.03420102 13.95592273 131.38954163 15.38095093 C127.04151263 16.14213987 122.72964687 16.06343866 118.3250885 16.02792358 C116.98271499 16.03470273 115.64035079 16.04360755 114.29800415 16.05447388 C110.65941819 16.07723942 107.02154224 16.06844294 103.38294411 16.05257845 C99.57225784 16.0399049 95.76163169 16.05166358 91.95094299 16.05950928 C85.55194706 16.06860166 79.15323981 16.05662895 72.75428772 16.0328064 C65.35990689 16.00559558 57.96621538 16.01441006 50.57185125 16.04193842 C44.21922331 16.06464044 37.86680269 16.06782434 31.51414728 16.05474508 C27.72171895 16.04695644 23.92961446 16.04589241 20.13720703 16.06242752 C16.57134734 16.07688933 13.00637488 16.06682118 9.44061089 16.03795624 C7.5105193 16.02820904 5.58035253 16.04303124 3.65029907 16.05859375 C-5.78722208 15.94312838 -5.78722208 15.94312838 -8.92308044 13.06707764 C-10.61045837 10.38095093 -10.61045837 10.38095093 -10.67295837 6.75595093 C-8.85601112 0.98447142 -5.78103155 0.00658668 0 0 Z " fill="#69CDFF" transform="translate(301.61045837402344,132.61904907226563)"/>
<path d="M0 0 C1.29982315 -0.00554901 2.5996463 -0.01109802 3.93885803 -0.01681519 C7.4927279 -0.03102829 11.0458208 -0.01403772 14.59961629 0.00946999 C18.32352316 0.02961925 22.04739905 0.02369739 25.77134705 0.0213623 C32.02315034 0.02141583 38.27465089 0.04114387 44.52636719 0.07324219 C51.74965907 0.11014908 58.97255476 0.11891504 66.19592863 0.11194468 C73.1520961 0.10563561 80.10812801 0.11640035 87.06426811 0.13591003 C90.02149833 0.14407517 92.97865919 0.14679523 95.93589973 0.1452179 C100.06554223 0.14417431 104.19466411 0.16836833 108.32421875 0.1953125 C109.54981506 0.1923819 110.77541138 0.18945129 112.03814697 0.18643188 C113.16384598 0.19778168 114.28954498 0.20913147 115.44935608 0.2208252 C116.42511628 0.22455391 117.40087648 0.22828262 118.40620518 0.23212433 C122.54708021 0.82160365 125.18095117 2.69877343 128.09741211 5.61523438 C128.47241211 8.49023438 128.47241211 8.49023438 128.09741211 11.61523438 C126.02064602 14.31346891 124.82651022 15.4768387 121.44557953 16.11859894 C119.9213525 16.12086109 119.9213525 16.12086109 118.36633301 16.12316895 C117.19704758 16.13444824 116.02776215 16.14572754 114.82304382 16.15734863 C113.54395645 16.14925171 112.26486908 16.14115479 110.94702148 16.1328125 C109.58347323 16.1382339 108.21993084 16.14535667 106.85639954 16.15405273 C103.15592651 16.17228733 99.45589959 16.16521832 95.75541878 16.15253639 C91.88287275 16.14240929 88.01036491 16.15180126 84.13781738 16.15808105 C77.6345331 16.16535833 71.13143052 16.15576776 64.62817383 16.13671875 C57.10948103 16.1149497 49.59122209 16.12200103 42.07253981 16.14402437 C35.6172106 16.16217619 29.162012 16.16473781 22.70666552 16.1542697 C18.85113952 16.1480335 14.99581746 16.14720241 11.14030457 16.16041565 C7.51548643 16.17197053 3.89122766 16.1639559 0.26646996 16.14083862 C-1.69841874 16.13302632 -3.66335475 16.14491058 -5.6282196 16.15734863 C-6.79750504 16.14606934 -7.96679047 16.13479004 -9.17150879 16.12316895 C-10.18766014 16.12166084 -11.20381149 16.12015274 -12.25075531 16.11859894 C-15.62802617 15.4775334 -16.81040105 14.29364948 -18.90258789 11.61523438 C-19.52758789 8.67773438 -19.52758789 8.67773438 -18.90258789 5.61523438 C-13.58909179 -0.69854365 -7.8357337 -0.08493758 0 0 Z " fill="#3DC57E" transform="translate(309.902587890625,246.384765625)"/>
<path d="M0 0 C1.29982315 -0.00554901 2.5996463 -0.01109802 3.93885803 -0.01681519 C7.4927279 -0.03102829 11.0458208 -0.01403772 14.59961629 0.00946999 C18.32352316 0.02961925 22.04739905 0.02369739 25.77134705 0.0213623 C32.02315034 0.02141583 38.27465089 0.04114387 44.52636719 0.07324219 C51.74965907 0.11014908 58.97255476 0.11891504 66.19592863 0.11194468 C73.1520961 0.10563561 80.10812801 0.11640035 87.06426811 0.13591003 C90.02149833 0.14407517 92.97865919 0.14679523 95.93589973 0.1452179 C100.06554223 0.14417431 104.19466411 0.16836833 108.32421875 0.1953125 C109.54981506 0.1923819 110.77541138 0.18945129 112.03814697 0.18643188 C113.16384598 0.19778168 114.28954498 0.20913147 115.44935608 0.2208252 C116.42511628 0.22455391 117.40087648 0.22828262 118.40620518 0.23212433 C122.54708021 0.82160365 125.18095117 2.69877343 128.09741211 5.61523438 C128.47241211 8.49023438 128.47241211 8.49023438 128.09741211 11.61523438 C126.02064602 14.31346891 124.82651022 15.4768387 121.44557953 16.11859894 C119.9213525 16.12086109 119.9213525 16.12086109 118.36633301 16.12316895 C117.19704758 16.13444824 116.02776215 16.14572754 114.82304382 16.15734863 C113.54395645 16.14925171 112.26486908 16.14115479 110.94702148 16.1328125 C109.58347323 16.1382339 108.21993084 16.14535667 106.85639954 16.15405273 C103.15592651 16.17228733 99.45589959 16.16521832 95.75541878 16.15253639 C91.88287275 16.14240929 88.01036491 16.15180126 84.13781738 16.15808105 C77.6345331 16.16535833 71.13143052 16.15576776 64.62817383 16.13671875 C57.10948103 16.1149497 49.59122209 16.12200103 42.07253981 16.14402437 C35.6172106 16.16217619 29.162012 16.16473781 22.70666552 16.1542697 C18.85113952 16.1480335 14.99581746 16.14720241 11.14030457 16.16041565 C7.51548643 16.17197053 3.89122766 16.1639559 0.26646996 16.14083862 C-1.69841874 16.13302632 -3.66335475 16.14491058 -5.6282196 16.15734863 C-6.79750504 16.14606934 -7.96679047 16.13479004 -9.17150879 16.12316895 C-10.18766014 16.12166084 -11.20381149 16.12015274 -12.25075531 16.11859894 C-15.62802617 15.4775334 -16.81040105 14.29364948 -18.90258789 11.61523438 C-19.52758789 8.67773438 -19.52758789 8.67773438 -18.90258789 5.61523438 C-13.58909179 -0.69854365 -7.8357337 -0.08493758 0 0 Z " fill="#6DCEFF" transform="translate(309.902587890625,156.384765625)"/>
<path d="M0 0 C2.875 2.1875 2.875 2.1875 5 5 C5.25174732 10.53844105 2.020119 15.5213008 -1 20 C-3.11475175 22.11475175 -5.00834306 23.55633448 -7.73976135 24.77836609 C-16.39549201 28.86405467 -22.55665048 36.09711278 -29.15234375 42.83203125 C-30.50129565 44.1935402 -31.85129387 45.5540132 -33.20228577 46.91349792 C-36.73639216 50.47406936 -40.25914177 54.04564584 -43.77868652 57.62060547 C-49.43361887 63.36219242 -55.10247173 69.08996198 -60.7775898 74.81159019 C-62.75782767 76.81231328 -64.73113207 78.81969272 -66.70384216 80.82783508 C-67.9077214 82.0453604 -69.11181608 83.26267275 -70.31616211 84.47973633 C-70.8652272 85.04227615 -71.4142923 85.60481598 -71.97999573 86.18440247 C-73.28244323 87.49469902 -74.63658302 88.753268 -76 90 C-76.66 90 -77.32 90 -78 90 C-77.95875 90.94875 -77.9175 91.8975 -77.875 92.875 C-78 96 -78 96 -80 98 C-84.36574458 93.02718443 -88.70214922 88.03163018 -93 83 C-91.97648438 82.62515472 -90.95296875 82.25030945 -89.8984375 81.86410522 C-85.66690718 80.04030444 -82.8386734 77.41728296 -79.625 74.17431641 C-79.03050049 73.59003876 -78.43600098 73.00576111 -77.82348633 72.40377808 C-75.87192996 70.47989039 -73.9354578 68.54163549 -72 66.6015625 C-70.63715348 65.2465007 -69.27386475 63.89188352 -67.91015625 62.53768921 C-65.05564519 59.69807915 -62.20897814 56.85087307 -59.3671875 53.99853516 C-55.74968553 50.36949056 -52.11007137 46.76358833 -48.46362305 43.16366005 C-45.64065926 40.37037998 -42.83190535 37.56313156 -40.02685547 34.75187302 C-38.69208886 33.41812382 -37.35267159 32.08901012 -36.00830078 30.76494217 C-28.71958709 23.57283268 -22.80389159 17.18125104 -18.63720703 7.70443726 C-14.95529367 1.62243085 -6.91309609 -2.30047285 0 0 Z " fill="#4962A1" transform="translate(248,126)"/>
<path d="M0 0 C5.75070545 3.205011 9.60552611 7.75407834 11.6875 14 C12.34589864 22.66047435 11.54462437 28.20003106 7.125 35.625 C2.03547825 40.58402119 -3.81156223 43.28499477 -10.9375 43.5625 C-18.42464545 43.15123426 -23.11857008 40.56940621 -28.1875 35.125 C-32.67159682 29.5683971 -33.78804879 24.58266288 -33.62890625 17.52734375 C-32.81913562 11.05917591 -29.29214749 6.07425704 -24.3125 2 C-16.72446272 -3.28390724 -8.4266196 -3.73812448 0 0 Z " fill="#DB732B" transform="translate(441.3125,359)"/>
<path d="M0 0 C0.7734375 0.08765625 1.546875 0.1753125 2.34375 0.265625 C4.5 0.75 4.5 0.75 7.5 2.75 C6.02180621 6.18137029 4.09537543 8.39263076 1.44921875 11.01196289 C0.61495361 11.84284927 -0.21931152 12.67373566 -1.07885742 13.52980042 C-1.98095947 14.41844284 -2.88306152 15.30708527 -3.8125 16.22265625 C-5.22511348 17.62732325 -6.63772448 19.03199276 -8.05018616 20.4368124 C-10.02722432 22.40073052 -12.00876936 24.3600704 -13.99035645 26.31939697 C-17.45977273 29.75080032 -20.92438625 33.18703729 -24.38549805 36.6268158 C-26.22797394 38.45702069 -28.07311615 40.28454598 -29.92114258 42.10914612 C-30.75540771 42.93688034 -31.58967285 43.76461456 -32.44921875 44.61743164 C-33.18487061 45.34483047 -33.92052246 46.07222931 -34.6784668 46.82167053 C-37.91305585 50.24590314 -39.11131252 52.79186165 -39.0234375 57.5546875 C-37.8344948 62.54114869 -33.41157098 65.9887773 -29.76171875 69.3515625 C-29.34535156 69.81304687 -28.92898437 70.27453125 -28.5 70.75 C-28.625 72.8125 -28.625 72.8125 -29.5 74.75 C-33.20223391 77.21815594 -36.20560711 77.55494522 -40.5 76.75 C-42.98352011 75.08045657 -44.70751423 73.71071298 -46.75 71.625 C-47.25273438 71.150625 -47.75546875 70.67625 -48.2734375 70.1875 C-52.54954278 66.04572263 -56.02702374 61.93296737 -57.3125 56 C-57.09925955 51.9261275 -55.27475352 50.0091007 -52.54443359 47.08789062 C-51.72634216 46.2094751 -50.90825073 45.33105957 -50.06536865 44.42602539 C-46.08038896 40.26915428 -42.05342631 36.16053857 -37.9765625 32.09375 C-37.10857025 31.22480103 -36.240578 30.35585205 -35.34628296 29.46057129 C-33.53074798 27.64436151 -31.71397255 25.82939093 -29.89599609 24.015625 C-27.10788002 21.2329132 -24.32520379 18.44484052 -21.54296875 15.65625 C-19.77115428 13.88509554 -17.99903006 12.11425089 -16.2265625 10.34375 C-15.39532867 9.51049194 -14.56409485 8.67723389 -13.70767212 7.81872559 C-12.55034073 6.66612244 -12.55034073 6.66612244 -11.36962891 5.49023438 C-10.69284088 4.81424194 -10.01605286 4.13824951 -9.3187561 3.44177246 C-6.07674004 0.42611055 -4.33543245 -0.54915478 0 0 Z " fill="#1D2D65" transform="translate(134.5,223.25)"/>
<path d="M0 0 C0.69626999 -0.00686325 1.39253998 -0.0137265 2.10990906 -0.02079773 C4.41210306 -0.03910279 6.71361796 -0.03522311 9.01586914 -0.02954102 C10.61625898 -0.03410125 12.21664685 -0.03940635 13.81703186 -0.04542542 C17.17204745 -0.0543639 20.5268251 -0.05192536 23.88183594 -0.04199219 C28.18071168 -0.03050466 32.47876576 -0.05070616 36.77753353 -0.07990932 C40.08298457 -0.09825921 43.3882383 -0.09798129 46.69372749 -0.0922718 C48.27856155 -0.09211842 49.86340884 -0.09817679 51.4481945 -0.11056328 C53.66520521 -0.12544859 55.88069308 -0.11481647 58.09765625 -0.09765625 C59.98936806 -0.097407 59.98936806 -0.097407 61.91929626 -0.09715271 C65.11352539 0.40405273 65.11352539 0.40405273 67.52076721 2.21665955 C69.84705647 5.41143785 69.66355639 7.55383574 69.11352539 11.40405273 C66.90018253 14.42631059 65.70264412 15.3075791 61.97071838 15.91871643 C60.11470253 15.9280143 60.11470253 15.9280143 58.22119141 15.9375 C57.53613525 15.94611557 56.8510791 15.95473114 56.14526367 15.96360779 C53.88559956 15.98627033 51.6271755 15.97952896 49.36743164 15.97045898 C47.79328544 15.97569484 46.21914239 15.98197119 44.64500427 15.98924255 C41.3471703 15.99964746 38.04976779 15.99508489 34.75195312 15.98046875 C30.53035911 15.96328796 26.31012704 15.98676526 22.08868504 16.02195835 C18.83805867 16.04394445 15.58775752 16.04248797 12.33708 16.03419304 C10.78097986 16.03337402 9.22485573 16.0402281 7.66882515 16.05496407 C5.49012303 16.07243267 3.31385897 16.05785338 1.13525391 16.03515625 C-0.72195534 16.03371361 -0.72195534 16.03371361 -2.61668396 16.03224182 C-6.80341056 15.22789187 -8.31950666 13.75061849 -10.88647461 10.40405273 C-10.88647461 6.95498117 -10.70052774 4.61617371 -8.75437927 1.71836853 C-5.89902483 -0.29074763 -3.45928147 0.01482962 0 0 Z " fill="#39C47B" transform="translate(301.886474609375,271.595947265625)"/>
<path d="M0 0 C0.77335993 -0.00346153 1.54671987 -0.00692307 2.34351495 -0.01048949 C4.95640854 -0.01848248 7.5687567 -0.00492861 10.18162251 0.00837994 C12.06512196 0.00707271 13.9486209 0.00444782 15.8321169 0.00061244 C21.02452579 -0.00612072 26.21675032 0.00593894 31.4091357 0.02094662 C37.00218234 0.03386206 42.59521799 0.02952072 48.18827534 0.0272398 C57.88416426 0.02566421 67.57999278 0.03510319 77.27586651 0.05195332 C91.29458698 0.07630015 105.31327814 0.08414416 119.33201746 0.08791729 C142.07465489 0.09448856 164.81725461 0.11444232 187.55987263 0.14282513 C209.65655061 0.17037 231.75321998 0.19162497 253.84991169 0.20434856 C254.87125407 0.20494043 254.87125407 0.20494043 255.91322962 0.20554426 C262.75094106 0.20949975 269.58865257 0.21332721 276.42636414 0.21706083 C333.78737706 0.24839395 391.14835479 0.30134181 448.50933552 0.36914349 C448.50933552 0.69914349 448.50933552 1.02914349 448.50933552 1.36914349 C231.69933552 1.86414349 231.69933552 1.86414349 10.50933552 2.36914349 C10.17933552 11.27914349 9.84933552 20.18914349 9.50933552 29.36914349 C2.90933552 29.36914349 -3.69066448 29.36914349 -10.49066448 29.36914349 C-10.57136612 25.09793468 -10.63102653 20.82824019 -10.67816448 16.55664349 C-10.7033012 15.34170208 -10.72843792 14.12676067 -10.75433636 12.87500286 C-10.76400433 11.71162395 -10.77367229 10.54824505 -10.78363323 9.34961224 C-10.79934368 8.27606487 -10.81505413 7.20251751 -10.83124065 6.09643841 C-10.49066448 3.36914349 -10.49066448 3.36914349 -9.437545 1.72175902 C-6.47773136 -0.33460236 -3.4761101 -0.03785456 0 0 Z " fill="#3595A8" transform="translate(35.4906644821167,71.63085651397705)"/>
<path d="M0 0 C6.6 0 13.2 0 20 0 C20 13.86 20 27.72 20 42 C13.4 42 6.8 42 0 42 C0 28.14 0 14.28 0 0 Z " fill="#2E4C89" transform="translate(211,385)"/>
<path d="M0 0 C3.3332049 2.2726397 6.05544029 4.17581221 7.75 7.875 C8.62938865 13.44955935 8.4979518 18.19958796 6.1875 23.375 C2.23878302 27.42496614 -1.47430302 30.03920366 -7.25 30.375 C-13.02569698 30.03920366 -16.73878302 27.42496614 -20.6875 23.375 C-23.00325401 18.18771102 -23.25136617 13.45724278 -22.25 7.875 C-17.52611341 -0.94800108 -9.16042543 -3.1709165 0 0 Z " fill="#435D9F" transform="translate(263.25,343.125)"/>
<path d="M0 0 C0.82741699 0.01047363 1.65483398 0.02094727 2.50732422 0.03173828 C3.40322266 0.03818359 4.29912109 0.04462891 5.22216797 0.05126953 C6.62789062 0.07640625 6.62789062 0.07640625 8.06201172 0.10205078 C9.00689453 0.11107422 9.95177734 0.12009766 10.92529297 0.12939453 C13.26278464 0.15300556 15.59977295 0.18593562 17.93701172 0.22705078 C17.60701172 0.88705078 17.27701172 1.54705078 16.93701172 2.22705078 C16.83981181 4.23560431 16.80624639 6.24739778 16.80419922 8.25830078 C16.80291016 9.46099609 16.80162109 10.66369141 16.80029297 11.90283203 C16.80609375 13.79582031 16.80609375 13.79582031 16.81201172 15.72705078 C16.80814453 16.98904297 16.80427734 18.25103516 16.80029297 19.55126953 C16.80158203 20.75396484 16.80287109 21.95666016 16.80419922 23.19580078 C16.80532715 24.30375 16.80645508 25.41169922 16.80761719 26.55322266 C16.75549703 29.20023594 16.75549703 29.20023594 17.93701172 31.22705078 C14.64541856 31.28495431 11.35395569 31.32061339 8.06201172 31.35205078 C6.65628906 31.3771875 6.65628906 31.3771875 5.22216797 31.40283203 C3.87832031 31.4125 3.87832031 31.4125 2.50732422 31.42236328 C1.67990723 31.43283691 0.85249023 31.44331055 0 31.45410156 C-2.06298828 31.22705078 -2.06298828 31.22705078 -4.06298828 29.22705078 C-4.32177734 26.55322266 -4.32177734 26.55322266 -4.32861328 23.19580078 C-4.33119141 21.99310547 -4.33376953 20.79041016 -4.33642578 19.55126953 C-4.32869141 18.28927734 -4.32095703 17.02728516 -4.31298828 15.72705078 C-4.32072266 14.46505859 -4.32845703 13.20306641 -4.33642578 11.90283203 C-4.33384766 10.70013672 -4.33126953 9.49744141 -4.32861328 8.25830078 C-4.32635742 7.15035156 -4.32410156 6.04240234 -4.32177734 4.90087891 C-4.00647054 1.64310521 -3.37827939 0.37181063 0 0 Z " fill="#1A2B63" transform="translate(171.06298828125,426.77294921875)"/>
<path d="M0 0 C3.37882179 2.3933321 4.67073608 4.03278722 6 7.9375 C6 11.74724203 5.033189 13.80498871 3 17 C-1.03485494 19.68990329 -4.26228652 19.77993882 -9 19 C-12.0625 17.0625 -12.0625 17.0625 -14 14 C-15.03945854 9.24941677 -14.669717 6.05858493 -12.0625 1.9375 C-7.95653383 -0.66015206 -4.73592006 -1.0638661 0 0 Z " fill="#FEAD10" transform="translate(435,370)"/>
<path d="M0 0 C0.66 0.33 1.32 0.66 2 1 C1.52949219 1.66644531 1.05898438 2.33289063 0.57421875 3.01953125 C-5.08402608 11.39560796 -9.57736249 20.59649684 -8 31 C-6.37584211 38.80880433 -4.49951866 45.48074609 0.828125 51.546875 C2 53 2 53 2 55 C-5.51105274 51.93994148 -9.73497271 44.69695132 -13.11328125 37.69140625 C-15.7561581 29.66963467 -14.94059673 20.90166854 -11.3125 13.375 C-8.96179497 9.24463385 -6.63284581 6.04373568 -3 3 C-2.401875 2.401875 -1.80375 1.80375 -1.1875 1.1875 C-0.795625 0.795625 -0.40375 0.40375 0 0 Z " fill="#FD9418" transform="translate(412,352)"/>
<path d="M0 0 C3.82622492 1.06123597 6.38712257 3.75686932 9.0703125 6.57421875 C6.36546563 7.92664219 4.0709806 7.57421875 1.0703125 7.57421875 C0.0803125 7.90421875 -0.9096875 8.23421875 -1.9296875 8.57421875 C-1.99027344 9.18910156 -2.05085937 9.80398437 -2.11328125 10.4375 C-2.19707031 11.24574219 -2.28085938 12.05398437 -2.3671875 12.88671875 C-2.44839844 13.68722656 -2.52960938 14.48773438 -2.61328125 15.3125 C-2.9296875 17.57421875 -2.9296875 17.57421875 -3.9296875 20.57421875 C-4.91138226 19.45142413 -5.88996048 18.32590402 -6.8671875 17.19921875 C-7.41246094 16.57273438 -7.95773438 15.94625 -8.51953125 15.30078125 C-10.39688495 13.00219306 -10.90744391 11.74104568 -11.3046875 8.76171875 C-10.9296875 5.57421875 -10.9296875 5.57421875 -8.9296875 2.69921875 C-5.82619723 0.50091314 -3.8219015 -0.2107132 0 0 Z " fill="#1F3066" transform="translate(150.9296875,207.42578125)"/>
<path d="M0 0 C0.99 0.33 1.98 0.66 3 1 C2.505 1.7425 2.505 1.7425 2 2.5 C-0.25394087 8.13485218 0.81325951 13.53314877 3 19 C0.44609016 18.63515574 -1.0891745 17.94055033 -3.25 16.5 C-5.50022901 13.28538713 -5.61921589 11.05684048 -5.47265625 7.1953125 C-4.73024693 3.7470973 -2.70902496 2.09949435 0 0 Z " fill="#FE9418" transform="translate(426,370)"/>
<path d="M0 0 C1.48046875 1.5390625 1.48046875 1.5390625 3.1875 3.625 C6.0722971 7.02881917 9.07201114 9.94915329 12.51953125 12.7734375 C14 14 14 14 16 16 C14.35 16.66 12.7 17.32 11 18 C10.40832031 17.32453125 9.81664062 16.6490625 9.20703125 15.953125 C8.41683594 15.06109375 7.62664062 14.1690625 6.8125 13.25 C6.03519531 12.36828125 5.25789062 11.4865625 4.45703125 10.578125 C1.25330434 7.21650375 -2.1434079 4.5710614 -6 2 C-2.25 0 -2.25 0 0 0 Z " fill="#4760A0" transform="translate(142,221)"/>
</svg>
