<svg width="88" height="81" viewBox="0 0 88 81" fill="none" xmlns="http://www.w3.org/2000/svg">
<g clip-path="url(#clip0_6073_1013)">
<path d="M40.5652 0.5L24.9586 23.9017V38.7366H15.3929V23.9017L0.485428 0.5H11.2366L20.716 15.5679L30.273 0.5H40.5652Z" fill="white"/>
<path d="M56.6284 30.3234H39.3142L35.7927 38.8264H28.1257L44.3382 0.589844H52.1806L67.7353 38.8264H59.5423L56.6282 30.3234H56.6284ZM53.7524 22.6895L48.4446 8.65772L42.523 22.6895H53.7524Z" fill="#CB171E"/>
<path d="M15.3927 43.0244V80.4996H23.4332V54.6496L31.848 72.0248H38.177L46.8793 54.0389V80.492H54.5927V43.0244H44.0608L34.7159 59.9723L25.8158 43.0244H15.3927Z" fill="white"/>
<path d="M87.5146 72.3557H67.7355V43.0156H59.5432V80.3297H87.5146V72.356V72.3557Z" fill="white"/>
</g>
<defs>
<clipPath id="clip0_6073_1013">
<rect width="87.0291" height="80" fill="white" transform="translate(0.485428 0.5)"/>
</clipPath>
</defs>
</svg>
