<svg width="36" height="32" viewBox="0 0 36 32" fill="none" xmlns="http://www.w3.org/2000/svg">
<g clip-path="url(#clip0_6073_962)">
<path d="M16.5319 0L10.2893 9.36066V15.2946H6.46299V9.36066L0.5 0H4.80046L8.59221 6.02718L12.415 0H16.5319Z" fill="black"/>
<path d="M22.9572 11.9291H16.0315L14.6229 15.3303H11.5561L18.0411 0.0356445H21.1781L27.4 15.3303H24.1228L22.9571 11.9291H22.9572ZM21.8068 8.87549L19.6837 3.26279L17.315 8.87549H21.8068Z" fill="#CB171E"/>
<path d="M6.46292 17.0098V31.9999H9.67913V21.6598L13.045 28.6099H15.5766L19.0575 21.4155V31.9968H22.1429V17.0098H17.9302L14.1922 23.7889L10.6322 17.0098H6.46292Z" fill="black"/>
<path d="M35.3117 28.7424H27.4V17.0063H24.1231V31.932H35.3117V28.7425V28.7424Z" fill="black"/>
</g>
<defs>
<clipPath id="clip0_6073_962">
<rect width="34.8117" height="32" fill="white" transform="translate(0.5)"/>
</clipPath>
</defs>
</svg>
